<?xml version="1.0" standalone="no"?>
<!DOCTYPE svg PUBLIC "-//W3C//DTD SVG 20010904//EN"
 "http://www.w3.org/TR/2001/REC-SVG-20010904/DTD/svg10.dtd">
<svg version="1.0" xmlns="http://www.w3.org/2000/svg"
 width="1024.000000pt" height="1024.000000pt" viewBox="0 0 1024.000000 1024.000000"
 preserveAspectRatio="xMidYMid meet">
<metadata>
Created by potrace 1.11, written by Peter Selinger 2001-2013
</metadata>
<g transform="translate(0.000000,1024.000000) scale(0.100000,-0.100000)"
fill="#000000" stroke="none">
<path d="M0 5120 l0 -5120 5120 0 5120 0 0 5120 0 5120 -5120 0 -5120 0 0
-5120z m9152 3616 c69 -16 150 -66 168 -104 l13 -27 9 42 c21 99 152 127 201
43 19 -32 22 -82 6 -112 -11 -20 -9 -20 32 -14 69 11 71 11 124 3 72 -12 149
-68 193 -140 34 -55 36 -64 36 -140 0 -90 -13 -127 -65 -190 -30 -37 -99 -80
-128 -81 -26 -1 -60 37 -50 55 6 12 4 19 -8 23 -14 6 -14 8 3 21 10 8 14 15 7
15 -6 0 -18 3 -27 6 -13 5 -16 -1 -16 -31 0 -25 4 -34 12 -29 6 4 8 3 5 -4 -9
-13 -47 -4 -47 12 -1 6 -8 -5 -17 -24 -9 -19 -15 -38 -15 -42 1 -5 -7 -8 -17
-8 -24 0 -131 61 -131 75 0 5 -14 26 -30 45 -25 30 -30 32 -30 15 0 -47 -70
-94 -70 -47 -1 16 -1 16 -11 0 -29 -50 -85 6 -74 75 4 28 3 37 -3 28 -6 -8
-22 -15 -37 -17 -15 -2 -24 0 -21 3 3 3 -3 13 -14 20 -13 9 -19 21 -15 33 4
11 -1 20 -11 24 -16 6 -15 8 2 21 18 14 16 16 -18 19 -7 1 -13 -6 -14 -14 -1
-8 -2 -26 -2 -39 -2 -20 -5 -22 -14 -13 -16 16 -29 15 -22 -2 3 -7 -2 -16 -10
-19 -9 -4 -16 -13 -16 -22 0 -15 -45 -22 -52 -7 -1 4 -22 17 -46 30 -46 25
-42 26 -58 -26 -6 -19 -35 -27 -45 -11 -6 10 -9 10 -9 2 0 -24 -30 -13 -49 18
-12 19 -21 26 -26 19 -12 -19 -84 -60 -105 -60 -12 0 -19 4 -16 9 3 5 -1 11
-9 14 -9 4 -13 18 -11 41 3 48 -20 56 -29 10 -3 -19 -10 -32 -16 -29 -15 10
-10 -12 6 -29 23 -22 18 -29 -15 -22 -31 6 -38 -2 -19 -21 6 -6 8 -20 5 -31
-5 -15 -15 -20 -39 -20 -18 0 -38 5 -44 11 -10 7 -13 3 -13 -14 -1 -62 -69
-151 -126 -165 -28 -7 -58 12 -50 32 3 7 0 16 -6 20 -7 4 -6 9 2 14 8 5 7 9
-4 13 -20 8 -34 -32 -15 -44 7 -4 10 -11 6 -15 -4 -4 -13 0 -20 8 -11 14 -14
14 -32 -4 -17 -18 -17 -20 -3 -15 27 10 108 -49 108 -77 0 -13 -6 -28 -13 -34
-14 -12 -56 -13 -72 -1 -7 5 -10 -13 -11 -51 -1 -71 -39 -138 -97 -171 -34
-18 -42 -20 -63 -8 -13 7 -23 19 -22 27 2 8 -2 17 -8 19 -7 2 -10 -6 -6 -24
l5 -28 -19 23 -19 22 -12 -25 c-11 -24 -1 -36 13 -14 6 11 23 -5 24 -22 0 -8
-72 5 -91 16 -8 5 3 -7 24 -27 20 -19 37 -42 37 -49 0 -8 8 2 18 21 21 42 52
50 80 20 25 -27 16 -74 -14 -76 -10 -1 -27 -2 -38 -3 -15 -1 -17 -6 -13 -31 9
-43 -9 -125 -35 -161 -33 -44 -83 -72 -114 -65 -20 5 -25 12 -21 26 3 11 4 20
2 20 -2 0 -11 3 -21 7 -14 5 -16 2 -11 -16 5 -22 5 -22 -14 -5 -17 16 -19 16
-19 1 0 -10 -4 -17 -9 -17 -5 0 -11 -8 -14 -19 -3 -12 6 -27 29 -45 28 -22 34
-24 34 -10 0 19 27 43 49 44 22 0 51 -31 51 -55 0 -26 -22 -47 -41 -40 -29 10
-40 -9 -31 -51 17 -76 -26 -177 -90 -210 l-29 -15 24 -25 c20 -20 24 -30 18
-52 -5 -17 -15 -28 -27 -28 -10 -1 -27 -2 -38 -3 -16 -1 -17 -3 -5 -17 8 -10
13 -41 13 -85 -1 -57 -6 -76 -28 -109 -14 -22 -38 -47 -53 -57 -16 -9 -30 -18
-32 -20 -2 -1 8 -12 22 -24 31 -23 34 -50 11 -74 -12 -12 -19 -13 -30 -4 -11
9 -14 9 -14 0 0 -7 -4 -9 -10 -6 -13 8 -13 -8 -1 -21 14 -14 26 -108 13 -100
-6 3 -14 1 -18 -5 -4 -8 -3 -9 4 -5 8 5 12 -2 12 -21 0 -36 -42 -99 -83 -124
-24 -14 -27 -19 -13 -19 25 0 56 -28 56 -51 0 -26 -25 -47 -54 -44 -31 4 -30
6 -10 -34 18 -35 20 -100 5 -150 -13 -42 -55 -98 -81 -106 -26 -8 -25 -18 3
-30 28 -13 36 -65 12 -85 -13 -11 -18 -11 -25 -1 -5 9 -9 10 -14 2 -4 -6 -12
-9 -18 -5 -5 3 -2 -9 7 -27 19 -37 22 -119 6 -160 -13 -35 -69 -99 -87 -99 -8
0 -14 -4 -14 -10 0 -5 8 -10 19 -10 26 0 43 -24 39 -57 -2 -20 -9 -28 -23 -29
-11 -1 -27 -2 -36 -3 -15 -1 -15 -5 3 -38 41 -79 3 -223 -67 -255 l-25 -11 30
-18 c54 -33 34 -93 -28 -85 -34 4 -41 -4 -18 -23 8 -6 19 -31 24 -54 20 -77
-19 -179 -82 -218 -17 -10 -25 -19 -17 -19 23 0 51 -31 51 -55 0 -31 -28 -54
-41 -34 -6 10 -9 10 -9 2 0 -7 -7 -13 -15 -13 -13 0 -14 -4 -3 -22 6 -13 12
-53 12 -89 0 -55 -4 -72 -29 -112 -17 -26 -43 -53 -59 -61 l-28 -14 28 -13
c17 -9 30 -24 32 -37 4 -25 -14 -53 -32 -51 -39 5 -47 -1 -35 -23 49 -91 14
-215 -75 -269 -18 -11 -24 -19 -15 -19 26 0 59 -35 59 -62 0 -32 -37 -69 -49
-49 -6 9 -10 10 -15 2 -4 -6 -12 -9 -17 -6 -5 4 -9 5 -9 3 1 -2 7 -28 14 -58
22 -97 -19 -203 -98 -251 l-31 -19 26 0 c28 0 73 -30 89 -60 5 -10 7 -32 4
-48 -11 -57 -74 -99 -74 -50 l0 21 -19 -22 c-12 -14 -25 -19 -37 -14 -14 5
-16 3 -10 -13 5 -10 14 -49 22 -86 19 -99 -3 -210 -58 -290 -21 -32 -43 -56
-48 -53 -6 3 -8 0 -5 -7 3 -7 -11 -22 -33 -35 l-37 -22 32 -1 c63 0 95 -72 53
-118 -25 -26 -40 -28 -40 -5 0 14 -2 14 -20 -2 -11 -10 -20 -14 -20 -10 0 5
-2 6 -5 3 -3 -3 1 -18 10 -34 22 -42 20 -141 -4 -180 -22 -36 -81 -84 -103
-84 -23 0 -38 23 -33 51 3 18 0 26 -10 26 -15 0 -28 -24 -20 -37 3 -4 -2 -7
-11 -6 -13 1 -31 -18 -40 -42 -3 -8 -87 45 -92 58 -3 8 -14 26 -24 40 -21 28
-27 97 -15 147 7 28 6 32 -7 27 -11 -4 -16 0 -16 12 -1 18 -1 18 -14 1 -12
-15 -18 -17 -36 -7 -25 13 -42 53 -33 77 9 26 45 53 71 53 27 0 26 22 -1 26
-36 5 -88 48 -135 112 -42 57 -52 79 -66 149 -16 80 -14 117 11 197 5 19 6 19
24 -3 17 -20 39 -22 39 -2 0 14 -68 40 -89 34 -16 -4 -21 -1 -21 16 0 27 -17
27 -25 1 -9 -27 -31 -25 -59 5 -49 53 -40 110 23 152 21 14 28 23 17 23 -9 0
-16 6 -16 13 0 7 -9 13 -19 14 -46 4 -141 89 -126 113 3 6 1 18 -5 27 -9 15
-10 14 -4 -7 l6 -25 -20 21 c-53 55 -81 184 -61 283 6 34 14 61 17 61 3 0 14
-8 24 -17 14 -12 21 -14 30 -5 8 8 4 14 -18 24 -16 6 -30 13 -32 14 -2 1 2 12
8 24 11 20 10 21 -9 11 -27 -15 -31 -14 -31 9 0 26 -8 25 -31 -1 -18 -20 -20
-21 -43 -5 -14 9 -30 33 -37 55 -15 49 3 90 48 111 18 8 32 20 32 25 0 6 -23
21 -52 35 -49 24 -115 95 -151 160 -25 47 -40 179 -27 243 7 31 15 57 18 57 4
0 15 -8 25 -17 14 -13 21 -14 30 -5 9 9 4 14 -20 23 -35 12 -36 13 -23 38 8
14 6 17 -12 17 -12 -1 -22 5 -23 12 -1 6 -2 15 -3 19 0 4 -8 -3 -17 -15 -20
-29 -38 -28 -69 6 -23 23 -26 34 -22 72 6 50 43 90 85 90 19 0 21 2 10 13 -7
6 -34 22 -58 35 -61 31 -69 38 -118 109 -56 82 -79 191 -61 284 13 68 22 78
43 48 8 -12 19 -18 25 -14 19 11 12 23 -19 34 -32 11 -37 20 -18 39 9 9 7 12
-10 12 -13 0 -22 6 -22 15 0 8 -4 15 -9 15 -5 0 -14 -7 -21 -15 -18 -21 -33
-19 -61 11 -37 39 -33 98 9 135 18 16 42 29 53 29 24 0 21 22 -3 26 -36 5
-110 68 -150 127 -58 85 -81 191 -61 287 8 35 20 77 28 93 13 26 13 28 -6 22
-14 -5 -21 -1 -27 15 -8 21 -8 21 -26 1 -20 -22 -43 -18 -66 13 -49 67 -23
132 63 160 21 7 23 26 2 26 -33 0 -117 69 -160 132 -60 86 -83 190 -65 290 13
75 23 89 42 58 15 -23 38 -27 38 -6 0 8 -13 19 -30 25 -33 11 -37 22 -15 41 8
7 15 17 15 23 0 8 -3 8 -11 0 -16 -16 -39 -4 -39 21 -1 20 -2 20 -25 -6 l-24
-28 -29 25 c-56 47 -44 130 22 162 20 9 36 19 35 22 0 3 -27 19 -59 34 -50 24
-68 40 -115 105 -34 47 -58 92 -62 115 -7 45 -23 59 -23 20 0 -60 -86 -142
-133 -127 -14 4 -18 13 -15 35 3 17 -1 30 -9 33 -7 3 -13 1 -13 -4 0 -5 -11
-20 -25 -34 -33 -33 -33 -50 1 -42 15 4 23 3 20 -3 -3 -5 6 -16 20 -26 14 -9
26 -15 27 -13 28 56 49 68 76 44 37 -33 21 -74 -26 -70 -27 2 -28 0 -6 -32 27
-41 21 -136 -11 -185 -15 -22 -39 -45 -53 -52 l-27 -12 28 -5 c55 -10 61 -73
7 -76 -31 -2 -33 -7 -16 -42 15 -30 18 -102 4 -102 -4 0 -5 -9 -2 -20 6 -24
-32 -84 -64 -101 l-23 -12 23 -11 c16 -9 22 -20 22 -46 0 -33 -2 -35 -32 -34
-38 2 -38 1 -17 -32 34 -52 -6 -203 -58 -220 -21 -6 -24 -24 -4 -24 7 0 19 -6
25 -14 14 -17 -3 -68 -21 -65 -7 1 -22 1 -32 0 -19 -1 -19 -1 0 -22 15 -17 19
-35 18 -85 -2 -79 -24 -118 -91 -161 -17 -11 -17 -12 3 -12 30 -1 47 -26 40
-57 -5 -19 -12 -25 -25 -21 -10 2 -25 1 -32 -3 -10 -7 -10 -12 2 -26 24 -29
16 -137 -12 -179 -49 -73 -136 -94 -125 -30 3 14 0 28 -6 31 -13 8 -29 -16
-23 -34 3 -7 0 -10 -6 -7 -11 7 -39 -12 -39 -26 0 -5 7 -9 15 -9 8 0 15 -4 15
-8 0 -4 14 -16 30 -25 25 -15 28 -21 20 -38 -7 -13 -7 -19 0 -19 5 0 10 6 11
13 3 44 7 60 20 68 36 22 73 -2 67 -43 -2 -19 -9 -23 -38 -22 l-36 0 19 -37
c15 -31 17 -49 11 -96 -6 -50 -12 -64 -48 -99 -38 -39 -40 -42 -21 -50 15 -7
20 -19 20 -44 0 -34 -1 -35 -37 -34 -29 0 -35 -3 -27 -13 15 -17 29 -82 22
-100 -3 -8 -12 -12 -21 -8 -14 5 -14 4 0 -12 26 -28 -3 -83 -67 -128 -20 -14
-20 -14 1 -15 29 0 50 -41 35 -69 -12 -22 -31 -28 -31 -10 0 8 -4 9 -13 0 -8
-6 -16 -8 -20 -5 -3 3 1 -13 9 -36 10 -28 12 -59 8 -93 -6 -44 -14 -59 -51
-96 -24 -24 -42 -44 -41 -45 47 -18 59 -53 28 -81 -11 -10 -20 -13 -20 -7 0 5
-9 8 -20 5 -27 -7 -44 35 -24 58 19 21 18 26 -6 32 -17 4 -20 11 -15 36 4 23
2 31 -10 31 -14 0 -20 -12 -16 -34 1 -5 -4 -6 -12 -3 -7 3 -19 -4 -26 -14 -13
-22 -4 -36 37 -58 17 -9 21 -17 16 -36 -4 -16 -2 -25 6 -25 7 0 10 7 6 18 -3
9 5 4 19 -13 14 -16 25 -38 25 -47 0 -9 3 -23 6 -31 3 -8 -1 -21 -9 -28 -7 -7
-12 -23 -9 -36 5 -27 -32 -90 -58 -98 -26 -8 -25 -18 3 -30 28 -13 35 -66 11
-86 -13 -10 -18 -11 -21 -2 -2 7 -11 9 -19 6 -8 -3 -22 1 -31 8 -15 13 -15 12
0 -12 10 -14 18 -43 20 -65 2 -34 -1 -39 -18 -36 -18 2 -18 2 -2 -8 9 -6 17
-19 17 -28 0 -28 -38 -81 -72 -102 -25 -15 -28 -20 -14 -20 29 0 56 -29 56
-60 0 -31 -30 -64 -38 -42 -3 10 -7 10 -19 0 -13 -10 -19 -8 -34 11 -19 23
-18 62 2 69 16 6 9 20 -12 25 -17 5 -21 12 -17 36 6 38 0 39 -35 2 -32 -35
-33 -41 -7 -41 11 0 20 -4 20 -9 0 -5 -10 -7 -22 -4 -22 4 -21 3 4 -19 20 -17
26 -29 22 -46 -4 -13 -2 -22 5 -22 6 0 8 8 4 18 -5 14 -2 13 16 -4 36 -34 50
-134 19 -134 -7 0 -6 -5 1 -14 16 -20 -6 -63 -55 -105 -36 -32 -36 -33 -15
-47 23 -17 29 -68 9 -81 -7 -4 -26 -8 -41 -9 -37 -2 -38 -5 -27 -43 21 -75 -9
-155 -81 -213 -32 -26 -39 -28 -62 -17 -20 9 -25 17 -22 40 2 17 -2 30 -10 33
-16 6 -30 -28 -19 -46 6 -10 5 -10 -7 -1 -12 10 -18 9 -31 -7 -9 -10 -14 -21
-11 -24 4 -3 -1 -6 -9 -6 -11 0 -6 -11 16 -35 30 -34 31 -34 39 -12 19 57 89
50 95 -10 2 -24 -2 -34 -17 -43 -12 -6 -21 -7 -21 -2 0 5 -10 7 -23 5 -20 -4
-22 -10 -23 -73 -2 -82 -26 -128 -87 -167 -34 -22 -43 -23 -63 -12 -18 9 -23
18 -19 40 3 18 0 29 -10 33 -14 5 -19 -6 -18 -42 1 -9 -3 -10 -11 -2 -9 7 -16
3 -26 -16 -9 -16 -20 -24 -31 -21 -11 3 -21 -4 -28 -19 -8 -19 -8 -24 4 -24 9
0 12 6 9 15 -10 26 3 16 25 -18 11 -17 21 -26 21 -19 0 7 8 23 17 36 l17 23
33 -20 c25 -14 33 -26 33 -47 0 -33 -27 -61 -40 -41 -5 9 -10 10 -14 2 -5 -8
-13 -8 -27 -1 -16 9 -19 7 -19 -14 0 -14 -4 -27 -9 -30 -4 -3 -6 -17 -3 -31 9
-49 -82 -135 -128 -120 -15 5 -19 14 -17 37 3 38 -20 49 -29 14 -3 -14 -10
-23 -15 -21 -4 3 -16 -6 -25 -20 l-17 -25 -32 19 -33 19 21 -42 c16 -30 24
-39 30 -29 17 29 44 33 71 12 31 -24 33 -49 7 -73 -14 -13 -21 -14 -26 -6 -6
9 -10 9 -16 -1 -6 -11 -11 -11 -21 -1 -16 16 -28 15 -28 -3 0 -8 -6 -15 -12
-16 -9 0 -9 -2 -2 -5 27 -11 -12 -84 -64 -119 -29 -20 -38 -22 -59 -12 -20 9
-24 17 -21 39 5 33 -17 39 -27 8 -4 -11 -10 -18 -15 -15 -8 5 -25 -23 -22 -37
1 -5 -2 -8 -7 -8 -5 0 -4 -14 2 -30 16 -43 0 -65 -48 -65 -44 0 -61 19 -51 59
5 19 15 28 36 33 31 6 42 23 15 23 -9 0 -28 12 -42 28 l-26 27 6 -32 c3 -17 3
-55 0 -84 -5 -46 -13 -59 -54 -101 -41 -41 -51 -46 -71 -39 -16 6 -22 16 -21
30 2 16 -1 20 -10 15 -9 -6 -9 -4 1 8 10 13 10 17 -3 22 -10 3 -18 -1 -22 -12
-4 -9 -15 -23 -25 -30 -10 -7 -18 -20 -18 -28 0 -15 -25 -19 -34 -5 -3 5 -14
11 -24 13 -15 4 -17 0 -14 -24 3 -18 -2 -36 -13 -48 -22 -24 -35 -25 -35 -3 0
15 -2 14 -14 -2 -14 -19 -15 -19 -35 -1 -12 11 -21 30 -21 43 0 24 -1 24 -42
-11 -63 -55 -110 -45 -102 20 3 25 -1 33 -16 37 -19 5 -27 -13 -21 -47 1 -5
-5 -6 -14 -3 -9 4 -15 1 -15 -8 0 -8 -4 -15 -10 -15 -5 0 -10 -7 -10 -15 0 -8
-4 -15 -10 -15 -19 0 -86 42 -107 68 l-23 27 0 -37 c0 -27 -6 -41 -22 -52 -29
-20 -38 -20 -38 1 0 15 -2 15 -19 -1 -19 -17 -21 -17 -45 8 -28 27 -32 46 -16
77 14 25 5 24 -32 -2 -29 -21 -30 -21 -69 -4 -44 20 -43 19 -29 46 8 14 7 19
-1 19 -8 0 -8 4 1 15 15 18 13 20 -18 30 -22 6 -24 4 -22 -32 3 -56 2 -58 -20
-38 -18 16 -20 16 -20 2 0 -10 -4 -17 -10 -17 -5 0 -12 -11 -16 -25 -3 -14
-11 -25 -18 -25 -9 1 -89 45 -122 67 -27 20 -75 107 -84 154 -11 55 -20 76
-20 44 0 -25 -39 -65 -62 -65 -12 0 -18 7 -18 21 0 21 -1 20 -21 -5 -17 -22
-24 -24 -41 -15 -31 17 -51 74 -38 113 11 33 54 66 87 66 24 0 68 -24 67 -36
-1 -5 7 -17 17 -26 17 -16 18 -14 29 36 6 29 17 62 25 72 25 33 16 34 -30 3
-25 -17 -52 -28 -60 -25 -8 3 -15 1 -15 -4 0 -5 -11 1 -25 14 -26 24 -33 46
-15 46 6 0 10 7 10 16 0 8 -5 12 -10 9 -6 -3 -10 -2 -10 4 0 5 5 13 11 17 7 4
2 11 -13 18 -28 15 -38 4 -38 -42 0 -30 -2 -32 -22 -21 -18 10 -20 9 -14 -7 4
-10 4 -15 0 -11 -11 10 -34 -13 -34 -34 0 -25 -11 -24 -71 9 -114 61 -181 204
-149 322 11 40 12 41 30 25 13 -11 20 -13 25 -5 8 13 8 13 -23 26 l-22 9 34
51 c90 134 279 172 413 83 61 -41 118 -123 127 -184 7 -41 26 -64 26 -31 0 22
54 56 87 56 32 -1 52 -14 76 -50 21 -32 12 -95 -15 -114 -19 -13 -19 -14 -1
-20 10 -2 36 -8 58 -12 59 -10 139 -68 177 -127 23 -36 34 -46 36 -34 2 9 17
24 34 33 29 15 32 15 57 -4 29 -21 39 -65 20 -88 -15 -19 -4 -18 27 3 17 10
46 16 85 16 48 0 67 -5 110 -32 28 -17 52 -30 53 -29 10 25 27 44 40 46 23 5
46 -16 46 -41 0 -20 1 -20 21 2 47 50 143 74 203 51 24 -9 25 -8 14 9 -22 36
30 69 60 39 9 -9 12 -8 12 6 0 13 5 16 23 11 21 -6 21 -5 4 9 -17 13 -17 16
-2 39 24 38 94 79 141 85 38 4 41 6 31 22 -8 14 -8 22 2 34 20 24 50 20 57 -8
7 -30 -2 -47 -21 -39 -32 12 -13 -8 23 -24 20 -9 41 -19 46 -21 5 -3 -2 9 -14
25 -29 40 -32 132 -6 186 21 42 92 97 127 97 21 0 21 1 6 18 -20 22 -22 43 -5
60 16 16 55 15 61 0 3 -7 4 14 3 47 -2 90 32 149 107 189 57 31 74 49 37 39
-14 -4 -22 1 -29 18 -17 45 23 84 62 60 19 -12 19 -11 13 41 -12 92 25 165
106 211 43 24 48 34 16 33 -19 -1 -24 5 -26 31 -3 27 1 35 22 44 20 9 29 9 41
-1 15 -12 15 -10 8 16 -4 16 -8 54 -8 85 0 69 30 118 93 151 44 24 56 40 22
31 -26 -7 -36 20 -21 54 8 18 17 24 31 20 17 -4 18 -1 12 27 -22 97 3 174 68
213 37 21 45 40 16 39 -15 -1 -22 6 -24 22 -4 28 14 52 40 52 16 0 17 3 7 21
-17 32 -14 111 6 153 10 21 35 49 57 63 21 14 38 30 38 35 0 5 -4 7 -9 4 -17
-11 -41 6 -41 29 0 29 24 49 50 42 22 -6 26 3 8 21 -6 6 -12 40 -12 74 -1 73
23 121 73 151 17 10 29 23 25 28 -3 5 -10 7 -15 3 -15 -9 -39 16 -39 41 0 30
43 53 65 35 19 -16 19 -11 -1 29 -18 35 -20 103 -6 142 11 28 68 89 83 89 5 0
9 5 9 11 0 6 -6 9 -14 6 -36 -14 -48 56 -13 77 26 17 52 -5 52 -43 0 -34 -1
-34 44 -25 24 5 31 12 30 28 -1 17 -2 17 -6 4 -7 -27 -18 -22 -56 23 -70 82
-52 220 34 265 16 8 27 19 24 25 -4 5 -11 7 -16 3 -15 -9 -39 16 -39 42 0 26
30 47 53 38 13 -5 13 -1 2 33 -30 82 -4 174 61 213 19 12 32 26 28 31 -3 5
-10 7 -15 3 -14 -8 -39 15 -39 37 0 23 37 49 59 41 13 -5 14 -3 4 9 -7 9 -15
40 -19 71 -5 47 -3 63 17 103 13 25 36 54 51 63 32 19 38 43 9 35 -12 -3 -23
2 -30 15 -15 28 13 65 45 59 23 -4 23 -3 7 26 -36 70 -10 180 53 220 34 22 44
39 22 36 -42 -5 -56 22 -32 58 12 19 21 23 40 19 25 -7 25 -6 8 19 -39 60 -11
191 48 224 33 19 35 29 7 33 -12 2 -27 11 -33 20 -14 23 18 58 52 58 24 0 24
1 8 19 -10 11 -20 38 -23 60 -9 68 4 109 52 156 41 41 49 60 21 49 -7 -3 -19
2 -26 11 -20 24 2 65 36 65 22 0 24 2 14 15 -33 40 -34 159 -2 148 14 -4 15
-3 2 5 -12 9 -12 14 0 37 8 14 26 33 41 42 31 19 29 40 -4 39 -17 -1 -23 5
-25 26 -4 35 37 60 63 38 12 -10 15 -10 15 0 0 7 -7 18 -16 24 -21 16 -35 84
-25 129 12 49 36 85 72 105 19 12 29 25 29 41 0 24 -1 24 -14 6 -14 -19 -15
-19 -35 -1 -13 12 -21 31 -21 51 0 45 33 66 94 60 37 -4 44 -2 39 10 -4 13 -8
13 -20 3 -35 -29 -78 88 -78 214 l0 67 -27 -33 c-36 -43 -79 -62 -108 -46 -17
9 -19 14 -9 26 9 11 9 14 -1 14 -10 0 -10 3 0 15 10 13 9 15 -9 15 -12 0 -21
-6 -21 -15 0 -9 -7 -18 -15 -21 -8 -3 -17 -14 -20 -25 -8 -24 -32 -24 -73 1
-39 24 -42 24 -42 6 0 -7 -7 -19 -15 -26 -9 -7 -15 -8 -15 -2 0 5 -9 8 -20 5
-14 -4 -22 1 -28 17 -8 23 -9 23 -23 4 -24 -34 -69 -56 -96 -49 -19 4 -24 11
-20 25 3 11 1 20 -5 20 -5 0 -6 5 -3 10 3 6 1 10 -5 10 -7 0 -14 -9 -17 -20
-3 -11 -9 -17 -14 -14 -5 3 -13 -6 -19 -20 -5 -14 -14 -26 -20 -26 -15 0 -90
49 -90 59 0 4 -9 18 -20 31 -19 22 -21 23 -34 5 -13 -18 -11 -55 3 -55 4 0 12
5 19 12 9 9 16 7 32 -7 23 -20 26 -50 8 -62 -18 -11 -58 -15 -58 -6 0 4 -4 14
-9 21 -6 10 -18 2 -48 -28 -57 -57 -112 -53 -107 8 2 27 -16 29 -23 3 -3 -11
-10 -18 -17 -15 -7 3 -18 -7 -26 -21 -14 -27 -25 -31 -35 -15 -11 18 -25 10
-25 -14 0 -13 -6 -28 -13 -33 -19 -15 -58 -13 -64 3 -8 21 -18 17 -34 -13 -15
-28 -84 -83 -104 -83 -6 0 -20 7 -31 15 -16 13 -17 16 -4 25 10 6 11 10 3 10
-7 0 -10 7 -6 16 5 14 3 15 -16 4 -14 -7 -20 -17 -17 -26 3 -9 2 -12 -5 -9 -5
4 -19 -3 -29 -15 -13 -15 -25 -20 -39 -15 -16 5 -18 2 -14 -15 10 -40 -35 -61
-70 -32 -12 10 -17 7 -26 -17 -15 -34 -68 -86 -98 -95 -29 -9 -68 11 -54 28 6
7 6 17 1 26 -7 11 -11 12 -25 0 -13 -11 -13 -15 -3 -22 8 -6 4 -7 -11 -3 -19
6 -23 4 -18 -9 4 -9 1 -15 -6 -13 -8 1 -11 -11 -10 -37 2 -22 -2 -45 -7 -51
-11 -14 -60 -17 -60 -5 0 4 -11 10 -25 12 -29 6 -31 1 -11 -28 13 -17 12 -24
-1 -52 -42 -88 -157 -123 -148 -47 1 14 -1 25 -5 25 -13 0 -30 -27 -22 -35 4
-4 0 -6 -8 -3 -15 5 -40 -13 -40 -29 0 -4 9 -14 20 -21 22 -14 27 -56 8 -69
-17 -10 -40 -10 -54 0 -7 4 -14 -1 -17 -14 -4 -15 -11 -20 -22 -15 -11 4 -15
2 -12 -6 2 -7 9 -12 15 -11 20 4 6 -55 -22 -91 -37 -49 -81 -71 -113 -57 -18
8 -22 17 -19 36 3 14 1 25 -3 25 -14 0 -31 -26 -24 -34 4 -4 0 -4 -10 0 -9 3
-17 2 -17 -2 0 -5 -7 -18 -15 -28 -12 -16 -17 -17 -30 -6 -26 22 -25 6 2 -28
l25 -33 17 23 c9 13 15 26 14 29 -1 4 8 6 21 5 13 0 22 -4 20 -7 -2 -4 3 -12
11 -19 18 -15 20 -54 3 -67 -16 -13 -49 -13 -65 -1 -9 7 -11 1 -6 -28 6 -34 5
-37 -15 -32 -24 7 -25 6 -16 -17 5 -13 8 -14 15 -3 15 24 10 -31 -6 -61 -16
-32 -65 -77 -95 -86 -10 -3 -29 -1 -40 5 -17 9 -19 14 -9 26 9 11 9 14 0 14
-7 0 -9 5 -6 10 3 6 1 10 -5 10 -7 0 -14 -9 -17 -19 -3 -11 -11 -17 -18 -14
-8 3 -20 -8 -29 -26 -16 -29 -15 -30 14 -48 20 -11 28 -23 24 -33 -10 -26 -9
-32 5 -37 10 -4 11 1 6 18 -6 22 -4 21 19 -6 25 -30 46 -99 38 -123 -3 -8 -12
-10 -25 -6 -20 6 -21 6 -4 -19 23 -36 22 -48 -14 -97 -20 -27 -26 -41 -15 -37
9 4 26 -3 41 -16 24 -20 25 -25 14 -55 -8 -25 -16 -32 -32 -30 -26 4 -34 -18
-10 -26 10 -3 36 -32 57 -63 32 -48 40 -68 44 -122 5 -62 4 -65 -12 -48 -20
19 -32 22 -41 7 -3 -6 1 -7 10 -4 11 5 14 2 9 -10 -4 -11 -1 -16 10 -16 11 0
16 -9 16 -30 0 -27 2 -30 19 -20 30 15 48 12 71 -12 26 -28 26 -62 -1 -89 -15
-15 -24 -18 -34 -9 -9 7 -15 8 -20 1 -3 -6 7 -13 22 -17 84 -19 111 -29 164
-62 77 -48 146 -146 165 -235 18 -86 18 -86 -21 -103 -38 -15 -38 -15 -29 -37
3 -9 13 -13 25 -10 12 3 18 11 15 19 -3 7 -1 16 4 19 13 8 12 2 -1 -69 -13
-72 -73 -164 -134 -206 -24 -17 -47 -30 -51 -30 -4 0 -16 -8 -26 -17 -12 -10
-22 -13 -26 -8 -4 6 -24 18 -44 27 -42 19 -46 29 -23 52 8 8 15 23 15 33 0 15
-2 16 -10 3 -5 -8 -13 -11 -17 -6 -4 4 1 14 11 22 17 12 17 14 3 14 -35 0 -65
-23 -71 -54 -6 -28 -8 -29 -20 -13 -18 23 -30 22 -23 -3 3 -13 0 -20 -9 -20
-8 0 -20 -13 -25 -30 -12 -32 -37 -39 -61 -18 -7 7 -20 14 -28 16 -40 9 -99
60 -141 122 -37 56 -48 83 -59 144 -14 81 -4 170 26 230 18 36 18 35 -6 29
-12 -3 -20 0 -20 7 0 10 -3 10 -14 1 -33 -28 -83 39 -65 86 5 13 22 31 39 42
l32 19 -41 23 c-88 49 -144 179 -122 286 10 54 60 140 87 150 25 9 17 34 -10
27 -26 -6 -56 25 -56 58 0 24 39 58 67 58 28 0 28 1 -1 44 -67 100 -27 249 83
301 46 22 52 32 19 31 -15 -1 -25 7 -32 26 -13 37 16 72 54 64 l26 -5 -9 54
c-17 94 24 178 107 213 22 10 52 24 66 30 21 10 22 11 3 6 -18 -4 -26 1 -35
20 -9 22 -8 29 7 46 19 21 50 26 60 10 13 -21 21 -9 17 25 -2 19 -1 47 2 61 6
21 9 24 21 14 8 -7 15 -9 15 -5 0 4 -7 13 -15 19 -36 26 90 126 159 126 29 0
30 3 16 30 -5 10 -7 25 -4 33 8 21 47 37 66 26 18 -10 20 -5 33 57 14 70 114
144 194 144 37 0 42 2 31 14 -34 42 28 99 69 62 18 -17 19 -16 26 13 23 104
160 179 259 141 25 -9 26 -8 20 15 -12 49 50 77 78 36 13 -19 14 -18 26 7 19
41 33 56 82 87 52 33 126 38 178 11 l32 -16 -6 28 c-10 52 59 73 81 25 5 -13
16 -25 24 -28 11 -4 11 -3 2 9 -17 20 7 55 62 92 56 37 136 44 190 16 l37 -20
0 22 c0 28 18 46 47 46 19 0 47 -29 40 -42 -1 -2 7 6 18 17 77 82 187 100 267
44 25 -19 28 -19 28 -3 0 22 28 54 48 54 19 0 52 -29 52 -46 0 -7 21 1 51 22
28 19 63 35 78 35 60 4 98 -4 134 -27 32 -21 36 -27 27 -44 -7 -12 -7 -20 -1
-20 5 0 11 8 13 18 4 22 48 -46 48 -76 0 -36 18 -34 43 5 19 29 21 39 11 41
-8 2 -14 8 -14 13 0 5 -9 4 -20 -3 -16 -11 -22 -9 -34 7 -34 45 -6 105 49 105
28 0 69 -44 62 -64 -9 -22 -2 -20 47 14 24 16 46 26 50 23 3 -4 6 0 6 7 0 7 3
11 6 8 3 -4 14 2 23 11 10 10 50 23 96 31 69 12 88 11 157 -3 159 -34 284
-157 318 -316 16 -73 16 -81 -2 -171 -11 -52 -26 -103 -35 -112 -20 -22 -14
-23 23 -3 36 19 56 19 100 0 26 -11 34 -19 30 -30 -3 -9 -2 -14 3 -11 5 3 13
0 18 -7 31 -39 18 -113 -28 -151 -33 -28 -64 -25 -56 5 3 11 2 19 -1 19 -8 0
-52 -42 -52 -51 0 -4 26 -24 58 -44 83 -54 146 -152 167 -259 8 -43 13 -82 10
-86 -2 -4 -10 -40 -16 -81 -6 -41 -20 -86 -30 -101 -26 -36 -24 -39 11 -21 43
21 121 -1 103 -30 -3 -6 -1 -7 5 -3 8 4 16 -3 22 -19 16 -41 -4 -101 -39 -120
-31 -16 -41 -12 -41 18 0 18 -1 17 -19 -4 l-19 -23 75 -49 c61 -40 84 -63 122
-122 64 -98 79 -176 56 -296 -8 -45 -23 -94 -31 -108 -16 -23 -15 -24 2 -16
39 16 62 16 93 0 17 -8 29 -20 26 -24 -3 -5 2 -11 10 -15 23 -8 19 -78 -6
-110 -22 -28 -59 -35 -59 -11 0 8 -3 15 -6 15 -7 0 -34 -27 -34 -34 0 -3 29
-24 65 -46 91 -58 153 -147 176 -252 9 -42 15 -79 12 -82 -2 -2 -7 -28 -10
-58 -2 -29 -13 -72 -23 -96 -19 -41 -19 -42 0 -32 60 32 140 -20 140 -92 0
-28 -7 -46 -25 -63 -29 -30 -55 -32 -55 -5 0 25 -12 26 -28 0 -11 -18 -5 -24
61 -69 94 -63 149 -143 171 -248 14 -63 14 -80 0 -154 -9 -45 -23 -94 -32
-108 l-17 -25 25 17 c40 28 77 22 116 -18 19 -20 34 -41 34 -48 0 -32 -23 -88
-40 -97 -28 -15 -53 -13 -47 5 10 25 -7 24 -26 -1 -10 -13 -13 -24 -7 -24 5 0
41 -20 78 -45 139 -93 203 -236 175 -394 -7 -42 -18 -84 -23 -93 -15 -26 -12
-30 9 -18 93 49 191 -81 116 -155 -29 -30 -55 -32 -55 -5 0 25 -9 25 -26 3
-17 -23 -17 -33 -1 -33 32 0 146 -92 189 -152 53 -74 85 -190 68 -249 -5 -18
-8 -35 -5 -37 3 -3 -1 -12 -7 -21 -10 -13 -10 -14 2 -4 9 9 17 9 26 2 8 -7 14
-7 19 1 3 5 -1 10 -9 10 -8 0 -17 4 -20 9 -11 17 53 89 103 118 28 15 51 32
51 37 0 5 -6 3 -13 -3 -20 -16 -51 20 -42 48 8 25 41 45 62 37 10 -4 13 -2 10
8 -14 36 -18 106 -7 144 12 46 60 107 91 117 10 4 19 13 19 20 0 9 -6 12 -15
9 -19 -8 -45 13 -45 36 0 27 36 53 65 48 14 -3 25 -1 25 3 0 5 -4 9 -9 9 -19
0 -43 98 -34 143 5 22 10 26 27 22 20 -6 20 -6 2 9 -18 15 -18 16 9 52 15 19
40 43 55 53 19 11 26 21 21 30 -6 9 -11 10 -15 2 -13 -20 -46 7 -46 38 0 36
41 61 70 43 26 -16 30 -15 30 4 0 8 -4 13 -9 10 -17 -11 -32 23 -37 85 -4 54
-1 71 19 109 13 25 39 56 59 69 25 16 35 28 30 39 -4 10 -7 12 -10 4 -6 -20
-32 -13 -44 13 -9 19 -8 29 6 50 17 26 36 31 65 16 13 -7 18 -6 18 5 0 7 -6
14 -13 14 -14 0 -35 56 -36 97 -2 75 30 138 90 175 34 21 29 41 -7 31 -19 -5
-40 31 -34 58 6 25 47 43 70 31 15 -9 20 -8 20 4 0 7 -6 14 -13 14 -15 0 -20
14 -29 74 -9 60 0 100 22 92 13 -5 14 -4 3 9 -10 12 -9 20 6 42 21 33 54 62
72 63 6 0 12 7 12 16 0 11 -5 14 -16 10 -44 -17 -62 61 -20 83 14 8 33 10 47
6 24 -8 24 -8 5 14 -15 16 -20 37 -20 89 -1 79 23 136 72 167 34 22 37 42 5
37 -30 -4 -46 39 -26 68 12 17 23 21 49 18 40 -5 40 -4 15 21 -21 21 -35 96
-25 137 12 51 47 103 86 129 37 24 53 50 24 39 -15 -6 -46 21 -46 39 0 28 32
59 56 54 21 -4 22 -2 12 17 -6 12 -12 48 -12 81 -1 75 28 130 90 174 24 17 44
36 44 42 0 9 -4 8 -14 0 -17 -14 -46 10 -46 38 0 26 36 54 60 48 17 -4 20 -2
15 11 -14 36 -17 109 -6 150 13 47 62 102 110 123 30 13 45 34 18 23 -7 -2
-22 5 -32 16 -18 20 -18 24 -4 48 11 20 23 27 45 27 l30 0 -9 48 c-11 52 1
109 30 154 21 32 96 83 122 83 13 0 21 6 21 16 0 14 -3 14 -15 4 -19 -16 -45
3 -45 33 0 43 51 72 79 45 10 -11 11 -4 6 34 -9 61 2 113 20 98 9 -7 15 -8 20
-1 3 6 23 18 43 28 27 13 32 19 19 21 -12 3 -16 9 -12 23 5 15 3 17 -10 13
-12 -5 -15 -14 -10 -33 4 -14 3 -23 -1 -19 -4 4 -13 0 -20 -10 -10 -13 -15
-14 -24 -5 -9 8 -8 18 5 40 18 30 94 83 120 83 8 0 15 5 15 10 0 6 -4 10 -8
10 -5 0 -15 11 -22 25 -11 20 -10 28 4 50 18 27 63 34 83 14 8 -8 11 1 11 35
0 102 83 194 183 204 46 4 47 5 34 26 -14 21 -10 70 5 61 4 -3 10 2 14 10 7
19 40 19 60 0 21 -21 23 -20 30 26 9 55 46 106 103 143 43 27 57 31 123 31 57
0 82 -5 103 -19 l27 -18 -15 28 c-20 39 -19 48 11 83 49 59 138 26 136 -51 0
-29 1 -31 11 -14 18 29 69 75 92 82 11 4 23 12 27 18 6 9 48 21 118 35 3 0 31
-5 62 -13z m-52 -556 c0 -5 -4 -10 -10 -10 -5 0 -10 5 -10 10 0 6 5 10 10 10
6 0 10 -4 10 -10z m-5555 -138 c-3 -3 -11 0 -18 7 -9 10 -8 11 6 5 10 -3 15
-9 12 -12z m6115 -33 c0 -5 -12 -8 -27 -8 -18 1 -21 3 -10 6 9 2 15 9 12 14
-3 5 1 6 9 3 9 -3 16 -10 16 -15z m-6500 -49 c0 -5 -2 -10 -4 -10 -3 0 -8 5
-11 10 -3 6 -1 10 4 10 6 0 11 -4 11 -10z m-373 -136 c-3 -3 -12 -4 -19 -1 -8
3 -5 6 6 6 11 1 17 -2 13 -5z m5013 -634 c0 -5 -2 -10 -4 -10 -3 0 -8 5 -11
10 -3 6 -1 10 4 10 6 0 11 -4 11 -10z m-6136 -403 c12 -9 17 -23 14 -42 -3
-26 -7 -30 -38 -32 -37 -2 -50 9 -50 44 0 36 42 53 74 30z m40 -1662 c3 -9 0
-15 -9 -15 -16 0 -27 14 -18 24 10 10 21 7 27 -9z m1286 -2405 c0 -5 -5 -10
-11 -10 -5 0 -7 5 -4 10 3 6 8 10 11 10 2 0 4 -4 4 -10z m-415 -678 c-3 -3
-11 0 -18 7 -9 10 -8 11 6 5 10 -3 15 -9 12 -12z m3812 -8 c-3 -3 -12 -4 -19
-1 -8 3 -5 6 6 6 11 1 17 -2 13 -5z m68 -18 c18 -8 38 -23 44 -34 18 -33 13
-86 -9 -110 -24 -25 -63 -30 -54 -7 4 8 2 15 -4 15 -5 0 -12 -7 -16 -15 -9
-23 -42 -18 -65 11 -37 47 -23 111 31 137 40 20 32 20 73 3z m-5845 -56 c0 -5
-4 -10 -10 -10 -5 0 -10 5 -10 10 0 6 5 10 10 10 6 0 10 -4 10 -10z m1370
-382 c0 -4 -4 -8 -9 -8 -6 0 -12 4 -15 8 -3 5 1 9 9 9 8 0 15 -4 15 -9z m-920
-8 c0 -5 -2 -10 -4 -10 -3 0 -8 5 -11 10 -3 6 -1 10 4 10 6 0 11 -4 11 -10z
m505 -60 c3 -5 1 -10 -4 -10 -6 0 -11 5 -11 10 0 6 2 10 4 10 3 0 8 -4 11 -10z"/>
<path d="M9374 8685 c-11 -22 -10 -24 7 -15 10 6 16 17 13 25 -8 19 -7 19 -20
-10z"/>
<path d="M9461 8664 c0 -11 3 -14 6 -6 3 7 2 16 -1 19 -3 4 -6 -2 -5 -13z"/>
<path d="M8906 8644 c-3 -8 -1 -26 4 -40 9 -23 8 -25 -10 -19 -15 5 -20 2 -20
-13 0 -16 5 -19 23 -15 12 3 27 12 34 20 6 8 16 12 22 8 6 -3 11 1 11 9 0 9
-8 16 -19 16 -14 0 -18 5 -14 19 6 22 -23 36 -31 15z"/>
<path d="M9284 8626 c-4 -11 -2 -21 7 -27 18 -11 24 5 10 28 -9 17 -10 17 -17
-1z"/>
<path d="M9400 8608 c0 -4 4 -8 9 -8 6 0 12 4 15 8 3 5 -1 9 -9 9 -8 0 -15 -4
-15 -9z"/>
<path d="M8990 8586 c0 -8 5 -18 12 -22 7 -5 8 -3 3 6 -4 7 -2 16 6 21 11 7
10 9 -3 9 -10 0 -18 -6 -18 -14z"/>
<path d="M9111 8581 c-13 -23 7 -35 30 -19 11 8 10 9 -3 4 -21 -6 -23 5 -6 22
9 9 9 12 0 12 -6 0 -16 -9 -21 -19z"/>
<path d="M8756 8567 c-17 -12 -16 -16 12 -61 32 -50 33 -50 47 22 6 31 8 32
24 18 19 -18 31 -20 31 -8 0 14 -48 32 -66 25 -9 -3 -19 -1 -23 6 -5 8 -12 8
-25 -2z"/>
<path d="M9442 8550 c-15 -24 -35 -26 -57 -3 -16 16 -17 14 -9 -28 4 -24 7
-60 6 -79 l-1 -35 17 25 c9 14 34 42 56 63 22 20 34 37 28 37 -7 0 -12 9 -12
20 0 11 -3 20 -8 20 -4 0 -13 -9 -20 -20z"/>
<path d="M9100 8530 c0 -11 5 -22 11 -26 8 -4 9 0 4 15 -5 16 -3 20 9 15 9 -3
13 -11 9 -18 -3 -6 -2 -7 2 -3 18 15 12 32 -11 33 -17 1 -24 -3 -24 -16z"/>
<path d="M9510 8540 c-9 -6 -10 -10 -3 -10 6 0 15 5 18 10 8 12 4 12 -15 0z"/>
<path d="M8425 8530 c-3 -5 -1 -19 6 -31 10 -19 9 -21 -5 -16 -10 4 -16 1 -16
-7 0 -9 7 -12 20 -9 11 3 20 10 20 15 0 6 7 8 15 4 8 -3 15 -1 15 4 0 6 -10
10 -22 10 -17 0 -19 3 -10 12 7 7 12 16 12 20 0 11 -28 10 -35 -2z"/>
<path d="M8727 8516 c-3 -8 -2 -18 4 -22 16 -9 22 2 11 21 -8 15 -10 16 -15 1z"/>
<path d="M9464 8478 c-3 -5 -3 -26 0 -46 3 -20 3 -31 0 -24 -8 18 -21 15 -27
-8 -4 -17 -1 -19 21 -14 15 4 32 12 37 19 6 6 16 10 24 7 8 -3 12 1 9 9 -2 7
-15 16 -29 20 -13 4 -18 7 -11 8 18 1 15 38 -3 38 -9 0 -18 -4 -21 -9z"/>
<path d="M9837 8451 c-3 -12 1 -22 10 -25 21 -8 21 -9 15 19 -5 30 -18 33 -25
6z"/>
<path d="M8375 8450 c3 -5 11 -10 16 -10 6 0 7 5 4 10 -3 6 -11 10 -16 10 -6
0 -7 -4 -4 -10z"/>
<path d="M9046 8437 c3 -10 9 -15 12 -12 3 3 0 11 -7 18 -10 9 -11 8 -5 -6z"/>
<path d="M9085 8440 c-9 -15 -1 -23 21 -18 15 3 16 4 1 16 -11 9 -17 10 -22 2z"/>
<path d="M9320 8440 c-13 -8 -12 -10 3 -10 9 0 17 -5 17 -11 0 -8 5 -7 15 1
13 11 13 15 3 21 -17 11 -20 11 -38 -1z"/>
<path d="M9550 8410 c0 -11 2 -20 4 -20 2 0 6 9 9 20 3 11 1 20 -4 20 -5 0 -9
-9 -9 -20z"/>
<path d="M9670 8415 c-6 -8 -10 -19 -8 -26 2 -6 9 0 16 15 13 29 10 33 -8 11z"/>
<path d="M8965 8391 c5 -16 4 -21 -4 -17 -6 4 -11 3 -11 -3 0 -19 20 -22 36
-7 8 9 19 16 24 16 4 0 10 6 13 13 6 16 -30 20 -39 5 -4 -6 -10 -5 -16 3 -6
10 -7 7 -3 -10z"/>
<path d="M9370 8395 c0 -10 39 -43 44 -37 11 10 6 19 -19 30 -14 6 -25 9 -25
7z"/>
<path d="M3810 8378 c0 -25 15 -35 35 -27 19 7 18 8 -4 8 -20 1 -21 3 -11 16
10 12 10 15 -4 15 -9 0 -16 -6 -16 -12z"/>
<path d="M4255 8361 c-3 -11 1 -34 10 -51 17 -33 13 -52 -10 -44 -8 4 -12 11
-8 17 4 6 1 7 -7 2 -10 -6 -9 -11 6 -23 18 -14 18 -14 -2 -10 -12 3 -21 0 -21
-7 0 -20 69 6 75 28 3 14 11 17 28 13 18 -5 24 -2 24 10 0 13 -8 15 -35 12
-36 -4 -50 14 -20 26 16 6 21 36 6 36 -5 0 -16 3 -24 6 -10 3 -18 -2 -22 -15z"/>
<path d="M8766 8366 c4 -10 13 -15 21 -11 12 4 14 -3 11 -33 -3 -32 0 -38 13
-35 9 3 26 0 38 -6 28 -15 27 -5 -4 31 -14 16 -25 36 -25 44 0 8 -6 14 -14 14
-8 0 -22 3 -30 6 -12 5 -15 2 -10 -10z"/>
<path d="M4802 8345 c-16 -35 -15 -42 8 -48 16 -4 20 0 19 16 0 12 -4 30 -8
40 -6 17 -8 16 -19 -8z"/>
<path d="M8575 8360 c3 -5 8 -10 11 -10 2 0 4 5 4 10 0 6 -5 10 -11 10 -5 0
-7 -4 -4 -10z"/>
<path d="M3423 8340 c3 -12 -1 -24 -11 -30 -10 -5 -12 -9 -7 -9 6 0 21 6 35
14 19 11 21 14 8 15 -11 0 -15 5 -12 15 4 8 1 15 -6 15 -7 0 -10 -8 -7 -20z"/>
<path d="M3718 8352 c-22 -4 -23 -16 -3 -32 8 -7 15 -22 15 -33 0 -30 16 -9
25 32 5 22 4 31 -3 27 -6 -3 -12 -3 -14 2 -1 4 -11 6 -20 4z"/>
<path d="M9011 8344 c0 -11 3 -14 6 -6 3 7 2 16 -1 19 -3 4 -6 -2 -5 -13z"/>
<path d="M3670 8340 c0 -5 5 -10 11 -10 5 0 7 5 4 10 -3 6 -8 10 -11 10 -2 0
-4 -4 -4 -10z"/>
<path d="M8328 8327 c-14 -18 -19 -19 -26 -8 -7 9 -12 10 -16 2 -4 -6 8 -16
27 -25 19 -8 38 -19 41 -25 4 -6 12 -11 17 -11 6 0 7 5 2 13 -4 6 -12 26 -18
44 l-10 31 -17 -21z"/>
<path d="M9180 8330 c0 -5 7 -7 15 -4 8 4 15 8 15 10 0 2 -7 4 -15 4 -8 0 -15
-4 -15 -10z"/>
<path d="M9336 8299 c-10 -18 -27 -40 -37 -50 -19 -19 -18 -19 10 -19 19 0 35
-8 45 -21 13 -20 14 -16 13 50 -1 39 -4 71 -7 71 -3 0 -14 -14 -24 -31z"/>
<path d="M3302 8277 c-14 -15 -19 -27 -14 -31 6 -3 12 2 14 11 3 14 9 10 26
-17 22 -35 22 -35 22 -8 0 14 3 34 7 44 5 13 3 16 -10 11 -8 -3 -17 -1 -19 4
-2 6 -14 -1 -26 -14z"/>
<path d="M4388 8293 c7 -3 16 -2 19 1 4 3 -2 6 -13 5 -11 0 -14 -3 -6 -6z"/>
<path d="M8960 8291 c-14 -4 -20 -9 -15 -13 6 -3 24 1 40 8 32 14 17 17 -25 5z"/>
<path d="M3035 8270 c-3 -5 -3 -15 1 -21 3 -6 0 -16 -7 -21 -12 -8 -11 -9 1
-5 8 2 15 10 15 18 0 8 4 20 8 27 5 6 4 12 -2 12 -5 0 -13 -4 -16 -10z"/>
<path d="M9883 8273 c-10 -3 -9 -8 3 -20 17 -17 42 -4 30 16 -8 12 -14 12 -33
4z"/>
<path d="M9640 8260 c-12 -8 -10 -10 8 -10 13 0 20 4 17 10 -7 12 -6 12 -25 0z"/>
<path d="M8478 8253 c-20 -5 -21 -9 -7 -38 l9 -20 -3 20 c-2 12 6 25 18 32 20
12 14 14 -17 6z"/>
<path d="M3737 8230 c-12 -45 -9 -80 8 -74 8 4 23 0 33 -7 13 -11 13 -9 -2 9
-11 12 -22 39 -25 60 -6 34 -7 35 -14 12z"/>
<path d="M4120 8235 c-8 -9 -8 -15 -2 -15 6 0 12 6 15 13 3 8 13 4 31 -12 20
-19 29 -22 38 -13 9 9 3 15 -25 27 -44 18 -42 18 -57 0z"/>
<path d="M8102 8226 c3 -15 0 -27 -8 -30 -22 -8 -16 -25 6 -19 11 3 20 9 20
13 0 5 8 11 18 13 16 4 16 5 -1 6 -14 1 -17 6 -12 21 5 15 2 20 -10 20 -13 0
-16 -6 -13 -24z"/>
<path d="M8370 8226 c0 -9 5 -16 10 -16 6 0 10 4 10 9 0 6 -4 13 -10 16 -5 3
-10 -1 -10 -9z"/>
<path d="M9527 8213 c3 -7 -1 -13 -8 -13 -11 0 -11 -2 0 -12 11 -10 14 -10 18
0 3 6 11 12 19 12 23 0 16 17 -10 22 -17 4 -23 1 -19 -9z"/>
<path d="M3850 8205 c-7 -8 -8 -15 -2 -15 5 0 15 7 22 15 7 8 8 15 2 15 -5 0
-15 -7 -22 -15z"/>
<path d="M8423 8197 c4 -11 10 -30 13 -43 6 -24 7 -24 25 -8 22 19 25 34 7 34
-6 0 -20 8 -31 18 -20 16 -20 16 -14 -1z"/>
<path d="M2955 8189 c-4 -6 -13 -8 -19 -6 -30 12 -31 -11 -1 -49 l32 -42 -1
54 c0 57 -1 60 -11 43z"/>
<path d="M3351 8174 c0 -11 3 -14 6 -6 3 7 2 16 -1 19 -3 4 -6 -2 -5 -13z"/>
<path d="M4002 8168 c-14 -18 -6 -28 22 -28 12 0 16 3 10 8 -6 4 -13 13 -15
21 -4 11 -7 11 -17 -1z"/>
<path d="M9571 8164 c0 -11 3 -14 6 -6 3 7 2 16 -1 19 -3 4 -6 -2 -5 -13z"/>
<path d="M9735 8160 c-3 -6 1 -7 9 -4 18 7 21 14 7 14 -6 0 -13 -4 -16 -10z"/>
<path d="M3859 8152 c-10 -4 -14 -13 -10 -24 5 -15 8 -13 18 7 6 14 10 25 10
24 -1 0 -9 -3 -18 -7z"/>
<path d="M2647 8143 c-2 -5 1 -17 7 -29 10 -18 14 -19 24 -8 10 11 10 14 -2
14 -10 0 -13 6 -10 15 6 15 -11 22 -19 8z"/>
<path d="M2910 8126 c0 -9 5 -16 10 -16 6 0 10 4 10 9 0 6 -4 13 -10 16 -5 3
-10 -1 -10 -9z"/>
<path d="M3607 8134 c-13 -13 -7 -24 14 -24 11 0 19 5 17 12 -5 14 -22 21 -31
12z"/>
<path d="M9548 8123 c7 -3 16 -2 19 1 4 3 -2 6 -13 5 -11 0 -14 -3 -6 -6z"/>
<path d="M3447 8100 c3 -11 9 -20 13 -20 5 0 6 9 3 20 -3 11 -9 20 -13 20 -5
0 -6 -9 -3 -20z"/>
<path d="M8405 8090 c3 -5 8 -10 11 -10 2 0 4 5 4 10 0 6 -5 10 -11 10 -5 0
-7 -4 -4 -10z"/>
<path d="M2600 8080 c0 -5 5 -10 11 -10 5 0 7 5 4 10 -3 6 -8 10 -11 10 -2 0
-4 -4 -4 -10z"/>
<path d="M2973 8049 c3 -19 2 -43 -2 -54 -8 -19 -8 -19 -19 0 -6 11 -11 16
-12 10 0 -5 4 -16 9 -24 7 -11 14 -10 40 5 34 20 34 41 -1 76 l-21 21 6 -34z"/>
<path d="M4530 8059 c0 -11 4 -18 10 -14 5 3 7 12 3 20 -7 21 -13 19 -13 -6z"/>
<path d="M9520 8059 c0 -5 5 -7 10 -4 6 3 10 8 10 11 0 2 -4 4 -10 4 -5 0 -10
-5 -10 -11z"/>
<path d="M3230 8047 c0 -8 7 -17 15 -21 8 -3 15 -2 15 3 0 5 -7 14 -15 21 -12
10 -15 10 -15 -3z"/>
<path d="M2565 8030 c-4 -6 -15 -8 -26 -5 -26 9 -24 3 15 -40 l34 -37 -5 43
c-7 50 -8 54 -18 39z"/>
<path d="M3060 8033 c0 -5 4 -14 9 -21 6 -10 10 -9 14 7 3 14 0 21 -9 21 -8 0
-14 -3 -14 -7z"/>
<path d="M8024 7995 c-11 -22 -9 -24 18 -30 39 -9 44 -2 21 29 -22 32 -25 32
-39 1z"/>
<path d="M4750 8006 c0 -2 7 -7 16 -10 8 -3 12 -2 9 4 -6 10 -25 14 -25 6z"/>
<path d="M4360 7988 c0 -4 11 -8 25 -8 14 0 25 4 25 10 0 5 -11 9 -25 8 -14
-1 -25 -6 -25 -10z"/>
<path d="M7975 7980 c-3 -5 -1 -10 4 -10 6 0 11 5 11 10 0 6 -2 10 -4 10 -3 0
-8 -4 -11 -10z"/>
<path d="M8130 7980 c0 -5 7 -7 15 -4 8 4 15 8 15 10 0 2 -7 4 -15 4 -8 0 -15
-4 -15 -10z"/>
<path d="M2282 7955 c2 -24 18 -37 18 -14 0 5 5 7 10 4 6 -3 10 -1 10 5 0 7
-7 9 -16 6 -12 -4 -15 -2 -10 9 3 8 1 15 -4 15 -5 0 -9 -11 -8 -25z"/>
<path d="M2540 7965 c0 -8 4 -15 10 -15 5 0 7 7 4 15 -4 8 -8 15 -10 15 -2 0
-4 -7 -4 -15z"/>
<path d="M4310 7970 c0 -5 10 -10 23 -10 18 0 19 2 7 10 -19 13 -30 13 -30 0z"/>
<path d="M4395 7940 c-3 -6 1 -7 9 -4 18 7 21 14 7 14 -6 0 -13 -4 -16 -10z"/>
<path d="M2606 7880 c5 -29 2 -38 -10 -43 -9 -4 -16 -1 -16 5 0 6 -2 9 -5 6
-8 -8 6 -38 17 -38 5 0 7 4 4 9 -4 5 7 15 23 22 28 13 29 14 16 40 -8 14 -12
29 -10 31 3 3 -2 5 -10 5 -11 0 -13 -9 -9 -37z"/>
<path d="M2845 7910 c-3 -6 1 -13 10 -16 19 -8 30 0 20 15 -8 14 -22 14 -30 1z"/>
<path d="M2683 7902 c-8 -5 -7 -14 3 -32 14 -24 15 -24 11 -2 -3 14 1 26 11
32 14 8 14 9 2 10 -8 0 -20 -4 -27 -8z"/>
<path d="M4680 7900 c-12 -7 -12 -12 4 -29 21 -23 15 -27 -15 -11 -21 12 -26
-2 -6 -17 23 -18 87 -5 87 18 0 6 -4 8 -9 4 -5 -3 -12 -1 -16 5 -4 6 -10 8
-15 5 -5 -3 -12 0 -16 6 -3 6 0 15 7 20 8 5 10 9 4 9 -5 0 -17 -4 -25 -10z"/>
<path d="M8139 7894 c-9 -11 -9 -18 -1 -26 9 -9 12 -7 12 11 0 21 1 21 25 -6
20 -23 24 -25 25 -10 0 10 4 16 9 13 7 -5 21 15 21 27 0 1 -18 3 -39 4 -25 2
-44 -3 -52 -13z"/>
<path d="M4354 7867 l-52 -9 14 -27 c8 -14 20 -39 26 -56 l12 -30 4 34 c2 21
-2 37 -9 42 -16 10 -15 11 36 37 44 23 43 24 -31 9z"/>
<path d="M4529 7853 c-1 -16 -1 -32 0 -37 1 -4 -4 -14 -10 -22 -10 -12 -15
-12 -32 3 -20 18 -20 17 -13 -9 5 -23 3 -26 -14 -23 -11 2 -18 0 -15 -5 3 -5
-9 -16 -27 -25 -18 -8 -23 -12 -10 -9 16 4 22 1 22 -12 0 -13 -6 -15 -32 -10
-18 3 -36 12 -41 19 -6 8 -7 6 -3 -7 4 -10 2 -24 -4 -31 -8 -9 -8 -15 0 -20 5
-3 10 2 10 12 1 16 3 16 18 -3 l17 -21 27 20 c27 20 28 20 49 2 13 -13 19 -28
16 -42 -2 -13 -3 -23 -2 -23 11 0 95 54 95 61 0 5 10 9 23 9 33 0 67 11 67 21
0 5 -11 14 -25 19 -14 5 -36 17 -50 26 -20 13 -23 20 -14 35 5 11 14 17 20 14
5 -4 9 3 9 13 0 16 -5 19 -22 15 l-23 -5 21 19 c28 25 19 43 -22 43 -30 0 -34
-3 -35 -27z m21 -107 c0 -3 -4 -8 -10 -11 -5 -3 -10 -1 -10 4 0 6 5 11 10 11
6 0 10 -2 10 -4z m-10 -46 c0 -16 -6 -19 -30 -16 -17 2 -34 7 -38 11 -4 4 4 4
17 0 15 -5 21 -4 17 3 -3 6 2 13 11 15 10 3 19 5 21 6 1 0 2 -8 2 -19z"/>
<path d="M4770 7861 c0 -5 7 -14 15 -21 16 -14 18 -10 9 14 -6 17 -24 22 -24
7z"/>
<path d="M4883 7851 c0 -10 7 -17 13 -14 7 3 10 11 7 19 -8 20 -22 17 -20 -5z"/>
<path d="M4206 7822 c-4 -23 -13 -48 -20 -55 -10 -10 -1 -12 46 -13 l59 -1
-30 20 c-17 10 -34 31 -37 46 -3 14 -7 31 -8 36 -2 6 -6 -9 -10 -33z"/>
<path d="M2195 7820 c-4 -6 -15 -8 -26 -5 -30 10 -22 -8 16 -32 44 -29 45 -29
35 8 -11 38 -16 44 -25 29z"/>
<path d="M4840 7815 c-7 -8 -17 -12 -23 -8 -6 3 -7 1 -3 -5 7 -11 -62 -62 -84
-62 -5 0 -20 -10 -31 -21 l-22 -22 35 7 c20 3 67 0 107 -9 92 -19 89 -20 59
13 -31 33 -42 75 -28 102 13 24 8 26 -10 5z"/>
<path d="M4245 7810 c-3 -6 1 -7 9 -4 18 7 21 14 7 14 -6 0 -13 -4 -16 -10z"/>
<path d="M2475 7750 c-3 -6 1 -13 10 -16 19 -8 30 0 20 15 -8 14 -22 14 -30 1z"/>
<path d="M1957 7743 c-4 -3 -2 -13 3 -23 5 -10 6 -20 3 -24 -3 -3 -1 -6 5 -6
7 0 12 5 12 11 0 5 5 7 12 3 7 -4 8 -3 4 5 -4 6 -12 8 -18 5 -7 -5 -9 -1 -5 9
6 17 -5 31 -16 20z"/>
<path d="M2220 7730 c-6 -12 -7 -20 -1 -20 5 0 11 8 13 18 2 13 9 8 26 -19 12
-20 22 -44 22 -53 0 -21 13 -20 33 2 15 16 14 18 -14 31 -17 7 -34 24 -39 37
-12 29 -26 31 -40 4z"/>
<path d="M2307 7728 c6 -7 13 -20 17 -28 3 -8 4 -5 2 7 -2 12 1 24 8 27 6 2 0
5 -13 5 -17 1 -21 -2 -14 -11z"/>
<path d="M5005 7720 c3 -5 8 -10 11 -10 2 0 4 5 4 10 0 6 -5 10 -11 10 -5 0
-7 -4 -4 -10z"/>
<path d="M4105 7691 c-3 -5 -1 -12 5 -16 6 -4 8 -11 5 -16 -8 -12 6 -11 25 1
13 8 13 10 -2 10 -11 0 -15 5 -12 15 7 16 -11 21 -21 6z"/>
<path d="M1910 7669 c0 -5 5 -7 10 -4 6 3 10 8 10 11 0 2 -4 4 -10 4 -5 0 -10
-5 -10 -11z"/>
<path d="M7810 7642 c0 -10 -5 -23 -11 -29 -7 -7 0 -12 26 -17 20 -4 44 -10
53 -13 9 -4 2 7 -15 24 -18 17 -33 36 -33 42 0 6 -4 11 -10 11 -5 0 -10 -8
-10 -18z"/>
<path d="M4750 7640 c0 -5 5 -10 11 -10 5 0 7 5 4 10 -3 6 -8 10 -11 10 -2 0
-4 -4 -4 -10z"/>
<path d="M7903 7642 c-8 -5 -9 -13 -3 -22 8 -13 10 -13 10 2 0 9 6 19 13 21 6
3 8 6 2 6 -5 0 -15 -3 -22 -7z"/>
<path d="M4403 7569 c-1 -27 -1 -49 1 -49 2 0 15 18 30 40 24 37 25 45 2 41
-4 -1 -13 3 -20 8 -8 7 -12 -4 -13 -40z"/>
<path d="M4643 7595 c0 -8 4 -12 9 -9 5 3 6 10 3 15 -9 13 -12 11 -12 -6z"/>
<path d="M4480 7555 c-8 -9 -6 -23 7 -49 16 -35 16 -37 -3 -50 -17 -13 -20
-12 -26 2 -4 9 -7 12 -7 5 -1 -6 -4 -20 -8 -30 -7 -17 -6 -17 20 0 14 9 33 17
40 17 8 0 17 9 20 21 5 17 9 19 26 9 18 -9 21 -8 21 10 0 15 -6 20 -29 20 -16
0 -32 -6 -34 -12 -3 -8 -6 -6 -6 4 -1 9 5 21 12 25 8 4 16 15 19 23 7 19 -37
23 -52 5z"/>
<path d="M5017 7533 c-3 -16 0 -31 6 -35 24 -16 33 -7 29 27 -5 42 -27 47 -35
8z"/>
<path d="M1878 7534 c-15 -15 -13 -19 30 -48 27 -19 55 -49 69 -75 13 -24 23
-37 23 -27 0 9 7 19 16 23 12 4 5 13 -29 34 -25 15 -48 37 -52 49 -3 11 -11
20 -16 20 -5 0 -13 9 -17 20 -7 19 -9 19 -24 4z"/>
<path d="M7664 7504 c5 -17 3 -23 -4 -19 -5 3 -10 -1 -10 -10 0 -13 3 -14 23
-3 12 7 25 11 30 10 4 -1 7 3 7 8 0 6 -7 10 -15 10 -9 0 -12 6 -9 15 4 10 0
15 -11 15 -13 0 -16 -6 -11 -26z"/>
<path d="M2160 7510 c0 -6 -5 -8 -12 -4 -7 4 -8 3 -4 -4 9 -16 49 -15 44 0 -6
16 -28 23 -28 8z"/>
<path d="M2200 7505 c0 -8 4 -15 10 -15 5 0 7 7 4 15 -4 8 -8 15 -10 15 -2 0
-4 -7 -4 -15z"/>
<path d="M7936 7511 c-4 -7 -5 -15 -2 -18 9 -9 19 4 14 18 -4 11 -6 11 -12 0z"/>
<path d="M1989 7487 c6 -8 8 -17 4 -20 -3 -4 -1 -7 6 -7 7 0 11 6 8 14 -3 8
-1 17 6 20 7 2 1 5 -12 5 -18 1 -21 -2 -12 -12z"/>
<path d="M4285 7490 c-8 -13 3 -30 21 -30 18 0 18 14 0 29 -10 8 -16 9 -21 1z"/>
<path d="M4600 7491 c0 -5 9 -7 20 -4 11 3 20 7 20 9 0 2 -9 4 -20 4 -11 0
-20 -4 -20 -9z"/>
<path d="M4143 7472 c-8 -5 -9 -13 -3 -22 8 -13 10 -13 10 2 0 9 6 19 13 21 6
3 8 6 2 6 -5 0 -15 -3 -22 -7z"/>
<path d="M4225 7459 c-4 -11 -9 -18 -12 -15 -7 6 -32 -24 -33 -38 0 -4 9 -6
21 -3 12 3 18 3 15 0 -6 -6 42 -43 55 -43 4 0 9 11 11 25 4 18 0 26 -13 30
-14 5 -18 14 -15 36 4 34 -19 41 -29 8z"/>
<path d="M1670 7444 c0 -8 5 -12 10 -9 6 4 8 11 5 16 -9 14 -15 11 -15 -7z"/>
<path d="M7615 7450 c4 -6 11 -8 16 -5 14 9 11 15 -7 15 -8 0 -12 -5 -9 -10z"/>
<path d="M1930 7435 c0 -8 4 -15 10 -15 5 0 7 7 4 15 -4 8 -8 15 -10 15 -2 0
-4 -7 -4 -15z"/>
<path d="M4332 7432 c-21 -17 -22 -18 -3 -29 17 -10 20 -9 26 14 8 33 4 35
-23 15z"/>
<path d="M4096 7418 c-7 -29 -4 -31 35 -20 l34 9 -31 16 c-31 16 -32 16 -38
-5z"/>
<path d="M4387 7416 c14 -18 21 -21 31 -13 11 8 9 13 -10 23 -35 20 -41 17
-21 -10z"/>
<path d="M1686 7422 c-3 -5 1 -9 9 -9 8 0 15 4 15 9 0 4 -4 8 -9 8 -6 0 -12
-4 -15 -8z"/>
<path d="M4281 7332 c-7 -7 -10 -16 -6 -20 4 -4 10 -1 13 7 3 10 9 8 23 -10
14 -19 19 -20 19 -7 0 9 3 23 6 32 5 12 0 15 -18 14 -14 -1 -30 -8 -37 -16z"/>
<path d="M4038 7334 c-6 -5 1 -44 7 -44 15 0 34 14 29 21 -3 5 -10 6 -16 3 -7
-5 -9 -1 -5 9 6 16 -3 23 -15 11z"/>
<path d="M4750 7262 c0 -14 6 -22 16 -22 14 0 15 3 3 18 -7 9 -15 19 -16 21
-2 2 -3 -5 -3 -17z"/>
<path d="M7808 7273 c7 -3 16 -2 19 1 4 3 -2 6 -13 5 -11 0 -14 -3 -6 -6z"/>
<path d="M7623 7253 c4 -3 0 -14 -9 -24 -14 -16 -12 -17 34 -20 l49 -4 -30 28
c-16 15 -34 27 -40 27 -6 0 -7 -3 -4 -7z"/>
<path d="M1604 7231 c3 -5 -2 -15 -10 -22 -15 -12 -14 -14 7 -20 13 -4 32 -7
43 -8 15 -1 16 2 6 14 -7 8 -9 15 -4 15 10 0 -28 29 -39 30 -5 0 -6 -4 -3 -9z"/>
<path d="M1865 7220 c-3 -6 1 -13 10 -16 19 -8 30 0 20 15 -8 14 -22 14 -30 1z"/>
<path d="M1709 7212 c-13 -6 -13 -10 -1 -32 13 -23 13 -23 9 -2 -3 14 1 26 11
32 19 11 5 12 -19 2z"/>
<path d="M4610 7193 c-25 -4 -61 -43 -40 -43 5 0 10 4 10 9 0 5 14 14 30 20
17 5 30 12 30 15 0 4 -1 5 -2 5 -2 -1 -14 -4 -28 -6z"/>
<path d="M4620 7140 c-9 -6 -10 -10 -3 -10 6 0 15 5 18 10 8 12 4 12 -15 0z"/>
<path d="M7497 7118 c-2 -18 -3 -34 -2 -36 1 -1 14 3 29 9 22 10 24 14 12 21
-8 5 -13 15 -10 23 4 9 0 15 -9 15 -9 0 -17 -13 -20 -32z"/>
<path d="M7776 7131 c-4 -7 -5 -15 -2 -18 9 -9 19 4 14 18 -4 11 -6 11 -12 0z"/>
<path d="M1440 7114 c0 -8 5 -12 10 -9 6 4 8 11 5 16 -9 14 -15 11 -15 -7z"/>
<path d="M4216 7122 c-3 -6 3 -12 15 -15 12 -3 19 -1 16 6 -5 15 -24 20 -31 9z"/>
<path d="M4260 7120 c0 -5 5 -10 11 -10 5 0 7 5 4 10 -3 6 -8 10 -11 10 -2 0
-4 -4 -4 -10z"/>
<path d="M1700 7105 c0 -8 4 -15 10 -15 5 0 7 7 4 15 -4 8 -8 15 -10 15 -2 0
-4 -7 -4 -15z"/>
<path d="M4068 7095 c2 -14 6 -25 7 -25 1 0 5 11 7 25 3 16 1 25 -7 25 -8 0
-10 -9 -7 -25z"/>
<path d="M4888 7083 c14 -5 17 -33 3 -33 -6 0 -13 5 -16 10 -3 6 -11 10 -16
10 -6 0 2 -11 18 -24 15 -13 30 -21 33 -16 3 4 16 7 30 6 16 -1 26 5 28 17 2
12 -3 17 -17 17 -11 0 -23 5 -26 10 -3 6 -16 10 -28 9 -12 0 -16 -3 -9 -6z"/>
<path d="M4028 7056 c-4 -19 -1 -21 24 -18 34 5 36 15 4 30 -21 9 -24 8 -28
-12z"/>
<path d="M4756 7071 c-3 -5 -7 -23 -8 -42 -2 -40 -15 -51 -41 -37 -17 9 -19 7
-15 -9 4 -14 -4 -23 -33 -37 -22 -11 -39 -24 -39 -29 0 -5 7 -3 17 4 15 13 16
11 10 -12 -5 -20 -3 -29 9 -33 8 -3 13 -10 10 -15 -3 -5 1 -11 9 -15 9 -3 15
-19 15 -41 l0 -35 48 36 c26 20 59 41 74 46 25 9 37 25 44 56 1 7 -11 19 -27
27 -16 9 -29 20 -29 24 0 20 13 41 21 35 5 -3 9 5 9 17 0 18 -2 19 -15 9 -21
-17 -20 4 1 25 9 9 15 17 13 19 -11 9 -69 14 -73 7z m14 -91 c0 -5 -5 -10 -11
-10 -5 0 -7 5 -4 10 3 6 8 10 11 10 2 0 4 -4 4 -10z m-15 -108 c-4 -4 -10 -2
-12 5 -2 7 -12 10 -21 7 -9 -3 -6 1 8 10 22 13 25 13 28 0 2 -9 1 -19 -3 -22z"/>
<path d="M4562 7063 c-27 -4 -32 -8 -27 -21 4 -9 10 -26 13 -37 3 -11 11 -29
19 -40 12 -18 13 -17 13 17 0 20 -6 38 -12 41 -7 3 7 14 32 26 47 21 41 23
-38 14z"/>
<path d="M4990 7062 c0 -5 7 -16 16 -23 14 -12 16 -11 13 5 -4 20 -29 35 -29
18z"/>
<path d="M1395 7050 c3 -5 8 -10 11 -10 2 0 4 5 4 10 0 6 -5 10 -11 10 -5 0
-7 -4 -4 -10z"/>
<path d="M5044 6996 c-18 -19 -50 -42 -73 -52 -63 -29 -57 -39 23 -39 39 0 84
-4 100 -8 l29 -8 -28 32 c-21 26 -26 41 -23 71 2 21 3 38 3 37 0 0 -14 -15
-31 -33z"/>
<path d="M4470 7009 c0 -5 5 -7 10 -4 6 3 10 8 10 11 0 2 -4 4 -10 4 -5 0 -10
-5 -10 -11z"/>
<path d="M7805 6990 c3 -5 8 -10 11 -10 2 0 4 5 4 10 0 6 -5 10 -11 10 -5 0
-7 -4 -4 -10z"/>
<path d="M3966 6981 c-5 -8 -4 -16 4 -21 9 -6 8 -10 -6 -19 -17 -9 -17 -10 -1
-11 9 0 17 5 17 11 0 5 5 7 10 4 6 -3 10 -1 10 4 0 6 -4 11 -9 11 -5 0 -11 8
-13 18 -3 13 -5 14 -12 3z"/>
<path d="M4206 6971 c-4 -7 -5 -15 -2 -18 9 -9 19 4 14 18 -4 11 -6 11 -12 0z"/>
<path d="M4865 6900 c3 -5 10 -10 16 -10 5 0 9 5 9 10 0 6 -7 10 -16 10 -8 0
-12 -4 -9 -10z"/>
<path d="M1635 6890 c-3 -6 1 -13 10 -16 19 -8 30 0 20 15 -8 14 -22 14 -30 1z"/>
<path d="M7635 6873 c-5 -21 -8 -24 -16 -12 -7 11 -9 11 -9 -4 0 -10 -6 -20
-14 -23 -23 -9 -12 -32 32 -63 22 -17 39 -24 36 -17 -3 8 4 24 15 35 l20 20
-20 15 c-12 8 -18 19 -15 25 4 5 1 13 -5 16 -5 4 -8 13 -5 21 3 8 2 14 -3 14
-5 0 -12 -12 -16 -27z"/>
<path d="M1398 6865 c2 -14 -1 -31 -7 -39 -9 -11 -1 -14 46 -18 32 -3 59 -4
61 -3 2 2 -13 11 -33 21 -20 9 -42 28 -48 41 -14 30 -25 30 -19 -2z"/>
<path d="M1475 6880 c-16 -7 -17 -9 -3 -9 9 -1 20 4 23 9 7 11 7 11 -20 0z"/>
<path d="M7548 6883 c7 -3 16 -2 19 1 4 3 -2 6 -13 5 -11 0 -14 -3 -6 -6z"/>
<path d="M7470 6852 c0 -10 -4 -22 -10 -28 -6 -6 10 -10 48 -10 31 -1 52 1 45
3 -7 2 -9 12 -6 21 4 14 3 15 -6 2 -9 -12 -14 -11 -40 8 -29 21 -31 21 -31 4z"/>
<path d="M1481 6844 c0 -11 3 -14 6 -6 3 7 2 16 -1 19 -3 4 -6 -2 -5 -13z"/>
<path d="M4142 6768 c5 -23 38 -39 38 -18 0 5 -9 14 -20 20 -16 8 -20 8 -18
-2z"/>
<path d="M4744 6769 c-3 -6 -1 -29 6 -50 11 -31 11 -41 0 -54 -11 -13 -10 -14
11 -7 14 5 25 19 27 31 3 22 4 22 23 5 18 -16 19 -16 19 6 0 19 -4 22 -30 18
-32 -5 -43 15 -14 26 14 5 14 8 0 21 -17 18 -32 19 -42 4z"/>
<path d="M4190 6760 c0 -5 5 -10 11 -10 5 0 7 5 4 10 -3 6 -8 10 -11 10 -2 0
-4 -4 -4 -10z"/>
<path d="M5266 6743 c-7 -24 5 -42 27 -43 9 0 9 32 1 54 -9 24 -21 19 -28 -11z"/>
<path d="M3997 6753 c-3 -5 -1 -17 3 -28 6 -17 7 -16 12 8 5 25 -5 37 -15 20z"/>
<path d="M4084 6745 c-3 -8 -2 -20 2 -27 5 -10 4 -10 -6 -1 -11 10 -16 9 -26
-5 -20 -26 -17 -35 11 -30 13 3 22 2 20 -3 -3 -4 8 -17 25 -29 29 -21 30 -21
30 -2 0 11 6 22 12 24 7 3 -1 11 -17 19 -24 12 -29 20 -27 42 4 28 -15 38 -24
12z"/>
<path d="M7371 6746 c-6 -7 -9 -21 -5 -30 3 -9 1 -16 -5 -16 -6 0 -11 -4 -11
-9 0 -6 12 -6 30 0 31 11 41 29 16 29 -9 0 -12 7 -9 20 6 23 0 26 -16 6z"/>
<path d="M1280 6724 c0 -8 5 -12 10 -9 6 3 10 10 10 16 0 5 -4 9 -10 9 -5 0
-10 -7 -10 -16z"/>
<path d="M7636 6731 c-4 -7 -5 -15 -2 -18 9 -9 19 4 14 18 -4 11 -6 11 -12 0z"/>
<path d="M3948 6695 c-5 -22 -3 -24 21 -18 42 9 44 14 16 29 -34 18 -32 18
-37 -11z"/>
<path d="M1295 6699 c-11 -16 -1 -19 13 -3 7 8 8 14 3 14 -5 0 -13 -5 -16 -11z"/>
<path d="M4860 6702 c0 -5 7 -9 15 -9 8 0 15 4 15 9 0 4 -7 8 -15 8 -8 0 -15
-4 -15 -8z"/>
<path d="M4713 6658 c-2 -16 1 -18 10 -9 7 7 8 14 1 21 -6 6 -10 2 -11 -12z"/>
<path d="M1230 6659 c0 -5 5 -7 10 -4 6 3 10 8 10 11 0 2 -4 4 -10 4 -5 0 -10
-5 -10 -11z"/>
<path d="M3890 6609 c0 -5 5 -7 10 -4 6 3 10 8 10 11 0 2 -4 4 -10 4 -5 0 -10
-5 -10 -11z"/>
<path d="M4131 6604 c0 -11 3 -14 6 -6 3 7 2 16 -1 19 -3 4 -6 -2 -5 -13z"/>
<path d="M5118 6603 c7 -3 16 -2 19 1 4 3 -2 6 -13 5 -11 0 -14 -3 -6 -6z"/>
<path d="M3895 6580 c-8 -13 5 -13 25 0 13 8 13 10 -2 10 -9 0 -20 -4 -23 -10z"/>
<path d="M7405 6550 c-8 -13 5 -13 25 0 13 8 13 10 -2 10 -9 0 -20 -4 -23 -10z"/>
<path d="M7500 6480 c0 -20 -4 -28 -13 -24 -12 4 -46 -42 -36 -49 2 -2 23 -15
47 -30 38 -25 42 -26 42 -8 0 10 7 24 16 32 14 11 13 14 -10 26 -15 8 -23 19
-20 27 3 8 0 17 -6 21 -9 6 -9 9 0 15 8 5 7 9 -4 13 -12 5 -16 0 -16 -23z"/>
<path d="M1487 6484 c-11 -11 3 -24 24 -24 12 0 19 5 17 13 -5 14 -31 21 -41
11z"/>
<path d="M1545 6481 c-3 -5 -1 -12 5 -16 5 -3 10 1 10 9 0 18 -6 21 -15 7z"/>
<path d="M5000 6476 c0 -9 7 -16 16 -16 17 0 14 22 -4 28 -7 2 -12 -3 -12 -12z"/>
<path d="M1310 6470 c-9 -6 -10 -10 -3 -10 6 0 14 -10 16 -22 4 -20 4 -20 6 4
0 14 7 29 14 31 8 4 7 6 -3 6 -8 0 -22 -4 -30 -9z"/>
<path d="M1420 6458 c-11 -12 -20 -18 -20 -13 0 5 -7 -1 -16 -13 -8 -12 -12
-27 -9 -32 8 -12 -27 -13 -40 -1 -6 5 -21 12 -35 16 -22 7 -23 6 -11 -9 9 -10
11 -27 7 -47 -5 -24 -3 -29 7 -21 6 5 37 15 67 22 45 10 66 10 110 -2 l55 -14
0 37 c0 34 -1 36 -22 26 -33 -15 -80 7 -63 28 10 12 10 15 0 15 -10 0 -10 3 0
15 20 24 -6 18 -30 -7z"/>
<path d="M7334 6436 c-11 -24 -10 -24 37 -22 27 0 49 2 49 3 0 1 -70 43 -73
43 -1 0 -7 -11 -13 -24z"/>
<path d="M4065 6410 c-8 -13 0 -23 20 -26 19 -3 19 10 1 25 -10 9 -16 9 -21 1z"/>
<path d="M4840 6402 c0 -9 -7 -11 -20 -7 -15 5 -18 3 -14 -8 8 -22 42 -28 40
-9 0 9 8 18 19 20 34 7 38 19 6 18 -18 -1 -31 -6 -31 -14z"/>
<path d="M3923 6392 c-8 -5 -9 -13 -3 -22 8 -13 10 -13 10 2 0 9 6 19 13 21 6
3 8 6 2 6 -5 0 -15 -3 -22 -7z"/>
<path d="M4010 6385 c0 -8 -6 -15 -13 -15 -7 0 -18 -9 -24 -19 -11 -17 -7 -23
35 -50 41 -27 47 -28 51 -13 2 9 7 22 12 28 7 8 2 14 -15 18 -22 5 -25 10 -19
36 4 23 2 30 -11 30 -9 0 -16 -7 -16 -15z"/>
<path d="M4875 6360 c-3 -6 1 -7 9 -4 18 7 21 14 7 14 -6 0 -13 -4 -16 -10z"/>
<path d="M3867 6340 c-5 -21 3 -24 42 -13 l23 6 -23 13 c-32 18 -36 17 -42 -6z"/>
<path d="M7244 6325 c4 -14 2 -25 -4 -25 -5 0 -10 -4 -10 -9 0 -5 9 -7 20 -4
11 3 20 10 20 15 0 5 5 6 10 3 6 -3 10 -1 10 4 0 6 -7 11 -15 11 -9 0 -12 6
-9 15 4 10 0 15 -11 15 -13 0 -16 -6 -11 -25z"/>
<path d="M5156 6332 c-2 -4 -3 -20 -2 -35 3 -23 1 -25 -17 -16 -16 9 -17 13
-6 20 9 6 10 9 2 9 -22 0 -24 -19 -4 -36 26 -23 78 -26 86 -6 6 16 -10 32 -32
32 -7 0 -13 5 -13 11 0 5 6 7 13 3 8 -5 8 -2 -2 9 -15 19 -18 20 -25 9z"/>
<path d="M7516 6331 c-4 -7 -5 -15 -2 -18 9 -9 19 4 14 18 -4 11 -6 11 -12 0z"/>
<path d="M4839 6287 l-46 -12 23 -50 c23 -48 24 -49 24 -18 0 17 -5 35 -12 39
-7 4 6 16 33 30 49 26 45 27 -22 11z"/>
<path d="M5004 6258 c-4 -24 -7 -46 -6 -50 3 -13 -10 -9 -30 9 -15 13 -18 14
-18 2 0 -8 5 -20 12 -27 8 -8 5 -10 -14 -7 -28 5 -36 -6 -33 -42 1 -15 -4 -23
-14 -23 -11 0 -10 -3 5 -15 10 -8 15 -15 10 -15 -6 0 -1 -6 9 -14 11 -8 18
-26 18 -45 0 -31 0 -31 21 -12 12 10 47 35 78 55 31 20 62 44 67 53 6 10 11
12 11 6 0 -14 20 -18 20 -5 0 4 -20 18 -45 30 -48 23 -53 32 -30 56 20 20 19
37 -2 29 -17 -7 -17 -6 0 20 23 35 22 37 -17 37 -32 0 -35 -2 -42 -42z m16
-127 c0 -3 -5 -13 -10 -21 -7 -11 -10 -11 -10 -2 0 7 -4 10 -10 7 -5 -3 -7 0
-4 8 5 13 34 20 34 8z"/>
<path d="M5240 6286 c0 -7 7 -19 15 -26 16 -13 20 -3 9 24 -8 20 -24 21 -24 2z"/>
<path d="M5351 6274 c0 -11 3 -14 6 -6 3 7 2 16 -1 19 -3 4 -6 -2 -5 -13z"/>
<path d="M1240 6255 c0 -9 6 -12 15 -9 8 4 15 10 15 15 0 5 -7 9 -15 9 -8 0
-15 -7 -15 -15z"/>
<path d="M1596 6254 c-4 -10 -1 -21 6 -25 16 -10 25 18 10 33 -6 6 -12 3 -16
-8z"/>
<path d="M3805 6260 c-3 -5 -3 -15 1 -21 3 -6 0 -15 -7 -20 -11 -7 -10 -9 4
-9 9 0 17 5 17 11 0 5 5 7 10 4 6 -3 10 -1 10 4 0 6 -7 11 -15 11 -9 0 -12 6
-9 15 7 17 -1 20 -11 5z"/>
<path d="M4040 6245 c0 -8 4 -15 10 -15 5 0 7 7 4 15 -4 8 -8 15 -10 15 -2 0
-4 -7 -4 -15z"/>
<path d="M7388 6253 c7 -3 16 -2 19 1 4 3 -2 6 -13 5 -11 0 -14 -3 -6 -6z"/>
<path d="M1275 6230 c3 -5 11 -10 16 -10 6 0 7 5 4 10 -3 6 -11 10 -16 10 -6
0 -7 -4 -4 -10z"/>
<path d="M5281 6213 c-13 -13 -41 -31 -62 -40 -60 -28 -54 -39 20 -38 36 0 81
-3 100 -7 l33 -8 -23 24 c-13 14 -28 40 -34 58 l-10 33 -24 -22z"/>
<path d="M1255 6210 c-3 -5 -1 -10 4 -10 6 0 11 5 11 10 0 6 -2 10 -4 10 -3 0
-8 -4 -11 -10z"/>
<path d="M7375 6190 c3 -5 8 -10 11 -10 2 0 4 5 4 10 0 6 -5 10 -11 10 -5 0
-7 -4 -4 -10z"/>
<path d="M1170 6186 c0 -2 7 -9 15 -16 9 -7 15 -8 15 -2 0 5 -7 12 -15 16 -8
3 -15 4 -15 2z"/>
<path d="M7294 6155 c-10 -8 -14 -15 -8 -15 5 0 19 7 30 15 10 8 14 15 8 15
-5 0 -19 -7 -30 -15z"/>
<path d="M4875 6150 c-8 -13 5 -13 25 0 13 8 13 10 -2 10 -9 0 -20 -4 -23 -10z"/>
<path d="M7379 6083 c-1 -10 -1 -22 0 -26 1 -5 -3 -6 -9 -2 -11 7 -40 -17 -40
-34 0 -6 11 -11 25 -11 14 0 25 -4 25 -9 0 -9 50 -45 54 -39 2 2 6 15 9 29 6
21 3 28 -13 32 -12 3 -20 14 -20 25 0 12 -5 24 -11 28 -8 4 -7 9 2 15 11 7 10
9 -3 9 -10 0 -19 -8 -19 -17z"/>
<path d="M4780 6080 c0 -5 5 -10 11 -10 5 0 7 5 4 10 -3 6 -8 10 -11 10 -2 0
-4 -4 -4 -10z"/>
<path d="M3985 6050 c-4 -7 -1 -16 6 -21 17 -10 26 8 11 23 -6 6 -12 6 -17 -2z"/>
<path d="M7230 6045 c0 -7 -3 -20 -6 -29 -5 -13 -1 -14 26 -6 43 12 43 13 9
32 -23 14 -29 14 -29 3z"/>
<path d="M3828 6018 c4 -16 7 -18 10 -8 3 8 10 18 16 22 6 5 2 8 -11 8 -17 0
-20 -4 -15 -22z"/>
<path d="M3920 6019 c0 -11 -5 -17 -10 -14 -14 8 -43 -22 -35 -36 4 -6 16 -9
26 -6 11 3 17 1 14 -3 -5 -8 32 -40 46 -40 4 0 9 10 12 22 4 14 0 26 -12 35
-12 8 -17 20 -14 38 4 18 1 25 -11 25 -9 0 -16 -8 -16 -21z"/>
<path d="M3778 5985 c-5 -26 8 -31 45 -17 15 6 14 10 -12 25 -28 17 -29 17
-33 -8z"/>
<path d="M4993 5994 c-3 -8 2 -26 12 -40 13 -20 14 -28 4 -40 -9 -11 -8 -14
10 -14 14 0 21 6 21 20 0 18 3 19 21 10 18 -10 20 -9 17 7 -2 12 -12 18 -31
18 -29 -1 -37 19 -12 29 23 9 18 21 -11 22 -14 1 -28 -4 -31 -12z"/>
<path d="M5507 5983 c-16 -31 -16 -32 4 -38 28 -9 32 -3 21 36 l-9 34 -16 -32z"/>
<path d="M4880 5970 c0 -5 5 -10 11 -10 5 0 7 5 4 10 -3 6 -8 10 -11 10 -2 0
-4 -4 -4 -10z"/>
<path d="M1512 5957 c-17 -10 -20 -15 -10 -25 17 -17 58 -15 58 3 0 8 -7 15
-16 15 -8 0 -12 5 -9 10 8 13 5 12 -23 -3z"/>
<path d="M7161 5951 c-9 -6 -11 -18 -7 -34 5 -20 11 -24 27 -20 20 6 20 7 5
18 -9 7 -14 19 -10 29 7 18 5 19 -15 7z"/>
<path d="M1298 5943 c-33 -5 -32 -2 -12 -41 19 -38 27 -41 22 -7 -2 15 4 30
17 39 11 9 16 15 10 14 -5 0 -22 -3 -37 -5z"/>
<path d="M1580 5936 c0 -9 5 -16 10 -16 6 0 10 4 10 9 0 6 -4 13 -10 16 -5 3
-10 -1 -10 -9z"/>
<path d="M1614 5903 c-22 -24 -38 -43 -34 -43 27 0 119 24 111 29 -5 4 -16 18
-23 31 l-13 25 -41 -42z"/>
<path d="M5110 5940 c0 -5 7 -7 15 -4 8 4 15 8 15 10 0 2 -7 4 -15 4 -8 0 -15
-4 -15 -10z"/>
<path d="M1433 5930 c-13 -5 -23 -17 -23 -26 0 -10 -5 -14 -15 -10 -9 3 -15 0
-15 -10 0 -8 -6 -17 -13 -20 -20 -7 -17 -35 5 -67 11 -15 18 -37 15 -47 -3
-11 -1 -20 4 -20 5 0 9 4 9 9 0 14 96 81 116 81 15 0 16 2 5 9 -8 5 -21 7 -29
3 -10 -3 -13 -1 -8 6 3 6 -3 13 -14 17 -22 7 -27 30 -7 39 9 5 9 7 -1 12 -10
5 -10 9 -1 20 13 16 4 17 -28 4z m-7 -103 c4 -4 -5 -7 -20 -7 -15 0 -25 4 -22
9 7 10 31 9 42 -2z"/>
<path d="M7420 5925 c0 -8 5 -15 10 -15 6 0 10 7 10 15 0 8 -4 15 -10 15 -5 0
-10 -7 -10 -15z"/>
<path d="M3715 5900 c-11 -17 9 -40 25 -30 13 8 12 10 -2 10 -11 0 -15 5 -12
15 7 17 -1 20 -11 5z"/>
<path d="M7305 5899 c-4 -6 -5 -12 -2 -15 2 -3 7 2 10 11 7 17 1 20 -8 4z"/>
<path d="M3950 5891 c0 -6 5 -13 10 -16 6 -3 10 1 10 9 0 9 -4 16 -10 16 -5 0
-10 -4 -10 -9z"/>
<path d="M4965 5890 c-3 -5 -2 -10 4 -10 5 0 13 5 16 10 3 6 2 10 -4 10 -5 0
-13 -4 -16 -10z"/>
<path d="M7135 5890 c-3 -5 -1 -10 4 -10 6 0 11 5 11 10 0 6 -2 10 -4 10 -3 0
-8 -4 -11 -10z"/>
<path d="M4907 5869 c13 -13 26 -18 34 -14 9 6 7 11 -6 22 -11 7 -26 13 -34
13 -12 0 -11 -5 6 -21z"/>
<path d="M7105 5870 c3 -5 8 -10 11 -10 2 0 4 5 4 10 0 6 -5 10 -11 10 -5 0
-7 -4 -4 -10z"/>
<path d="M3670 5840 c0 -5 5 -10 11 -10 5 0 7 5 4 10 -3 6 -8 10 -11 10 -2 0
-4 -4 -4 -10z"/>
<path d="M7280 5790 c0 -5 5 -10 11 -10 5 0 7 5 4 10 -3 6 -8 10 -11 10 -2 0
-4 -4 -4 -10z"/>
<path d="M7196 5759 c2 -4 -2 -9 -8 -12 -7 -2 -10 -7 -6 -11 7 -8 48 14 48 26
0 4 -9 6 -19 5 -11 0 -18 -4 -15 -8z"/>
<path d="M1955 5742 c-9 -6 -12 -15 -18 -45 -1 -5 8 -13 21 -18 22 -8 23 -7
16 29 -8 44 -7 43 -19 34z"/>
<path d="M1446 5732 c-2 -4 -1 -14 4 -22 7 -11 11 -11 24 2 14 15 14 17 0 22
-20 8 -22 8 -28 -2z"/>
<path d="M5250 5721 c0 -11 4 -21 9 -21 18 0 21 18 6 30 -13 10 -15 9 -15 -9z"/>
<path d="M1590 5721 c0 -6 4 -13 10 -16 6 -3 7 1 4 9 -7 18 -14 21 -14 7z"/>
<path d="M5595 5720 c-16 -7 -17 -9 -3 -9 9 -1 20 4 23 9 7 11 7 11 -20 0z"/>
<path d="M7350 5720 c0 -5 5 -10 11 -10 5 0 7 5 4 10 -3 6 -8 10 -11 10 -2 0
-4 -4 -4 -10z"/>
<path d="M7286 5678 c-3 -17 -9 -28 -12 -25 -8 7 -28 -12 -37 -35 -4 -11 -2
-18 6 -18 7 0 28 -11 47 -24 l35 -23 18 29 c10 17 17 31 15 32 -27 12 -43 27
-42 40 1 9 -3 16 -8 16 -6 0 -6 5 1 14 9 10 8 15 -3 19 -9 4 -16 -4 -20 -25z
m4 -68 c0 -5 -5 -10 -11 -10 -5 0 -7 5 -4 10 3 6 8 10 11 10 2 0 4 -4 4 -10z"/>
<path d="M3900 5690 c-17 -11 -8 -23 14 -18 9 2 12 8 8 15 -5 8 -13 9 -22 3z"/>
<path d="M1474 5675 c-3 -8 -4 -20 -1 -27 3 -7 6 -3 6 10 1 23 20 29 37 12 7
-7 11 -6 11 5 0 20 -46 20 -53 0z"/>
<path d="M3836 5673 c-3 -8 -4 -19 -1 -24 4 -5 0 -6 -8 -3 -8 3 -19 -2 -26
-10 -13 -16 -7 -36 10 -36 6 0 7 4 4 10 -3 6 1 7 10 3 11 -4 13 -8 5 -13 -7
-4 -2 -13 15 -24 15 -10 27 -16 28 -14 1 2 7 12 13 24 10 17 9 22 -7 32 -13 8
-18 20 -15 36 5 28 -19 44 -28 19z"/>
<path d="M3940 5680 c0 -5 5 -10 11 -10 5 0 7 5 4 10 -3 6 -8 10 -11 10 -2 0
-4 -4 -4 -10z"/>
<path d="M3741 5673 c0 -5 5 -17 10 -28 9 -19 9 -19 5 2 -2 12 1 24 8 27 6 2
3 5 -6 5 -10 1 -18 -2 -17 -6z"/>
<path d="M5100 5650 c-12 -8 -10 -9 7 -7 12 2 26 6 29 10 11 11 -19 8 -36 -3z"/>
<path d="M7130 5642 c0 -10 -5 -23 -11 -29 -8 -8 3 -9 38 -6 26 3 49 7 51 8 2
1 -15 12 -38 24 -37 19 -40 19 -40 3z"/>
<path d="M3699 5645 c-1 -3 -2 -8 -3 -12 -1 -5 -5 -14 -10 -21 -6 -11 0 -12
31 -6 21 4 39 7 40 8 1 1 -12 9 -28 18 -16 9 -30 15 -30 13z"/>
<path d="M1357 5609 c13 -13 26 -18 34 -14 9 6 7 11 -6 22 -11 7 -26 13 -34
13 -12 0 -11 -5 6 -21z"/>
<path d="M5394 5565 c-3 -8 -3 -19 1 -25 9 -14 -18 -13 -35 3 -8 6 -7 3 3 -9
20 -24 87 -28 95 -6 2 6 -3 12 -10 12 -8 0 -23 7 -34 16 -17 14 -17 15 -1 10
11 -3 16 -2 12 4 -9 15 -25 12 -31 -5z"/>
<path d="M3627 5543 c-4 -7 -3 -14 3 -18 6 -4 8 -11 5 -16 -3 -5 1 -6 10 -2 9
3 12 9 7 12 -5 3 -11 13 -14 21 -3 10 -6 11 -11 3z"/>
<path d="M5257 5543 c-4 -3 -7 -23 -7 -43 0 -46 -8 -55 -32 -33 -17 15 -18 15
-18 -5 0 -12 -5 -21 -12 -19 -6 1 -16 -11 -22 -28 -6 -16 -15 -33 -21 -38 -6
-4 -3 -11 8 -18 9 -6 15 -14 12 -19 -3 -4 2 -10 10 -14 10 -3 15 -19 15 -42
l0 -37 19 25 c11 13 36 33 58 43 75 39 103 78 66 92 -38 15 -45 31 -23 53 20
20 19 47 -1 35 -5 -4 -9 -2 -9 4 0 5 5 13 11 16 5 4 8 12 6 18 -4 12 -50 20
-60 10z m5 -165 c-2 -10 -7 -18 -11 -18 -3 0 -11 8 -17 18 -9 14 -7 17 11 17
16 0 21 -5 17 -17z"/>
<path d="M7051 5541 c-8 -6 -11 -16 -6 -31 5 -15 4 -20 -4 -16 -6 4 -11 2 -11
-3 0 -15 21 -13 44 4 18 14 18 15 2 15 -13 0 -16 5 -11 20 7 22 6 23 -14 11z"/>
<path d="M3860 5531 c0 -6 5 -13 10 -16 6 -3 10 1 10 9 0 9 -4 16 -10 16 -5 0
-10 -4 -10 -9z"/>
<path d="M5064 5532 l-21 -7 22 -48 c23 -48 23 -48 27 -18 3 21 0 32 -11 37
-12 5 -6 11 24 25 39 18 39 18 10 18 -16 -1 -39 -4 -51 -7z"/>
<path d="M5487 5533 c-3 -5 -2 -15 2 -22 5 -7 11 -9 14 -4 3 5 2 15 -2 22 -5
7 -11 9 -14 4z"/>
<path d="M5586 5525 c4 -8 8 -15 10 -15 2 0 4 7 4 15 0 8 -4 15 -10 15 -5 0
-7 -7 -4 -15z"/>
<path d="M7310 5521 c0 -6 5 -13 10 -16 6 -3 10 1 10 9 0 9 -4 16 -10 16 -5 0
-10 -4 -10 -9z"/>
<path d="M2037 5509 c7 -7 15 -10 18 -7 3 3 -2 9 -12 12 -14 6 -15 5 -6 -5z"/>
<path d="M7100 5495 c0 -8 2 -15 4 -15 2 0 6 7 10 15 3 8 1 15 -4 15 -6 0 -10
-7 -10 -15z"/>
<path d="M7191 5484 c0 -11 3 -14 6 -6 3 7 2 16 -1 19 -3 4 -6 -2 -5 -13z"/>
<path d="M1996 5474 c-5 -13 -3 -14 6 -7 7 6 20 13 28 16 10 4 8 6 -6 6 -12 1
-25 -6 -28 -15z"/>
<path d="M3580 5480 c0 -5 5 -10 11 -10 5 0 7 5 4 10 -3 6 -8 10 -11 10 -2 0
-4 -4 -4 -10z"/>
<path d="M5526 5479 c6 -10 -73 -69 -91 -69 -7 0 -15 -6 -18 -14 -5 -11 1 -12
30 -4 33 9 64 7 133 -9 l25 -6 -22 25 c-13 13 -25 38 -29 54 -3 17 -12 31 -19
31 -8 0 -12 -4 -9 -8z"/>
<path d="M7180 5449 c0 -5 5 -7 10 -4 6 3 10 8 10 11 0 2 -4 4 -10 4 -5 0 -10
-5 -10 -11z"/>
<path d="M5128 5403 c7 -3 16 -2 19 1 4 3 -2 6 -13 5 -11 0 -14 -3 -6 -6z"/>
<path d="M1995 5380 c3 -5 8 -10 11 -10 2 0 4 5 4 10 0 6 -5 10 -11 10 -5 0
-7 -4 -4 -10z"/>
<path d="M7084 5363 c3 -4 1 -12 -5 -20 -9 -10 -8 -13 4 -13 8 0 20 6 26 14 9
11 7 15 -10 19 -11 3 -18 3 -15 0z"/>
<path d="M5026 5333 c-6 -14 -5 -15 5 -6 7 7 10 15 7 18 -3 3 -9 -2 -12 -12z"/>
<path d="M3813 5325 c0 -8 7 -15 15 -15 7 0 12 5 10 12 -6 18 -25 21 -25 3z"/>
<path d="M3850 5331 c0 -5 5 -13 10 -16 6 -3 10 -2 10 4 0 5 -4 13 -10 16 -5
3 -10 2 -10 -4z"/>
<path d="M1838 5313 c-21 -5 -23 -19 -5 -26 7 -4 6 -6 -5 -6 -9 -1 -18 5 -21
12 -2 6 -8 9 -13 4 -11 -11 34 -40 67 -42 35 -3 45 19 19 45 -11 11 -21 19
-22 19 -2 -1 -11 -3 -20 -6z"/>
<path d="M1920 5293 c0 -17 4 -34 9 -38 16 -10 19 9 5 40 l-13 30 -1 -32z"/>
<path d="M3657 5300 c3 -11 7 -20 8 -20 1 0 5 9 8 20 3 12 0 20 -8 20 -8 0
-11 -8 -8 -20z"/>
<path d="M7176 5278 c-3 -17 -9 -28 -13 -25 -3 4 -14 -5 -24 -20 l-18 -27 52
-26 52 -26 11 26 c10 22 8 27 -12 38 -20 10 -23 19 -19 46 5 46 -20 57 -29 14z"/>
<path d="M7260 5291 c0 -5 5 -13 10 -16 6 -3 10 -2 10 4 0 5 -4 13 -10 16 -5
3 -10 2 -10 -4z"/>
<path d="M1518 5283 c-31 -5 -32 -6 -18 -31 5 -9 15 -30 22 -47 l12 -30 4 29
c2 17 -2 32 -9 37 -16 10 -12 14 31 33 30 13 32 15 10 14 -14 0 -37 -3 -52 -5z"/>
<path d="M3601 5267 c-5 -12 -8 -22 -7 -23 5 -4 76 10 76 15 0 4 -14 12 -31
18 -27 11 -31 10 -38 -10z"/>
<path d="M5245 5260 c-4 -6 -1 -25 5 -44 6 -18 8 -40 4 -49 -4 -12 -1 -17 10
-17 9 0 16 8 16 20 0 17 4 19 26 14 20 -5 25 -3 22 7 -3 8 -18 14 -36 14 -19
0 -32 5 -32 12 0 7 7 13 15 13 8 0 15 5 15 11 0 6 -9 9 -19 6 -14 -3 -18 -1
-14 9 6 16 -3 19 -12 4z"/>
<path d="M5750 5235 c-8 -22 -8 -30 2 -37 28 -17 37 -9 28 23 -13 44 -18 46
-30 14z"/>
<path d="M7023 5220 l-10 -27 46 5 c25 2 47 6 49 7 2 1 -15 12 -36 23 l-38 20
-11 -28z"/>
<path d="M5368 5193 c7 -3 16 -2 19 1 4 3 -2 6 -13 5 -11 0 -14 -3 -6 -6z"/>
<path d="M3535 5180 c-3 -5 -2 -10 4 -10 5 0 13 5 16 10 3 6 2 10 -4 10 -5 0
-13 -4 -16 -10z"/>
<path d="M1580 5160 c-9 -6 -10 -10 -3 -10 6 0 15 5 18 10 8 12 4 12 -15 0z"/>
<path d="M3548 5153 c7 -3 16 -2 19 1 4 3 -2 6 -13 5 -11 0 -14 -3 -6 -6z"/>
<path d="M5206 5144 c-6 -16 2 -18 22 -5 11 7 11 9 -1 14 -9 3 -18 -1 -21 -9z"/>
<path d="M6950 5119 c0 -18 2 -19 15 -9 15 12 12 30 -6 30 -5 0 -9 -10 -9 -21z"/>
<path d="M7220 5115 c0 -8 4 -15 10 -15 5 0 7 7 4 15 -4 8 -8 15 -10 15 -2 0
-4 -7 -4 -15z"/>
<path d="M6952 5090 c-30 -28 -28 -30 12 -11 18 9 32 19 29 24 -7 12 -18 8
-41 -13z"/>
<path d="M7010 5085 c0 -8 2 -15 4 -15 2 0 6 7 10 15 3 8 1 15 -4 15 -6 0 -10
-7 -10 -15z"/>
<path d="M7096 5074 c-4 -14 -5 -28 -3 -31 3 -2 8 8 11 23 4 14 5 28 3 31 -3
2 -8 -8 -11 -23z"/>
<path d="M6900 5060 c0 -5 5 -10 11 -10 5 0 7 5 4 10 -3 6 -8 10 -11 10 -2 0
-4 -4 -4 -10z"/>
<path d="M3717 4975 c-4 -9 -1 -18 9 -22 22 -8 30 5 12 23 -14 14 -16 14 -21
-1z"/>
<path d="M5497 4974 c3 -7 9 -14 14 -14 14 0 10 17 -5 23 -10 4 -13 1 -9 -9z"/>
<path d="M7080 4980 c0 -5 5 -10 11 -10 5 0 7 5 4 10 -3 6 -8 10 -11 10 -2 0
-4 -4 -4 -10z"/>
<path d="M7025 4971 c6 -10 4 -13 -6 -9 -9 4 -19 -4 -26 -18 -13 -29 -6 -30
27 -4 21 16 23 21 11 32 -12 11 -13 11 -6 -1z"/>
<path d="M3570 4960 c-8 -5 -10 -10 -5 -10 6 0 17 5 25 10 8 5 11 10 5 10 -5
0 -17 -5 -25 -10z"/>
<path d="M3655 4949 c-4 -11 -9 -18 -12 -15 -6 6 -32 -23 -33 -36 0 -5 7 -8
15 -8 8 0 15 -4 15 -8 0 -5 11 -14 25 -20 21 -10 24 -17 19 -37 -4 -16 -2 -25
6 -25 6 0 10 6 7 13 -2 6 2 27 9 46 17 41 18 38 -6 44 -15 4 -18 12 -15 36 4
36 -19 44 -30 10z"/>
<path d="M3765 4960 c3 -5 8 -10 11 -10 2 0 4 5 4 10 0 6 -5 10 -11 10 -5 0
-7 -4 -4 -10z"/>
<path d="M5358 4913 c-10 -2 -18 -8 -18 -13 0 -4 9 -6 20 -3 11 3 20 9 20 14
0 5 -1 8 -2 8 -2 -1 -11 -3 -20 -6z"/>
<path d="M7150 4910 c0 -5 5 -10 11 -10 5 0 7 5 4 10 -3 6 -8 10 -11 10 -2 0
-4 -4 -4 -10z"/>
<path d="M7084 4865 c-3 -13 -10 -23 -16 -22 -5 1 -15 -7 -21 -18 -7 -11 -16
-23 -22 -27 -5 -4 -1 -8 10 -8 11 0 37 -11 57 -25 44 -30 48 -30 48 -7 0 10 5
23 10 28 7 7 3 15 -14 24 -20 10 -24 19 -20 46 5 41 -22 49 -32 9z m1 -73 c-3
-3 -11 0 -18 7 -9 10 -8 11 6 5 10 -3 15 -9 12 -12z"/>
<path d="M7165 4880 c-3 -5 1 -10 9 -10 9 0 16 5 16 10 0 6 -4 10 -9 10 -6 0
-13 -4 -16 -10z"/>
<path d="M3447 4833 c-4 -3 -7 -11 -7 -17 0 -6 5 -5 12 2 6 6 9 14 7 17 -3 3
-9 2 -12 -2z"/>
<path d="M5650 4825 c7 -9 15 -13 17 -11 7 7 -7 26 -19 26 -6 0 -6 -6 2 -15z"/>
<path d="M6930 4827 c0 -9 -3 -22 -6 -31 -5 -13 0 -13 30 -5 20 6 41 7 46 4 6
-3 10 -3 10 2 0 7 -26 22 -67 40 -7 3 -13 -2 -13 -10z"/>
<path d="M5725 4820 c-3 -5 -1 -10 4 -10 6 0 11 5 11 10 0 6 -2 10 -4 10 -3 0
-8 -4 -11 -10z"/>
<path d="M5635 4801 c6 -20 5 -23 -11 -17 -17 6 -16 5 1 -14 11 -12 21 -17 23
-11 2 7 10 8 21 1 21 -11 31 -4 31 22 0 12 -7 18 -23 18 -13 0 -29 6 -36 13
-11 10 -12 8 -6 -12z"/>
<path d="M3455 4800 c-3 -6 1 -7 9 -4 18 7 21 14 7 14 -6 0 -13 -4 -16 -10z"/>
<path d="M5505 4801 c-2 -3 -6 -23 -10 -44 -9 -46 -18 -52 -41 -30 -17 17 -17
17 -11 -9 6 -22 4 -26 -8 -22 -10 4 -15 2 -13 -7 2 -8 -2 -13 -9 -12 -12 3
-12 -14 0 -34 6 -9 2 -13 -10 -13 -16 -1 -16 -2 -2 -13 31 -24 51 -66 45 -93
l-7 -27 32 32 c17 17 45 39 63 47 46 24 65 44 59 62 -4 14 -3 14 5 3 9 -12 21
-13 82 -2 64 12 110 10 162 -5 11 -3 7 6 -13 27 -19 20 -29 42 -29 61 0 24 -3
28 -13 19 -8 -6 -18 -7 -22 -3 -5 4 -5 2 -1 -5 7 -12 -35 -46 -78 -63 -14 -5
-26 -14 -26 -20 0 -16 -27 -12 -73 11 -23 12 -44 23 -45 24 -8 7 10 45 19 40
5 -4 9 4 9 16 0 18 -2 19 -15 9 -8 -7 -15 -8 -15 -2 0 5 7 15 15 22 8 7 15 16
15 20 0 9 -59 19 -65 11z m11 -123 c-3 -7 -7 -25 -10 -40 -7 -29 -26 -39 -26
-13 0 8 5 15 10 15 6 0 10 8 10 18 0 10 3 22 7 25 10 10 13 8 9 -5z m-52 -46
c3 -5 -1 -9 -9 -9 -8 0 -12 4 -9 9 3 4 7 8 9 8 2 0 6 -4 9 -8z"/>
<path d="M5325 4786 c-27 -8 -36 -14 -27 -20 7 -4 19 -3 27 4 8 6 18 9 22 7 5
-3 17 1 28 9 23 17 6 17 -50 0z"/>
<path d="M5720 4792 c0 -5 7 -16 16 -23 14 -12 16 -11 13 5 -4 20 -29 35 -29
18z"/>
<path d="M5830 4780 c0 -5 5 -10 11 -10 5 0 7 5 4 10 -3 6 -8 10 -11 10 -2 0
-4 -4 -4 -10z"/>
<path d="M6855 4703 c8 -35 9 -35 29 -27 20 8 21 24 1 24 -9 0 -12 6 -9 15 4
10 0 15 -11 15 -14 0 -16 -6 -10 -27z"/>
<path d="M5325 4711 c-3 -5 -1 -12 5 -16 5 -3 10 1 10 9 0 18 -6 21 -15 7z"/>
<path d="M7120 4705 c0 -8 5 -15 10 -15 6 0 10 7 10 15 0 8 -4 15 -10 15 -5 0
-10 -7 -10 -15z"/>
<path d="M6910 4679 c0 -5 5 -7 10 -4 6 3 10 8 10 11 0 2 -4 4 -10 4 -5 0 -10
-5 -10 -11z"/>
<path d="M7001 4674 c0 -11 3 -14 6 -6 3 7 2 16 -1 19 -3 4 -6 -2 -5 -13z"/>
<path d="M5375 4660 c-3 -5 -1 -10 4 -10 6 0 11 5 11 10 0 6 -2 10 -4 10 -3 0
-8 -4 -11 -10z"/>
<path d="M6805 4650 c3 -5 8 -10 11 -10 2 0 4 5 4 10 0 6 -5 10 -11 10 -5 0
-7 -4 -4 -10z"/>
<path d="M6990 4641 c0 -6 4 -13 10 -16 6 -3 7 1 4 9 -7 18 -14 21 -14 7z"/>
<path d="M3630 4621 c0 -7 -6 -9 -12 -5 -10 5 -10 4 -2 -5 7 -7 20 -11 29 -9
17 3 17 4 2 17 -12 9 -17 10 -17 2z"/>
<path d="M3670 4610 c0 -5 5 -10 11 -10 5 0 7 5 4 10 -3 6 -8 10 -11 10 -2 0
-4 -4 -4 -10z"/>
<path d="M3470 4600 c0 -5 7 -7 15 -4 8 4 15 8 15 10 0 2 -7 4 -15 4 -8 0 -15
-4 -15 -10z"/>
<path d="M3565 4600 c-3 -5 -3 -15 1 -22 5 -7 2 -9 -9 -5 -18 7 -42 -17 -32
-33 4 -6 16 -8 28 -5 16 5 18 4 8 -3 -11 -8 -8 -13 12 -27 22 -14 25 -21 16
-36 -6 -13 -6 -19 1 -19 5 0 10 7 10 15 0 27 1 30 15 51 12 19 12 22 -9 32
-18 8 -22 16 -19 36 5 26 -10 36 -22 16z"/>
<path d="M5283 4585 c0 -8 4 -12 9 -9 5 3 6 10 3 15 -9 13 -12 11 -12 -6z"/>
<path d="M3420 4576 c0 -8 -2 -21 -5 -28 -4 -11 3 -13 32 -10 34 4 35 6 17 18
-10 7 -25 18 -31 24 -10 8 -13 7 -13 -4z"/>
<path d="M6980 4570 c0 -5 5 -10 10 -10 6 0 10 5 10 10 0 6 -4 10 -10 10 -5 0
-10 -4 -10 -10z"/>
<path d="M6903 4550 c-3 -11 -10 -20 -15 -20 -5 0 -6 -4 -3 -10 4 -6 13 -5 25
2 26 17 32 35 13 42 -9 4 -17 -1 -20 -14z"/>
<path d="M5495 4511 c-3 -5 0 -22 6 -38 8 -20 13 -24 17 -13 3 8 12 20 21 27
9 6 12 15 8 19 -12 12 -45 15 -52 5z"/>
<path d="M6015 4512 c-5 -4 -11 -19 -13 -33 -2 -20 3 -28 18 -32 14 -4 20 0
19 11 -2 34 -14 61 -24 54z"/>
<path d="M7050 4500 c0 -5 5 -10 11 -10 6 0 9 -7 5 -15 -4 -10 1 -15 16 -15
21 0 21 0 -2 25 -26 28 -30 30 -30 15z"/>
<path d="M5380 4480 c0 -5 5 -10 11 -10 5 0 7 5 4 10 -3 6 -8 10 -11 10 -2 0
-4 -4 -4 -10z"/>
<path d="M6989 4467 c-1 -12 -1 -26 0 -30 1 -5 -3 -6 -9 -2 -11 7 -40 -17 -40
-34 0 -6 6 -11 14 -11 8 0 16 -4 18 -8 2 -4 18 -18 36 -31 31 -22 32 -22 32
-2 0 11 5 23 10 26 6 3 10 11 10 17 0 6 -3 8 -7 5 -3 -4 -15 0 -25 9 -14 13
-15 20 -7 31 9 10 8 13 -1 13 -9 0 -10 3 -1 14 9 11 7 15 -9 19 -15 4 -20 0
-21 -16z m6 -77 c3 -5 1 -10 -4 -10 -6 0 -11 5 -11 10 0 6 2 10 4 10 3 0 8 -4
11 -10z"/>
<path d="M3350 4469 c0 -5 5 -7 10 -4 6 3 10 8 10 11 0 2 -4 4 -10 4 -5 0 -10
-5 -10 -11z"/>
<path d="M7110 4470 c0 -5 5 -10 11 -10 5 0 7 5 4 10 -3 6 -8 10 -11 10 -2 0
-4 -4 -4 -10z"/>
<path d="M5521 4439 c-8 -23 -7 -29 5 -29 7 0 14 9 14 20 0 18 3 19 20 10 16
-8 20 -8 20 3 0 8 -11 17 -25 19 -19 4 -26 0 -34 -23z"/>
<path d="M5610 4450 c0 -5 7 -10 16 -10 8 0 12 5 9 10 -3 6 -10 10 -16 10 -5
0 -9 -4 -9 -10z"/>
<path d="M3355 4440 c-3 -6 1 -7 9 -4 18 7 21 14 7 14 -6 0 -13 -4 -16 -10z"/>
<path d="M6827 4412 c-3 -15 -5 -28 -4 -28 1 -1 19 4 39 10 l37 11 -34 17 -33
17 -5 -27z"/>
<path d="M5612 4418 c2 -6 10 -13 16 -14 7 -1 8 0 2 3 -5 2 -8 9 -4 14 3 5 0
9 -6 9 -7 0 -10 -5 -8 -12z"/>
<path d="M5778 4423 c7 -3 16 -2 19 1 4 3 -2 6 -13 5 -11 0 -14 -3 -6 -6z"/>
<path d="M3305 4410 c3 -5 8 -10 11 -10 2 0 4 5 4 10 0 6 -5 10 -11 10 -5 0
-7 -4 -4 -10z"/>
<path d="M5490 4410 c0 -5 -5 -9 -11 -7 -6 1 -14 -4 -16 -11 -4 -11 -1 -12 16
-3 19 10 29 31 16 31 -3 0 -5 -4 -5 -10z"/>
<path d="M5761 4354 c0 -11 3 -14 6 -6 3 7 2 16 -1 19 -3 4 -6 -2 -5 -13z"/>
<path d="M3615 4340 c3 -5 8 -10 11 -10 2 0 4 5 4 10 0 6 -5 10 -11 10 -5 0
-7 -4 -4 -10z"/>
<path d="M6747 4324 c-3 -4 -2 -14 3 -24 5 -10 6 -20 3 -24 -8 -8 1 -8 21 0 9
3 16 11 16 16 0 6 -7 7 -16 4 -12 -4 -14 -1 -9 14 6 19 -5 27 -18 14z"/>
<path d="M7020 4305 c0 -8 4 -15 10 -15 5 0 7 7 4 15 -4 8 -8 15 -10 15 -2 0
-4 -7 -4 -15z"/>
<path d="M6811 4274 c0 -11 3 -14 6 -6 3 7 2 16 -1 19 -3 4 -6 -2 -5 -13z"/>
<path d="M6890 4268 c0 -12 1 -19 3 -17 1 2 9 12 16 22 12 14 11 17 -3 17 -10
0 -16 -8 -16 -22z"/>
<path d="M3530 4256 c0 -9 7 -16 16 -16 9 0 14 5 12 12 -6 18 -28 21 -28 4z"/>
<path d="M3384 4252 c-6 -4 -8 -16 -4 -27 6 -17 7 -16 12 8 3 15 5 27 4 27 0
0 -6 -4 -12 -8z"/>
<path d="M3575 4250 c3 -5 8 -10 11 -10 2 0 4 5 4 10 0 6 -5 10 -11 10 -5 0
-7 -4 -4 -10z"/>
<path d="M5750 4231 c0 -12 6 -21 15 -21 8 0 15 4 15 9 0 5 -7 14 -15 21 -13
10 -15 9 -15 -9z"/>
<path d="M6097 4230 c-16 -10 -24 -20 -19 -24 5 -3 20 6 32 19 27 29 25 30
-13 5z"/>
<path d="M3318 4202 c-5 -17 -1 -20 33 -18 41 1 51 10 22 19 -10 2 -25 8 -34
11 -11 5 -18 1 -21 -12z"/>
<path d="M5587 4171 c4 -15 1 -21 -12 -21 -21 0 -14 -24 8 -28 11 -2 17 3 17
13 0 11 5 15 14 12 17 -7 36 11 35 33 0 10 -2 11 -6 3 -6 -16 -35 -17 -50 -2
-9 9 -10 7 -6 -10z"/>
<path d="M6797 4173 c-2 -5 -3 -15 -2 -23 0 -8 -4 -18 -9 -22 -6 -4 -7 -11 -2
-15 5 -4 11 -2 13 5 3 6 11 12 18 12 7 0 15 6 18 14 3 8 -1 13 -11 12 -9 0
-16 5 -14 12 2 13 -5 17 -11 5z"/>
<path d="M6880 4170 c0 -5 5 -10 11 -10 5 0 7 5 4 10 -3 6 -8 10 -11 10 -2 0
-4 -4 -4 -10z"/>
<path d="M7055 4170 c3 -5 8 -10 11 -10 2 0 4 5 4 10 0 6 -5 10 -11 10 -5 0
-7 -4 -4 -10z"/>
<path d="M5633 4123 c-7 -3 -13 -9 -13 -14 0 -4 7 -6 15 -3 11 5 14 2 9 -12
-5 -15 -4 -16 6 -7 15 13 1 42 -17 36z"/>
<path d="M3240 4109 c0 -5 5 -7 10 -4 6 3 10 8 10 11 0 2 -4 4 -10 4 -5 0 -10
-5 -10 -11z"/>
<path d="M3255 4090 c-3 -6 1 -7 9 -4 18 7 21 14 7 14 -6 0 -13 -4 -16 -10z"/>
<path d="M5872 4088 c-16 -16 -15 -28 3 -28 8 0 15 -5 15 -11 0 -6 -9 -8 -22
-3 -22 6 -22 6 2 -13 32 -25 76 -28 84 -6 7 18 -9 33 -37 33 -10 0 -15 5 -12
10 4 6 12 7 18 3 7 -4 6 0 -2 10 -16 20 -32 22 -49 5z"/>
<path d="M6950 4089 c0 -5 6 -7 13 -3 8 5 8 2 -2 -9 -12 -15 -11 -17 8 -17 24
0 27 10 9 28 -15 15 -28 15 -28 1z"/>
<path d="M5980 4059 c0 -15 7 -32 15 -39 19 -16 19 0 0 36 l-15 29 0 -26z"/>
<path d="M6882 4050 c4 -24 2 -27 -9 -18 -10 8 -17 7 -28 -8 -18 -24 -19 -44
-2 -44 7 0 30 -12 51 -26 27 -19 35 -29 26 -34 -8 -5 -10 -15 -5 -26 8 -17 9
-17 12 4 3 12 9 19 15 16 7 -4 6 0 -1 13 -7 15 -6 25 5 41 14 20 13 23 -11 34
-22 10 -25 16 -20 45 4 29 2 33 -16 33 -18 0 -21 -5 -17 -30z"/>
<path d="M7005 4070 c3 -5 8 -10 11 -10 2 0 4 5 4 10 0 6 -5 10 -11 10 -5 0
-7 -4 -4 -10z"/>
<path d="M5435 4060 c-3 -5 1 -10 10 -10 9 0 13 5 10 10 -3 6 -8 10 -10 10 -2
0 -7 -4 -10 -10z"/>
<path d="M5763 4063 c-7 -3 -13 -21 -13 -41 0 -54 -13 -70 -34 -41 l-16 23 0
-25 c0 -14 6 -31 13 -39 10 -12 9 -12 -4 -2 -12 9 -19 9 -32 -1 -26 -20 -24
-51 6 -87 21 -24 28 -41 25 -62 -5 -29 8 -39 18 -14 7 18 88 76 107 76 24 0
39 24 24 39 -9 10 -8 11 6 6 35 -14 16 4 -28 25 -39 19 -43 24 -35 41 6 10 15
19 20 19 6 0 10 5 10 10 0 6 -7 10 -15 10 -20 0 -19 17 2 28 14 8 12 12 -13
24 -16 9 -35 13 -41 11z m-10 -166 c4 3 7 -1 7 -10 0 -24 -13 -21 -29 6 -13
19 -12 21 1 10 8 -7 18 -10 21 -6z m-56 -13 c-3 -3 -12 -4 -19 -1 -8 3 -5 6 6
6 11 1 17 -2 13 -5z"/>
<path d="M6101 4044 c0 -11 3 -14 6 -6 3 7 2 16 -1 19 -3 4 -6 -2 -5 -13z"/>
<path d="M5600 4040 c0 -13 11 -13 30 0 12 8 11 10 -7 10 -13 0 -23 -4 -23
-10z"/>
<path d="M6723 4004 c-11 -24 -11 -26 10 -20 12 3 36 6 52 6 l30 1 -35 19
c-45 24 -43 25 -57 -6z"/>
<path d="M6050 4005 c-7 -8 -17 -12 -23 -8 -6 4 -8 0 -5 -9 4 -10 -13 -26 -54
-52 -33 -20 -58 -39 -56 -41 2 -2 24 1 48 6 25 6 69 8 98 5 l53 -6 -20 21
c-22 24 -36 72 -26 89 9 15 -1 12 -15 -5z"/>
<path d="M6120 3969 c0 -5 5 -7 10 -4 6 3 10 8 10 11 0 2 -4 4 -10 4 -5 0 -10
-5 -10 -11z"/>
<path d="M5580 3961 c0 -5 5 -13 10 -16 6 -3 10 -2 10 4 0 5 -4 13 -10 16 -5
3 -10 2 -10 -4z"/>
<path d="M3430 3911 c0 -7 -6 -9 -12 -5 -10 5 -10 4 -2 -5 7 -7 20 -11 29 -9
17 3 17 4 2 17 -12 9 -17 10 -17 2z"/>
<path d="M5630 3909 c0 -5 5 -7 10 -4 6 3 10 8 10 11 0 2 -4 4 -10 4 -5 0 -10
-5 -10 -11z"/>
<path d="M6646 3894 c5 -19 4 -25 -5 -20 -6 4 -11 2 -11 -3 0 -15 21 -13 44 4
18 14 19 15 2 15 -12 0 -16 5 -12 15 3 9 0 15 -10 15 -11 0 -13 -7 -8 -26z"/>
<path d="M3270 3883 c0 -10 4 -14 8 -8 4 6 11 13 16 18 5 4 2 7 -7 7 -10 0
-17 -8 -17 -17z"/>
<path d="M3363 3880 c-3 -11 -10 -17 -15 -14 -11 7 -28 -13 -28 -32 0 -6 18
-23 40 -38 36 -23 40 -24 40 -8 0 10 5 23 11 29 8 8 6 14 -9 22 -14 7 -18 17
-15 36 6 30 -16 35 -24 5z m4 -56 c-3 -3 -12 -4 -19 -1 -8 3 -5 6 6 6 11 1 17
-2 13 -5z"/>
<path d="M6705 3879 c-4 -6 -5 -12 -2 -15 2 -3 7 2 10 11 7 17 1 20 -8 4z"/>
<path d="M6796 3875 c-18 -18 -22 -55 -5 -55 6 0 8 8 4 19 -4 13 0 23 12 30
10 5 15 12 12 16 -4 3 -14 -1 -23 -10z"/>
<path d="M3217 3850 c-4 -17 0 -20 31 -20 28 0 33 3 22 10 -42 29 -48 30 -53
10z"/>
<path d="M5772 3768 c-7 -7 -8 -17 -1 -29 9 -17 11 -17 29 -2 11 10 20 22 20
28 0 14 -35 16 -48 3z"/>
<path d="M6281 3756 c-12 -31 -7 -46 15 -46 16 0 19 37 4 60 -7 11 -11 9 -19
-14z"/>
<path d="M6950 3764 c0 -8 5 -12 10 -9 6 4 8 11 5 16 -9 14 -15 11 -15 -7z"/>
<path d="M3135 3760 c-3 -5 -1 -10 4 -10 6 0 11 5 11 10 0 6 -2 10 -4 10 -3 0
-8 -4 -11 -10z"/>
<path d="M5565 3760 c-3 -5 -1 -10 4 -10 6 0 11 5 11 10 0 6 -2 10 -4 10 -3 0
-8 -4 -11 -10z"/>
<path d="M6730 3755 c-13 -16 -36 -20 -43 -7 -2 4 -3 2 -1 -4 1 -6 -3 -17 -9
-23 -8 -8 -7 -11 4 -11 8 0 28 14 44 30 16 17 26 30 23 30 -3 0 -11 -7 -18
-15z"/>
<path d="M3375 3750 c-3 -5 -1 -10 4 -10 6 0 11 5 11 10 0 6 -2 10 -4 10 -3 0
-8 -4 -11 -10z"/>
<path d="M5794 3708 c-4 -13 -14 -28 -23 -35 -13 -9 -11 -10 12 -6 18 4 27 12
27 24 0 22 11 24 29 7 10 -11 12 -9 9 7 -5 30 -44 32 -54 3z"/>
<path d="M5889 3715 c-6 -25 -1 -49 10 -53 9 -3 11 2 6 17 -4 13 -2 21 5 21 6
0 8 5 5 10 -6 10 -24 14 -26 5z"/>
<path d="M6001 3704 c0 -11 3 -14 6 -6 3 7 2 16 -1 19 -3 4 -6 -2 -5 -13z"/>
<path d="M6056 3695 c-19 -19 -29 -54 -24 -86 3 -23 3 -23 22 6 16 24 16 27 3
16 -15 -12 -17 -11 -17 5 0 10 10 28 22 41 24 26 19 43 -6 18z"/>
<path d="M6843 3697 c4 -10 7 -25 7 -32 0 -7 7 -12 15 -11 26 4 25 12 -2 37
-21 19 -25 20 -20 6z"/>
<path d="M6780 3659 c0 -22 -4 -30 -13 -26 -8 3 -21 -7 -30 -23 l-17 -28 42
-29 43 -29 21 32 22 32 -24 11 c-26 12 -31 26 -11 34 9 4 8 6 -2 6 -10 1 -11
4 -2 15 10 12 8 17 -8 26 -19 10 -21 8 -21 -21z m-3 -75 c-3 -3 -12 -4 -19 -1
-8 3 -5 6 6 6 11 1 17 -2 13 -5z"/>
<path d="M6605 3640 c0 -33 3 -40 20 -40 11 0 31 -3 45 -6 21 -6 20 -3 -10 18
-19 13 -36 34 -38 46 -6 37 -17 25 -17 -18z"/>
<path d="M5735 3660 c-3 -5 -1 -10 4 -10 6 0 11 5 11 10 0 6 -2 10 -4 10 -3 0
-8 -4 -11 -10z"/>
<path d="M6138 3613 c7 -3 16 -2 19 1 4 3 -2 6 -13 5 -11 0 -14 -3 -6 -6z"/>
<path d="M3312 3548 c3 -7 13 -15 22 -16 12 -3 17 1 14 10 -3 7 -13 15 -22 16
-12 3 -17 -1 -14 -10z"/>
<path d="M5835 3530 c-3 -5 1 -10 10 -10 9 0 13 5 10 10 -3 6 -8 10 -10 10 -2
0 -7 -4 -10 -10z"/>
<path d="M6479 3517 c-2 -17 -1 -20 7 -41 6 -16 4 -18 -9 -13 -11 4 -17 1 -17
-7 0 -9 7 -12 20 -9 11 3 20 9 20 14 0 5 7 9 16 9 8 0 12 5 9 11 -4 6 -13 8
-21 5 -8 -3 -14 -1 -14 4 0 6 5 10 10 10 15 0 12 17 -5 24 -8 3 -16 0 -16 -7z"/>
<path d="M3107 3500 c-5 -18 0 -20 36 -20 l42 0 -27 14 c-16 8 -32 17 -37 20
-5 3 -11 -3 -14 -14z"/>
<path d="M6350 3510 c-9 -6 -10 -10 -3 -10 6 0 15 5 18 10 8 12 4 12 -15 0z"/>
<path d="M6020 3491 c0 -12 6 -21 15 -21 8 0 15 4 15 9 0 5 -7 14 -15 21 -13
10 -15 9 -15 -9z"/>
<path d="M6375 3497 c-11 -7 -22 -13 -24 -14 -1 -1 0 -7 4 -13 4 -7 13 -4 26
11 28 32 26 35 -6 16z"/>
<path d="M6780 3495 c0 -8 5 -15 10 -15 6 0 10 7 10 15 0 8 -4 15 -10 15 -5 0
-10 -7 -10 -15z"/>
<path d="M5864 3423 c-7 -7 -20 -13 -28 -13 -9 0 -16 -4 -16 -10 0 -9 8 -12
26 -9 4 0 11 -5 15 -13 6 -9 9 -7 9 10 0 12 5 22 11 22 5 0 7 -6 3 -12 -4 -7
2 -4 14 6 12 11 22 22 22 25 0 12 -43 7 -56 -6z"/>
<path d="M5900 3379 c-13 -7 -12 -9 2 -9 9 0 19 -8 21 -17 4 -14 5 -13 6 4 1
26 -10 35 -29 22z"/>
<path d="M6155 3360 c-5 -8 -4 -11 3 -6 6 3 13 2 17 -4 6 -9 -6 -14 -30 -11
-17 2 -15 -36 2 -51 21 -17 73 -19 80 -2 7 19 -62 90 -72 74z m45 -34 c0 -2
-7 -7 -16 -10 -8 -3 -12 -2 -9 4 6 10 25 14 25 6z m-40 -16 c0 -5 -4 -10 -10
-10 -5 0 -10 5 -10 10 0 6 5 10 10 10 6 0 10 -4 10 -10z"/>
<path d="M6349 3305 c-19 -30 -39 -52 -46 -50 -7 2 -10 -1 -7 -8 4 -13 -73
-67 -96 -67 -7 0 -11 -2 -8 -5 3 -3 38 2 79 10 71 15 114 13 204 -12 19 -5 18
-4 -2 16 -13 12 -23 31 -23 42 0 11 -4 18 -9 14 -13 -7 -27 20 -36 68 -4 20
-10 39 -14 42 -4 2 -23 -20 -42 -50z"/>
<path d="M6826 3347 c3 -10 9 -15 12 -12 3 3 0 11 -7 18 -10 9 -11 8 -5 -6z"/>
<path d="M6625 3340 c3 -5 8 -10 11 -10 2 0 4 5 4 10 0 6 -5 10 -11 10 -5 0
-7 -4 -4 -10z"/>
<path d="M6029 3318 c0 -2 -2 -15 -4 -30 -2 -16 -7 -37 -10 -49 -7 -20 -7 -20
-27 -2 -21 18 -21 18 -16 -4 4 -13 2 -23 -2 -23 -15 0 -81 -42 -76 -48 3 -3
12 1 21 8 8 7 16 10 16 6 1 -3 2 -10 3 -14 0 -4 18 -24 39 -42 31 -29 37 -42
38 -75 l0 -40 17 25 c27 39 68 76 111 97 l39 20 -54 26 c-57 28 -63 37 -39 61
8 8 15 19 15 25 0 6 -7 8 -15 5 -20 -8 -19 13 1 24 24 13 8 32 -27 32 -16 0
-29 -1 -30 -2z m14 -128 c-3 -12 -8 -19 -11 -16 -5 6 5 36 12 36 2 0 2 -9 -1
-20z m-9 -45 c-4 -8 -10 -15 -15 -15 -5 0 -9 7 -9 15 0 8 7 15 15 15 9 0 12
-6 9 -15z m-39 -5 c3 -6 -1 -7 -9 -4 -18 7 -21 14 -7 14 6 0 13 -4 16 -10z"/>
<path d="M6255 3310 c-4 -7 0 -19 9 -28 13 -14 16 -14 16 -2 0 25 -16 44 -25
30z"/>
<path d="M6533 3308 c-13 -6 -23 -15 -23 -20 0 -13 13 -9 40 12 27 21 18 25
-17 8z"/>
<path d="M5875 3300 c3 -5 12 -7 20 -3 21 7 19 13 -6 13 -11 0 -18 -4 -14 -10z"/>
<path d="M6708 3263 c6 -2 9 -10 6 -15 -5 -7 -2 -8 7 -4 8 4 6 1 -4 -7 -16
-14 -16 -15 8 -19 15 -3 25 -1 25 7 0 14 -32 45 -46 44 -5 0 -3 -3 4 -6z"/>
<path d="M6633 3235 c-3 -9 -3 -24 0 -35 4 -16 2 -18 -11 -11 -18 10 -58 -21
-47 -38 3 -6 -2 -11 -12 -12 -15 0 -14 -3 7 -17 14 -9 43 -34 64 -57 22 -22
36 -32 33 -23 -7 20 11 78 23 78 5 0 10 -6 13 -12 2 -7 4 -1 4 13 0 19 -7 30
-23 38 -19 8 -22 16 -19 45 3 24 0 36 -11 40 -8 3 -17 -1 -21 -9z m2 -95 c3
-5 1 -10 -4 -10 -6 0 -11 5 -11 10 0 6 2 10 4 10 3 0 8 -4 11 -10z"/>
<path d="M6771 3234 c0 -11 3 -14 6 -6 3 7 2 16 -1 19 -3 4 -6 -2 -5 -13z"/>
<path d="M5855 3210 c3 -5 8 -10 11 -10 2 0 4 5 4 10 0 6 -5 10 -11 10 -5 0
-7 -4 -4 -10z"/>
<path d="M3196 3192 c-9 -14 9 -31 23 -23 7 5 10 14 7 20 -8 13 -23 14 -30 3z"/>
<path d="M3140 3184 c0 -5 -16 -27 -35 -49 l-35 -38 30 -19 c17 -10 33 -25 36
-33 4 -8 10 -15 16 -15 5 0 6 5 2 11 -3 6 3 24 15 40 19 26 20 30 6 36 -10 3
-15 13 -12 24 3 10 -1 26 -9 36 -7 10 -14 13 -14 7z m-3 -80 c-3 -3 -12 -4
-19 -1 -8 3 -5 6 6 6 11 1 17 -2 13 -5z"/>
<path d="M3037 3160 c3 -11 7 -20 8 -20 1 0 5 9 8 20 3 12 0 20 -8 20 -8 0
-11 -8 -8 -20z"/>
<path d="M2970 3152 c0 -10 -4 -22 -9 -27 -6 -6 9 -11 41 -12 l51 -2 -31 19
c-18 11 -32 24 -32 30 0 5 -4 10 -10 10 -5 0 -10 -8 -10 -18z"/>
<path d="M6093 3057 c-2 -4 -1 -22 3 -40 6 -30 7 -31 15 -9 5 12 12 22 18 22
5 0 11 8 14 19 4 15 -1 18 -20 17 -14 0 -27 -4 -30 -9z"/>
<path d="M6597 3033 c-5 -26 5 -42 26 -43 4 0 7 16 7 35 0 43 -25 48 -33 8z"/>
<path d="M2855 3040 c-3 -5 -1 -10 4 -10 6 0 11 5 11 10 0 6 -2 10 -4 10 -3 0
-8 -4 -11 -10z"/>
<path d="M3117 3037 c-3 -9 -2 -19 4 -23 15 -9 18 -2 9 20 -6 17 -7 18 -13 3z"/>
<path d="M6242 3026 c7 -8 15 -12 17 -11 5 6 -10 25 -20 25 -5 0 -4 -6 3 -14z"/>
<path d="M6115 2990 c-3 -11 -11 -20 -16 -20 -6 0 -7 -4 -4 -10 11 -17 37 -11
42 10 4 15 11 19 24 15 13 -4 19 -1 19 9 0 25 -57 21 -65 -4z"/>
<path d="M6218 2993 c7 -3 16 -2 19 1 4 3 -2 6 -13 5 -11 0 -14 -3 -6 -6z"/>
<path d="M2805 2970 c4 -6 11 -8 16 -5 14 9 11 15 -7 15 -8 0 -12 -5 -9 -10z"/>
<path d="M6063 2945 c0 -7 6 -11 14 -8 7 3 13 6 13 8 0 2 -6 5 -13 8 -8 3 -14
-1 -14 -8z"/>
<path d="M3060 2811 c0 -7 -6 -9 -12 -5 -10 5 -10 4 -2 -5 7 -7 20 -11 29 -9
17 3 17 4 2 17 -12 9 -17 10 -17 2z"/>
<path d="M2800 2792 c0 -12 -1 -25 -2 -29 -2 -4 12 -10 30 -14 17 -3 32 -5 32
-3 0 1 -13 18 -30 36 -28 30 -30 31 -30 10z"/>
<path d="M2880 2790 c0 -5 7 -7 15 -4 8 4 15 8 15 10 0 2 -7 4 -15 4 -8 0 -15
-4 -15 -10z"/>
<path d="M6668 2793 c7 -3 16 -2 19 1 4 3 -2 6 -13 5 -11 0 -14 -3 -6 -6z"/>
<path d="M6350 2770 c0 -13 5 -18 15 -14 12 5 13 10 4 20 -15 19 -19 18 -19
-6z"/>
<path d="M6693 2778 c-13 -6 -23 -15 -23 -20 0 -10 36 7 45 22 7 12 7 12 -22
-2z"/>
<path d="M6210 2710 c-23 -7 -23 -8 -3 -9 12 -1 25 4 28 9 3 6 5 10 3 9 -2 -1
-14 -5 -28 -9z"/>
<path d="M6148 2683 c-7 -25 15 -33 28 -11 4 6 3 8 -4 4 -6 -3 -12 2 -14 11
-3 15 -5 14 -10 -4z"/>
<path d="M2930 2665 c0 -8 4 -15 10 -15 5 0 7 7 4 15 -4 8 -8 15 -10 15 -2 0
-4 -7 -4 -15z"/>
<path d="M6224 2659 c-4 -7 -3 -9 4 -5 6 3 13 -2 15 -11 4 -16 5 -16 6 -1 1
21 -15 32 -25 17z"/>
<path d="M6494 2624 c-7 -3 -10 -14 -7 -24 6 -23 -6 -26 -27 -7 -8 6 -4 -1 10
-16 14 -16 26 -23 28 -18 2 7 10 8 21 1 21 -11 31 -4 31 21 0 19 -26 33 -43
22 -7 -4 -6 1 2 10 13 17 8 20 -15 11z"/>
<path d="M6577 2611 c-3 -15 0 -32 9 -45 14 -20 14 -20 13 -1 -1 11 -4 31 -8
45 l-7 25 -7 -24z"/>
<path d="M6200 2590 c0 -13 11 -13 30 0 12 8 11 10 -7 10 -13 0 -23 -4 -23
-10z"/>
<path d="M6348 2578 c-2 -37 -3 -42 -12 -56 -6 -10 -11 -10 -22 -1 -20 17 -28
5 -14 -21 11 -20 10 -21 -10 -10 -13 7 -20 8 -16 2 3 -6 0 -12 -6 -14 -7 -3
-13 -13 -13 -24 0 -14 -6 -19 -27 -17 -25 1 -26 1 -10 -18 9 -11 19 -31 22
-44 l5 -25 40 27 c33 23 50 28 101 27 40 0 69 -6 84 -17 30 -21 44 -22 36 -2
-3 8 -1 27 5 42 8 22 12 24 19 13 7 -11 9 -9 7 8 -2 26 -15 29 -24 6 -4 -11
-13 -14 -29 -10 -14 4 -24 2 -24 -4 0 -5 -4 -10 -10 -10 -5 0 -7 6 -4 14 3 8
-7 18 -25 26 -35 14 -38 22 -16 44 8 8 15 19 15 25 0 6 -7 8 -15 5 -8 -4 -15
-2 -15 4 0 5 7 15 15 22 24 20 17 30 -20 30 -29 0 -35 -4 -37 -22z m22 -62 c0
-3 -4 -8 -10 -11 -5 -3 -10 -1 -10 4 0 6 5 11 10 11 6 0 10 -2 10 -4z m-7 -53
c-8 -49 -13 -57 -25 -45 -6 6 -16 9 -22 8 -6 -1 -1 2 12 8 12 5 22 17 22 26 0
14 8 30 15 30 1 0 0 -12 -2 -27z"/>
<path d="M6170 2500 c0 -5 5 -10 10 -10 6 0 10 5 10 10 0 6 -4 10 -10 10 -5 0
-10 -4 -10 -10z"/>
<path d="M6225 2460 c-3 -5 -1 -10 4 -10 6 0 11 5 11 10 0 6 -2 10 -4 10 -3 0
-8 -4 -11 -10z"/>
<path d="M2600 2451 c0 -5 -3 -16 -6 -24 -4 -10 4 -16 25 -19 l30 -4 -17 28
c-16 28 -32 37 -32 19z"/>
<path d="M2875 2451 c6 -11 4 -13 -10 -7 -15 5 -16 4 -5 -9 13 -16 40 -20 40
-6 0 5 -8 15 -17 22 -14 12 -16 12 -8 0z"/>
<path d="M797 2428 c-4 -13 -1 -26 6 -30 20 -13 30 -9 23 8 -3 9 -6 22 -6 30
0 22 -17 16 -23 -8z"/>
<path d="M2700 2430 c-8 -5 -10 -10 -5 -10 6 0 17 5 25 10 8 5 11 10 5 10 -5
0 -17 -5 -25 -10z"/>
<path d="M497 2387 c-3 -8 -2 -19 3 -26 5 -9 9 -4 12 13 5 27 -6 36 -15 13z"/>
<path d="M616 2375 c-9 -33 -7 -75 4 -75 6 0 9 3 8 8 -2 4 2 8 7 9 6 0 9 -3 7
-9 -1 -5 3 -6 9 -3 8 5 8 10 0 18 -14 14 -14 30 0 21 8 -4 8 0 0 15 -11 20 -8
25 12 22 5 -1 6 3 3 8 -11 17 -45 8 -50 -14z m16 -27 c-7 -7 -12 -8 -12 -2 0
14 12 26 19 19 2 -3 -1 -11 -7 -17z"/>
<path d="M6271 2341 c-8 -5 -10 -14 -6 -21 4 -7 2 -16 -6 -21 -12 -7 -11 -9 1
-9 8 0 22 5 30 10 13 8 13 11 1 19 -7 5 -10 14 -7 20 9 13 6 14 -13 2z"/>
<path d="M6510 2325 c0 -8 4 -15 10 -15 5 0 7 7 4 15 -4 8 -8 15 -10 15 -2 0
-4 -7 -4 -15z"/>
<path d="M698 2323 c6 -2 18 -2 25 0 6 3 1 5 -13 5 -14 0 -19 -2 -12 -5z"/>
<path d="M1011 2274 c0 -11 3 -14 6 -6 3 7 2 16 -1 19 -3 4 -6 -2 -5 -13z"/>
<path d="M2405 2280 c3 -5 8 -10 11 -10 2 0 4 5 4 10 0 6 -5 10 -11 10 -5 0
-7 -4 -4 -10z"/>
<path d="M458 2253 c7 -3 16 -2 19 1 4 3 -2 6 -13 5 -11 0 -14 -3 -6 -6z"/>
<path d="M596 2232 c-3 -6 -1 -14 5 -17 15 -10 25 3 12 16 -7 7 -13 7 -17 1z"/>
<path d="M895 2195 c-4 -27 -16 -65 -26 -83 -10 -18 -19 -35 -19 -37 0 -2 23
11 51 30 28 18 68 37 89 40 31 5 37 10 33 26 -6 23 -19 25 -27 4 -13 -35 -64
-8 -84 45 -9 23 -10 20 -17 -25z"/>
<path d="M472 2223 c-10 -4 -9 -9 5 -20 17 -14 17 -14 -1 -9 -16 6 -17 4 -6
-9 11 -14 7 -19 -12 -16 -5 0 -8 -6 -8 -14 0 -8 9 -15 21 -15 11 0 17 5 14 10
-3 6 0 10 8 10 17 0 49 34 40 43 -3 4 -18 7 -32 7 -21 0 -23 2 -11 10 16 10 4
12 -18 3z"/>
<path d="M960 2219 c0 -5 5 -7 10 -4 6 3 10 8 10 11 0 2 -4 4 -10 4 -5 0 -10
-5 -10 -11z"/>
<path d="M510 2143 c0 -5 5 -15 10 -23 8 -12 10 -11 10 8 0 12 -4 22 -10 22
-5 0 -10 -3 -10 -7z"/>
<path d="M2636 2133 c-3 -3 -3 -10 0 -14 7 -12 34 -11 34 0 0 11 -26 22 -34
14z"/>
<path d="M695 2119 c-4 -6 1 -17 11 -25 17 -14 17 -15 2 -10 -10 3 -18 1 -18
-4 0 -6 3 -10 8 -11 4 0 19 -3 35 -5 34 -6 35 13 3 44 -27 25 -32 26 -41 11z"/>
<path d="M2685 2120 c3 -5 8 -10 11 -10 2 0 4 5 4 10 0 6 -5 10 -11 10 -5 0
-7 -4 -4 -10z"/>
<path d="M6450 2120 c-12 -8 -12 -10 2 -15 26 -10 43 -2 26 12 -8 7 -19 8 -28
3z"/>
<path d="M780 2093 c0 -12 5 -25 10 -28 13 -8 13 15 0 35 -8 12 -10 11 -10 -7z"/>
<path d="M465 2082 c-20 -7 -20 -8 -2 -42 l18 -35 -5 33 c-4 23 -2 32 9 32 7
0 17 5 20 10 7 11 -9 12 -40 2z"/>
<path d="M2430 2055 c0 -8 4 -15 10 -15 5 0 7 7 4 15 -4 8 -8 15 -10 15 -2 0
-4 -7 -4 -15z"/>
<path d="M1247 2031 c-5 -22 0 -31 18 -31 8 0 10 10 7 25 -5 30 -18 33 -25 6z"/>
<path d="M950 1991 c0 -29 15 -33 16 -5 1 13 -2 24 -7 24 -5 0 -9 -9 -9 -19z"/>
<path d="M1066 1978 c-12 -48 -7 -65 19 -65 14 0 28 3 31 8 3 5 -2 6 -10 3
-11 -4 -16 0 -16 11 0 9 -4 13 -10 10 -16 -10 -12 11 5 25 19 16 19 30 1 30
-7 0 -16 -10 -20 -22z"/>
<path d="M796 1945 c7 -17 20 -20 28 -6 3 5 -1 12 -10 15 -22 9 -24 8 -18 -9z"/>
<path d="M2070 1929 c0 -4 10 -13 22 -21 19 -13 21 -18 10 -31 -9 -10 -10 -17
-2 -22 5 -3 10 1 10 9 0 9 4 16 8 16 5 0 7 13 4 29 -3 23 -9 28 -28 27 -13 0
-24 -4 -24 -7z"/>
<path d="M1396 1921 c-5 -7 -18 -10 -31 -7 -22 6 -23 4 -18 -34 3 -22 1 -46
-5 -53 -6 -7 -8 -18 -4 -24 5 -8 12 -2 20 17 7 15 23 39 36 52 16 16 21 29 16
42 -5 15 -9 16 -14 7z"/>
<path d="M1707 1857 c-3 -9 -2 -19 4 -23 15 -9 18 -2 9 20 -6 17 -7 18 -13 3z"/>
<path d="M1493 1844 c-7 -7 -13 -19 -13 -26 0 -7 7 -2 16 10 18 26 16 37 -3
16z"/>
<path d="M1757 1853 c-14 -4 -15 -8 -7 -18 6 -8 15 -26 19 -42 l8 -28 8 28 c5
18 12 26 21 23 21 -8 17 4 -8 25 -11 11 -21 18 -22 18 -1 -1 -9 -3 -19 -6z"/>
<path d="M2365 1850 c-3 -6 1 -13 10 -16 19 -8 30 0 20 15 -8 14 -22 14 -30 1z"/>
<path d="M1050 1835 c0 -16 16 -20 24 -6 3 5 -1 11 -9 15 -9 3 -15 0 -15 -9z"/>
<path d="M2420 1840 c0 -5 5 -10 11 -10 5 0 7 5 4 10 -3 6 -8 10 -11 10 -2 0
-4 -4 -4 -10z"/>
<path d="M615 1830 c-3 -5 -1 -10 4 -10 6 0 11 5 11 10 0 6 -2 10 -4 10 -3 0
-8 -4 -11 -10z"/>
<path d="M931 1831 c-10 -7 -10 -10 -1 -13 8 -2 10 -12 6 -26 -4 -12 -11 -20
-16 -17 -5 3 -11 1 -14 -4 -11 -17 11 -21 39 -7 15 8 34 24 42 36 l16 22 -27
-17 c-14 -10 -26 -13 -26 -7 0 6 5 12 11 14 7 2 6 8 -3 15 -8 7 -19 8 -27 4z"/>
<path d="M915 1800 c-3 -5 -1 -10 4 -10 6 0 11 5 11 10 0 6 -2 10 -4 10 -3 0
-8 -4 -11 -10z"/>
<path d="M1365 1790 c3 -5 8 -10 11 -10 2 0 4 5 4 10 0 6 -5 10 -11 10 -5 0
-7 -4 -4 -10z"/>
<path d="M1315 1714 c-9 -14 -25 -34 -36 -45 -19 -19 -19 -19 7 -19 14 0 35
-5 46 -11 20 -11 21 -10 13 32 -4 24 -7 50 -8 57 -1 17 -2 16 -22 -14z"/>
<path d="M1157 1710 c-21 -20 -11 -32 31 -36 17 -2 22 2 20 14 -3 9 -10 16
-17 14 -7 -1 -10 2 -7 7 12 18 -9 18 -27 1z"/>
<path d="M1768 1700 c-10 -11 -13 -20 -7 -20 7 0 9 -11 6 -28 -5 -27 -4 -28
29 -24 l34 4 -19 32 c-10 17 -20 37 -22 44 -3 9 -9 6 -21 -8z"/>
<path d="M920 1691 c-14 -4 -20 -9 -15 -13 6 -3 26 0 45 8 37 13 14 17 -30 5z"/>
<path d="M1230 1691 c0 -6 5 -13 10 -16 6 -3 10 1 10 9 0 9 -4 16 -10 16 -5 0
-10 -4 -10 -9z"/>
<path d="M1475 1681 c3 -5 -4 -13 -16 -16 -14 -5 -18 -10 -11 -17 7 -7 17 -4
32 10 18 17 19 20 5 26 -9 3 -13 2 -10 -3z"/>
<path d="M2045 1671 c6 -11 4 -13 -11 -7 -15 6 -16 5 -7 -5 15 -15 43 -21 43
-9 0 4 -8 14 -17 21 -14 12 -16 12 -8 0z"/>
<path d="M920 1641 c0 -12 5 -21 10 -21 6 0 10 6 10 14 0 8 -4 18 -10 21 -5 3
-10 -3 -10 -14z"/>
<path d="M1875 1650 c-8 -13 5 -13 25 0 13 8 13 10 -2 10 -9 0 -20 -4 -23 -10z"/>
<path d="M2085 1650 c3 -5 8 -10 11 -10 2 0 4 5 4 10 0 6 -5 10 -11 10 -5 0
-7 -4 -4 -10z"/>
<path d="M1637 1613 c5 -12 3 -14 -8 -8 -12 7 -12 6 -1 -7 7 -9 21 -15 30 -13
9 2 19 4 21 4 7 2 -32 41 -40 41 -5 0 -5 -7 -2 -17z"/>
<path d="M1690 1600 c0 -5 5 -10 11 -10 5 0 7 5 4 10 -3 6 -8 10 -11 10 -2 0
-4 -4 -4 -10z"/>
<path d="M1451 1578 c17 -33 23 -36 17 -11 -3 12 -1 24 6 27 6 2 1 5 -12 5
-20 1 -22 -1 -11 -21z"/>
<path d="M6360 1980 c0 -5 5 -10 11 -10 5 0 7 5 4 10 -3 6 -8 10 -11 10 -2 0
-4 -4 -4 -10z"/>
</g>
</svg>
