<?xml version="1.0" standalone="no"?>
<!DOCTYPE svg PUBLIC "-//W3C//DTD SVG 20010904//EN"
 "http://www.w3.org/TR/2001/REC-SVG-20010904/DTD/svg10.dtd">
<svg version="1.0" xmlns="http://www.w3.org/2000/svg"
 width="1024.000000pt" height="1024.000000pt" viewBox="0 0 1024.000000 1024.000000"
 preserveAspectRatio="xMidYMid meet">
<metadata>
Created by potrace 1.11, written by Peter Selinger 2001-2013
</metadata>
<g transform="translate(0.000000,1024.000000) scale(0.100000,-0.100000)"
fill="#000000" stroke="none">
<path d="M0 5120 l0 -5120 5120 0 5120 0 0 5120 0 5120 -5120 0 -5120 0 0
-5120z m3828 3416 c0 -46 -3 -66 -13 -70 -21 -8 -28 10 -20 51 6 31 25 83 30
83 2 0 3 -29 3 -64z m232 -273 c0 -7 -13 1 -30 18 -16 18 -27 36 -24 41 7 11
53 -40 54 -59z m-790 -294 c0 -5 -4 -9 -8 -9 -9 0 -32 44 -32 58 1 10 40 -38
40 -49z m-410 -28 c13 -46 13 -81 0 -81 -5 0 -7 6 -4 13 2 7 -11 30 -31 51
-36 38 -45 71 -22 79 19 7 46 -22 57 -62z m5547 54 c0 -8 -4 -12 -9 -9 -5 3
-6 10 -3 15 9 13 12 11 12 -6z m-77 -15 c0 -5 7 -7 15 -4 12 5 13 1 4 -25 -6
-17 -15 -28 -20 -25 -5 3 -9 -10 -9 -28 0 -18 -7 -46 -16 -63 -9 -16 -16 -41
-15 -54 0 -13 -10 -38 -22 -55 -32 -41 -52 -80 -38 -72 6 4 11 3 11 -3 0 -14
-18 -23 -24 -12 -12 18 -63 -13 -89 -54 -15 -23 -37 -47 -50 -54 -13 -7 -31
-26 -41 -42 l-17 -29 79 0 c63 0 82 -4 93 -17 12 -14 12 -15 0 -9 -9 6 -8 0 4
-17 15 -24 15 -28 -4 -64 -11 -21 -24 -44 -29 -51 -5 -7 -49 -21 -98 -32 -67
-14 -93 -24 -107 -42 -10 -12 -29 -35 -43 -50 -13 -14 -24 -31 -24 -37 0 -6
-7 -11 -16 -11 -12 0 -9 8 10 33 15 19 26 37 26 42 0 10 -112 -4 -126 -16 -7
-5 -16 -9 -20 -7 -33 8 -124 -38 -124 -62 0 -4 15 -15 33 -24 21 -10 26 -16
14 -16 -10 0 -25 7 -33 15 -21 21 -29 19 -42 -9 -10 -23 -9 -24 17 -20 15 3
38 1 51 -4 22 -8 17 -11 -40 -29 -61 -19 -64 -21 -77 -64 -13 -40 -16 -140 -9
-316 0 -22 -2 -39 -6 -37 -14 9 -29 -67 -23 -113 5 -37 4 -45 -5 -33 -9 12
-10 6 -4 -25 5 -22 9 -166 10 -320 1 -154 6 -305 10 -335 l9 -55 29 38 c15 20
33 37 38 37 5 0 8 -19 6 -42 -2 -24 -8 -43 -15 -43 -6 0 -15 -4 -20 -9 -5 -5
-2 -6 6 -1 10 6 11 2 6 -15 -5 -14 -3 -20 3 -16 6 3 8 -1 6 -12 -3 -9 -23 -27
-45 -40 -21 -12 -39 -26 -39 -30 2 -23 28 -114 29 -98 1 11 3 17 6 15 2 -3 -5
-71 -15 -152 -18 -139 -21 -207 -10 -204 3 1 19 -9 35 -22 17 -13 22 -21 12
-18 -11 4 -30 10 -44 13 l-25 7 8 -189 c5 -104 8 -227 6 -274 -4 -125 5 -190
27 -190 25 0 33 -11 20 -27 -9 -10 -8 -18 6 -33 18 -19 17 -20 -8 -20 -15 0
-30 0 -34 1 -14 2 -22 -30 -23 -101 -2 -117 -2 -120 16 -113 13 5 14 0 8 -33
-10 -47 -10 -48 4 -197 5 -66 16 -124 23 -133 10 -13 10 -17 -2 -25 -8 -5 -19
-9 -25 -9 -22 0 -28 -351 -10 -555 5 -56 3 -100 -6 -145 -12 -54 -12 -79 -2
-150 8 -53 11 -125 7 -193 -7 -118 -4 -123 48 -86 16 11 29 17 29 12 0 -4 -15
-16 -33 -27 -29 -17 -30 -19 -12 -27 11 -4 14 -8 7 -8 -7 -1 -12 -9 -11 -18 3
-31 -1 -39 -11 -23 -7 11 -10 -2 -10 -43 0 -40 3 -56 11 -51 6 3 14 3 18 -2 3
-5 19 -15 35 -22 37 -16 22 -34 -30 -39 -34 -2 -35 -1 -18 12 14 10 16 16 7
25 -13 14 -33 5 -33 -15 0 -8 -16 -19 -35 -26 -23 -9 -32 -16 -25 -23 15 -15
12 -26 -5 -20 -8 4 -15 12 -15 20 0 19 -13 18 -65 -6 -37 -17 -48 -18 -65 -8
-11 7 -21 20 -21 28 -1 8 -2 22 -3 30 0 8 3 18 7 21 19 14 -16 99 -62 151 -26
29 -61 73 -78 98 -17 25 -49 62 -71 83 -37 36 -41 38 -52 20 -11 -17 -11 -17
-7 3 3 15 -13 44 -54 95 -33 40 -59 77 -59 82 0 4 -4 5 -10 2 -5 -3 -10 1 -10
10 0 12 -6 15 -21 10 -19 -6 -20 -4 -15 28 5 31 1 39 -25 61 -17 14 -35 26
-40 26 -5 0 -25 -16 -43 -35 -31 -32 -66 -49 -51 -25 3 6 1 10 -4 10 -18 0
-12 27 13 57 12 15 21 35 18 43 -2 8 -35 47 -71 85 -37 39 -101 116 -141 173
-51 73 -77 101 -88 97 -13 -5 -13 -3 -1 11 12 15 9 20 -26 48 -64 49 -165 158
-165 178 0 20 -41 68 -192 221 -54 55 -102 96 -108 92 -5 -3 -8 -11 -4 -16 10
-17 13 -68 4 -74 -4 -3 -19 11 -31 32 -16 26 -19 38 -11 41 10 3 10 7 0 19 -6
8 -11 32 -9 53 3 45 -16 86 -66 141 -25 28 -41 38 -54 34 -18 -6 -74 23 -65
33 3 2 1 13 -5 23 -11 22 -72 26 -93 7 -10 -10 -9 -16 8 -30 18 -15 19 -17 4
-18 -25 0 -30 -15 -22 -66 5 -36 12 -48 33 -57 l26 -11 -27 -4 c-22 -3 -28
-10 -33 -43 -8 -45 -27 -59 -50 -35 -12 12 -13 20 -5 35 15 28 12 83 -6 106
-14 19 -15 19 -37 -5 -12 -14 -19 -21 -14 -16 4 6 7 21 7 34 0 21 3 23 26 18
21 -6 25 -3 23 11 -1 10 1 31 6 47 6 23 4 32 -10 42 -13 10 -16 24 -14 57 2
25 1 43 -3 40 -13 -7 -9 11 7 35 15 20 14 25 -23 74 -22 29 -51 76 -65 104
-14 27 -33 57 -43 65 -11 8 -15 9 -10 2 11 -19 -25 -50 -67 -58 -20 -4 -40
-11 -43 -17 -13 -21 -34 16 -34 61 0 79 7 92 46 87 l35 -5 -41 52 c-23 29 -65
70 -95 92 -70 52 -210 203 -263 283 -59 90 -130 162 -150 154 -14 -5 -15 -3
-5 9 10 13 -1 31 -68 107 -72 84 -88 97 -111 93 -5 0 -8 3 -8 8 0 15 -48 41
-64 35 -8 -3 -20 -19 -26 -35 -14 -32 -30 -39 -30 -11 0 10 -5 23 -11 29 -13
13 8 53 28 53 12 0 -42 91 -71 121 -9 9 -16 20 -16 26 0 5 -33 43 -72 84 -66
68 -148 192 -148 224 0 7 -24 34 -52 60 -29 26 -65 66 -80 89 -16 22 -28 35
-28 28 0 -7 -4 -11 -9 -8 -13 9 -19 -15 -10 -44 4 -14 7 -21 8 -16 1 13 41
-25 41 -40 0 -7 -8 -10 -21 -7 -18 5 -20 3 -14 -17 5 -16 4 -20 -5 -15 -7 4
-9 17 -6 31 4 14 2 24 -4 24 -10 0 -14 -13 -11 -37 1 -6 -3 -14 -9 -18 -5 -3
-11 0 -11 7 -1 7 -4 0 -8 -17 -4 -16 -12 -29 -18 -28 -5 1 -15 -9 -22 -23 -6
-14 -7 -23 -2 -20 5 3 11 -3 14 -13 6 -25 -8 -30 -66 -24 -37 4 -47 10 -50 27
-2 11 -5 -8 -6 -43 0 -35 2 -61 6 -58 3 4 12 2 19 -4 9 -7 31 -9 60 -4 40 6
44 8 32 22 -12 15 -8 16 31 10 24 -3 49 -11 55 -17 8 -9 4 -10 -15 -5 -16 4
-30 2 -33 -4 -4 -7 1 -11 12 -11 11 0 26 -7 33 -17 13 -15 11 -16 -25 -10 -22
3 -43 12 -48 19 -6 10 -8 10 -8 -1 0 -10 -13 -12 -55 -8 -38 3 -55 1 -55 -6 0
-7 -5 -5 -10 3 -8 12 -10 11 -10 -8 0 -15 8 -26 25 -32 19 -7 25 -17 24 -37 0
-25 -1 -26 -9 -8 -8 19 -9 19 -9 -3 -1 -12 5 -38 13 -56 9 -22 11 -38 4 -50
-13 -22 -2 -80 17 -96 8 -7 15 -24 15 -39 0 -14 4 -33 9 -40 14 -22 -6 -53
-32 -49 -17 2 -23 12 -29 47 -14 84 -26 66 -34 -56 -4 -65 -7 -140 -6 -168 0
-27 2 -219 4 -427 2 -207 6 -379 9 -383 4 -3 16 5 27 19 25 33 42 33 42 1 0
-33 -36 -74 -60 -68 -18 5 -19 1 -14 -43 3 -27 8 -78 12 -114 l7 -65 35 -5 35
-5 -42 -17 c-41 -16 -43 -18 -44 -60 -1 -24 -3 -54 -4 -67 -2 -18 5 -26 30
-37 27 -11 31 -17 27 -42 -5 -37 18 -83 64 -124 29 -26 32 -33 19 -40 -8 -5
-15 -14 -15 -19 0 -6 4 -8 9 -5 17 11 21 -38 5 -51 -12 -9 -14 -20 -9 -45 7
-32 6 -32 -10 -13 -15 19 -16 19 -13 -18 3 -30 1 -36 -12 -33 -8 3 -27 8 -42
12 l-28 6 -2 -73 c-5 -151 6 -229 28 -206 3 3 9 27 12 53 5 46 5 47 18 21 9
-17 11 -34 5 -49 -4 -13 -5 -32 0 -43 4 -11 8 -36 8 -55 0 -32 -1 -33 -11 -13
-22 45 -38 36 -38 -21 0 -59 6 -71 28 -54 12 10 14 9 10 -7 -2 -12 -11 -19
-22 -18 -17 1 -18 -6 -12 -100 6 -91 11 -111 46 -182 21 -44 46 -97 55 -117
10 -21 22 -38 27 -38 5 0 7 -4 4 -8 -8 -13 70 -53 88 -46 9 3 16 13 16 21 0
29 45 60 98 67 29 4 60 10 69 13 11 5 14 3 8 -6 -6 -10 -3 -11 13 -2 29 15 40
14 38 -5 -1 -17 11 -24 157 -102 83 -43 133 -89 153 -139 9 -21 13 -35 9 -31
-4 4 -25 -6 -46 -23 -52 -41 -148 -65 -199 -50 -58 17 -101 14 -127 -11 -13
-12 -23 -17 -23 -11 0 6 6 14 13 17 6 3 -17 3 -53 1 -148 -12 -239 -9 -335 8
-62 12 -119 16 -150 13 -27 -4 -116 -8 -197 -11 -81 -3 -178 -9 -215 -14 -58
-8 -116 -8 -320 2 -17 1 -29 5 -26 10 2 4 -4 7 -14 8 -10 0 -31 2 -48 4 -19 3
-25 1 -16 -4 11 -7 11 -10 0 -17 -7 -4 -14 -3 -17 4 -2 7 -7 10 -12 7 -4 -2
-20 7 -36 20 -16 14 -35 30 -42 36 -20 17 7 97 29 83 5 -3 9 0 9 7 0 10 3 10
13 0 10 -11 9 -14 -1 -18 -6 -3 -9 -9 -6 -14 3 -6 11 -5 20 2 12 10 13 8 8 -7
-7 -18 -6 -18 15 1 l23 20 -24 5 -23 6 24 6 c12 4 20 11 17 16 -8 13 37 2 45
-11 8 -11 29 -1 29 14 0 5 -9 9 -20 9 -16 0 -21 9 -26 49 l-6 49 -38 -13 -37
-13 7 35 c12 51 68 113 82 90 6 -9 8 -9 8 0 0 7 12 23 26 37 33 30 51 18 46
-33 -3 -28 4 -46 28 -79 17 -23 42 -48 55 -54 30 -13 41 -38 17 -38 -15 -1
-15 -2 1 -11 15 -9 22 -7 35 13 16 22 34 108 22 108 -3 0 -5 13 -6 29 -2 56
36 26 82 -66 14 -29 31 -12 30 29 -1 39 1 42 42 63 56 28 63 36 64 73 1 21 -6
37 -21 49 l-23 18 31 33 c17 17 31 36 31 42 0 5 25 10 56 10 l56 0 -6 143 c-9
231 -18 290 -51 332 -29 39 -24 54 17 55 9 0 20 5 24 11 4 8 9 7 15 -2 6 -10
9 -4 9 18 0 28 -3 32 -32 35 -23 2 -36 10 -45 28 -14 29 -8 40 10 17 6 -9 24
-19 39 -23 28 -6 28 -5 29 42 0 27 4 74 9 104 4 30 4 104 -2 165 -11 128 -25
246 -27 226 -1 -9 -8 -5 -20 11 -16 20 -21 46 -25 134 l-4 109 32 31 33 31 7
138 c4 76 4 140 1 144 -4 3 -13 -3 -21 -13 -9 -14 -12 -38 -9 -83 4 -42 2 -62
-5 -58 -17 11 -79 -6 -83 -24 -3 -9 -5 -4 -6 11 -1 31 18 78 32 78 5 0 6 11 3
25 -4 14 -2 25 3 25 18 0 23 54 7 66 -28 20 -17 50 35 103 l52 51 -7 83 c-4
45 -8 102 -9 127 -1 30 -6 44 -14 43 -18 -4 -16 14 2 21 17 6 22 86 5 86 -5 0
-10 5 -10 12 0 22 -53 122 -73 139 -28 22 -42 15 -54 -24 l-10 -32 -10 45
c-13 60 8 110 46 110 56 0 122 67 107 107 -3 7 -1 13 4 13 6 0 10 25 10 55 0
30 5 74 11 97 12 45 3 429 -10 412 -3 -5 -18 -9 -33 -10 -25 -1 -29 5 -48 59
-25 74 -25 106 0 53 10 -21 23 -42 30 -46 16 -10 51 10 43 23 -3 5 -7 104 -9
221 l-2 211 -44 88 c-24 49 -46 87 -49 85 -8 -6 -59 39 -51 46 3 4 -1 4 -10 1
-18 -7 -22 -17 -33 -75 -4 -19 -9 -43 -12 -54 -3 -11 -1 -16 5 -12 5 3 13 -1
16 -10 7 -19 4 -25 -17 -28 -8 -1 -21 -7 -28 -12 -10 -8 -21 -7 -36 1 -22 11
-22 11 16 68 29 41 39 67 39 97 0 22 4 50 7 61 7 20 7 20 22 2 10 -13 16 -15
19 -5 3 6 11 9 17 5 7 -3 1 5 -13 18 -14 14 -26 24 -28 23 -2 -1 -14 9 -28 23
-24 24 -61 28 -57 6 1 -6 -10 -14 -25 -18 -21 -4 -33 -17 -47 -50 -11 -25 -24
-43 -30 -42 -5 2 -10 24 -10 50 0 25 -6 52 -12 58 -16 16 -17 29 -3 29 6 0 10
-7 10 -15 0 -8 5 -15 10 -15 6 0 10 6 10 14 0 15 -77 48 -137 59 -26 5 -31 3
-26 -9 8 -20 -14 -60 -44 -79 -22 -15 -25 -15 -42 6 l-18 22 -21 -23 c-21 -23
-22 -23 -42 -5 -13 12 -20 29 -18 46 3 32 -22 60 -49 53 -30 -8 -75 68 -79
133 -3 47 0 56 27 83 44 44 59 40 59 -16 l0 -47 22 28 c17 22 19 31 10 46 -37
59 11 118 90 110 12 -2 16 3 12 13 -9 23 23 66 47 66 21 0 21 0 -1 -18 -45
-36 -1 -99 50 -72 23 12 25 8 9 -22 -9 -16 -8 -22 2 -29 8 -5 14 -14 14 -20 0
-21 80 -58 139 -65 46 -6 56 -4 56 8 0 9 9 27 20 41 11 14 20 39 20 57 0 17 4
29 9 25 6 -3 13 11 17 32 9 51 14 58 28 36 15 -22 19 -66 5 -57 -6 3 -9 -10
-8 -35 2 -23 7 -41 11 -41 4 0 7 -3 7 -7 -3 -20 3 -30 29 -45 42 -24 396 -24
455 1 49 21 154 34 162 20 8 -12 25 -11 25 2 0 5 -4 7 -10 4 -5 -3 -10 -1 -10
4 0 12 11 14 34 5 18 -7 22 -30 6 -36 -6 -2 -3 -18 8 -39 25 -50 58 -90 66
-81 4 3 4 -1 1 -10 -4 -10 5 -33 24 -58 16 -23 40 -62 52 -87 16 -33 26 -43
40 -40 10 3 16 0 13 -7 -4 -11 29 -68 40 -67 3 0 11 -1 18 -4 7 -2 44 -6 82
-8 37 -3 71 -9 75 -15 4 -6 27 -20 51 -31 35 -16 66 -21 141 -21 121 0 174
-18 242 -80 57 -53 59 -70 4 -44 -31 15 -44 15 -93 6 -42 -9 -61 -9 -71 -1 -7
6 -13 9 -13 5 0 -4 -11 0 -24 9 -13 9 -38 14 -57 13 -28 -3 -34 1 -35 17 -3
38 -4 40 -13 26 -8 -13 -13 -13 -38 -1 -15 8 -31 16 -36 18 -4 2 -4 -3 -1 -11
3 -8 1 -18 -5 -22 -6 -3 -11 0 -11 8 0 10 -7 13 -20 10 -11 -3 -20 -1 -20 4 0
16 -58 43 -94 43 -20 0 -36 -3 -36 -8 0 -16 92 -112 102 -106 6 4 8 2 5 -3 -4
-6 17 -53 45 -104 43 -78 72 -114 167 -207 64 -62 133 -124 154 -139 33 -23
36 -29 24 -38 -14 -10 -12 -16 14 -43 17 -18 34 -32 38 -32 5 0 8 -7 7 -15 0
-8 20 -38 46 -67 25 -29 57 -66 70 -81 21 -26 26 -28 51 -16 15 7 27 15 27 18
0 12 54 38 91 45 26 5 40 2 49 -9 7 -8 18 -15 25 -15 7 0 11 -10 10 -22 -1
-13 -3 -33 -4 -45 -1 -16 -6 -20 -21 -16 -23 6 -72 -22 -69 -40 1 -7 -1 -20
-6 -30 -6 -14 -1 -26 19 -45 23 -23 28 -25 37 -12 9 13 10 12 5 -2 -3 -10 -1
-18 4 -18 6 0 10 -6 10 -13 0 -8 10 -22 21 -33 12 -10 38 -44 59 -74 21 -31
57 -73 81 -95 l43 -39 7 28 c4 15 12 33 18 39 5 7 12 28 14 47 3 19 3 -7 1
-58 l-4 -94 59 -76 c32 -43 76 -90 98 -107 22 -16 62 -60 89 -99 27 -38 72
-92 101 -120 49 -47 55 -50 98 -47 49 3 53 -3 29 -38 -15 -21 -15 -24 10 -50
14 -15 26 -31 26 -37 0 -5 18 -34 41 -64 50 -67 62 -81 54 -59 -4 10 0 16 10
16 12 0 15 -6 10 -24 -5 -20 2 -32 37 -64 24 -21 44 -35 46 -29 2 5 8 10 14
10 6 0 8 -7 4 -15 -8 -21 4 -19 29 5 13 12 42 22 78 26 52 6 57 5 57 -13 0
-14 -17 -27 -62 -48 -35 -16 -64 -30 -66 -31 -4 -2 132 -181 177 -234 26 -30
31 -32 32 -15 0 11 2 31 3 45 1 14 3 38 4 53 1 19 6 26 14 21 8 -5 9 0 5 16
-3 13 5 66 18 119 13 53 28 114 33 136 l10 40 1 -60 c0 -33 -4 -87 -9 -120 -7
-43 -7 -74 1 -109 8 -33 8 -50 1 -55 -5 -3 -12 -41 -15 -84 l-5 -77 25 5 c25
4 25 4 7 -18 -12 -14 -13 -17 -3 -9 19 14 33 4 18 -14 -8 -9 -4 -17 15 -29 14
-10 23 -22 19 -28 -4 -6 0 -8 10 -4 9 3 19 1 23 -5 5 -7 2 -8 -7 -2 -8 4 18
-23 56 -62 39 -38 87 -91 109 -117 36 -45 39 -47 53 -30 13 16 13 16 3 -5 -17
-34 34 -92 113 -130 34 -16 79 -46 99 -66 42 -41 40 -42 -20 -19 -72 27 -70 5
9 -80 58 -63 75 -76 95 -73 16 3 24 0 24 -9 0 -17 42 -30 65 -21 21 8 19 38
-5 59 -17 14 -27 37 -17 37 2 0 18 -11 37 -25 58 -42 86 -22 35 25 -14 13 -25
31 -25 41 0 32 -23 40 -57 20 l-30 -19 9 40 c5 22 13 49 18 58 7 13 6 20 -3
23 -6 3 -3 6 8 7 11 0 40 18 63 40 51 46 58 76 47 194 -5 62 -10 76 -24 76
-21 0 -61 27 -61 42 0 5 16 1 36 -11 51 -30 54 -26 6 9 -26 19 -42 38 -42 51
l0 20 29 -20 c16 -12 33 -21 38 -21 10 0 8 384 -2 400 -3 5 -1 50 6 100 10 83
9 93 -7 111 -26 29 -54 25 -55 -8 -1 -21 -2 -23 -6 -8 -3 11 -9 25 -15 32 -6
8 -5 19 2 33 9 17 8 29 -5 56 -9 19 -22 34 -29 34 -31 0 -35 60 -6 78 12 7 18
18 14 24 -5 7 -3 8 5 4 7 -5 10 -15 7 -23 -4 -11 1 -14 21 -11 33 4 55 34 33
48 -8 5 -17 7 -21 4 -9 -5 -33 25 -25 33 3 3 6 2 6 -4 0 -7 13 -7 40 0 48 13
52 32 8 42 -18 4 -27 9 -20 12 6 2 12 11 12 20 0 12 2 12 16 -1 8 -9 18 -16
22 -16 4 0 8 80 8 179 l2 178 -33 -7 c-18 -4 -38 -10 -44 -14 -21 -14 -11 18
36 103 l47 86 -14 120 c-8 74 -12 202 -11 335 l3 216 -24 11 c-13 6 -36 34
-51 64 -27 50 -27 54 -12 85 10 21 13 45 9 66 -11 59 -8 92 7 82 6 -3 15 0 20
7 9 15 14 -36 10 -103 -1 -21 2 -38 8 -38 5 0 11 -6 14 -12 2 -7 2 -2 1 12 -2
14 -4 43 -5 65 -2 59 -19 117 -37 132 -10 7 -36 22 -59 33 -75 36 -119 21 -93
-32 12 -22 12 -22 -14 3 -28 27 -47 86 -24 74 7 -4 4 1 -7 9 -19 16 -19 16 2
31 31 21 62 86 53 110 -10 26 -39 51 -70 60 -14 4 -47 21 -75 38 -49 30 -53
31 -176 31 -111 1 -125 -1 -122 -15 3 -9 18 -26 34 -38 16 -12 29 -28 29 -36
0 -17 -26 -20 -35 -5 -3 6 -15 10 -26 10 -12 0 -19 7 -19 20 0 11 -5 20 -10
20 -6 0 -15 11 -21 24 -11 22 -55 52 -72 48 -4 -1 -4 6 1 15 5 10 10 36 11 58
1 22 5 43 9 47 5 5 36 11 70 14 48 5 63 11 67 25 4 10 4 23 0 28 -3 6 2 14 11
19 13 7 15 17 11 42 -7 30 -5 32 18 28 14 -3 25 -1 25 3 0 5 6 6 14 3 18 -7
24 -40 15 -76 -5 -20 -2 -31 12 -44 17 -15 25 -16 70 -6 63 15 176 15 216 1
21 -7 53 -7 99 -1 52 7 78 6 108 -4 45 -16 104 -18 173 -5 62 12 182 15 206 6
13 -5 16 -3 11 8 -3 8 -1 18 5 22 6 3 11 -1 11 -10 0 -9 4 -14 9 -11 5 3 11
-1 15 -9 9 -24 63 -19 71 6 7 21 50 43 65 34 5 -3 7 -12 4 -20 -4 -8 1 -18 10
-21 24 -9 28 -1 17 30 -12 31 2 35 31 9 17 -15 21 -15 54 1 24 11 34 21 30 31
-3 8 -1 15 4 15 6 0 10 -11 10 -25 0 -16 6 -25 15 -25 26 0 91 37 107 62 9 13
26 33 37 46 22 22 22 22 1 22 -13 0 -20 7 -20 20 0 12 7 20 16 20 10 0 14 6
11 15 -10 23 12 29 35 8 20 -18 21 -18 14 4 -5 16 -2 23 12 27 26 9 82 81 92
119 19 75 21 89 10 82 -5 -3 -10 1 -10 9 0 19 34 38 54 30 10 -4 16 -1 16 9 0
14 13 24 33 26 4 1 7 -3 7 -9z m-5066 -103 c-7 -69 -27 -178 -33 -181 -3 -2
-7 15 -8 39 -1 30 3 45 13 49 7 3 14 15 14 26 0 12 -4 18 -10 15 -5 -3 -10 -2
-10 4 0 5 5 13 11 17 7 4 9 24 6 51 -4 34 -2 41 8 33 8 -7 11 -26 9 -53z m890
-94 c-9 -85 -9 -88 4 -150 5 -23 6 -40 2 -38 -17 11 -27 -88 -11 -113 6 -11
10 -10 15 5 7 17 8 17 22 -1 20 -28 17 -47 -11 -81 l-25 -30 -18 21 c-9 11
-22 19 -27 17 -27 -8 -40 18 -40 77 0 33 4 60 8 60 5 0 7 30 6 68 -1 42 2 66
9 65 5 -1 18 29 27 67 10 39 21 73 26 76 5 3 9 15 9 26 0 12 3 19 6 15 4 -3 3
-41 -2 -84z m3273 20 c-3 -10 -5 -4 -5 12 0 17 2 24 5 18 2 -7 2 -21 0 -30z
m-720 -59 c7 -21 -50 -6 -76 21 l-26 26 49 -18 c27 -10 51 -23 53 -29z m-2647
17 c14 -26 13 -67 -2 -91 -11 -17 -13 -15 -25 28 -17 68 1 111 27 63z m358
-25 c-13 -19 -24 -33 -26 -32 -5 5 33 66 41 66 4 0 -3 -15 -15 -34z m-676 -37
c-4 -14 -21 -29 -34 -29 -5 0 -8 11 -8 25 0 20 4 24 23 21 12 -2 21 -10 19
-17z m2967 9 c0 -7 -4 -22 -9 -33 -7 -17 -9 -15 -9 13 -1 17 4 32 9 32 6 0 10
-6 9 -12z m166 -18 c3 -5 12 -7 20 -4 9 4 17 -1 21 -12 12 -40 23 -49 75 -65
l54 -16 -35 -11 c-19 -5 -27 -11 -17 -11 27 -1 15 -26 -14 -28 -13 0 -32 -1
-41 -2 -12 -1 -17 -8 -15 -22 1 -17 -4 -22 -23 -24 -14 -1 -32 -5 -40 -9 -19
-8 -54 35 -64 79 -5 26 -5 28 7 13 29 -37 40 -26 38 39 -1 35 0 67 4 73 8 13
22 13 30 0z m-396 -27 c32 -30 10 -30 -25 0 -16 14 -21 23 -13 23 8 0 25 -11
38 -23z m-3449 -18 c-7 -8 -17 -12 -23 -8 -6 4 -3 9 9 14 27 11 28 11 14 -6z
m4983 -53 c-7 -28 -57 -56 -78 -44 -12 6 -7 11 20 21 33 12 40 24 35 61 -1 13
0 13 14 0 10 -9 13 -24 9 -38z m-530 -2 c7 -29 -21 -69 -53 -75 -11 -2 -26 -7
-33 -11 -6 -5 3 10 21 32 51 61 52 62 52 75 0 18 6 8 13 -21z m-3468 -30 c-23
-44 -29 -32 -9 16 9 21 19 34 21 27 2 -6 -3 -26 -12 -43z m-355 31 c0 -5 -10
-13 -22 -17 -13 -3 -36 -16 -52 -27 l-29 -20 19 27 c23 36 84 62 84 37z m620
-39 c0 -5 -7 -17 -15 -28 -14 -19 -14 -19 -15 2 0 11 3 24 7 27 9 10 23 9 23
-1z m272 -88 c9 -32 -10 -110 -24 -96 -15 15 -27 106 -16 120 16 19 31 10 40
-24z m3737 -85 c-12 -21 -14 -22 -17 -6 -6 28 6 53 19 40 8 -8 7 -18 -2 -34z
m-5669 -83 c0 -3 -4 -8 -10 -11 -5 -3 -10 -1 -10 4 0 6 5 11 10 11 6 0 10 -2
10 -4z m5165 -136 c3 -5 1 -10 -4 -10 -6 0 -11 5 -11 10 0 6 2 10 4 10 3 0 8
-4 11 -10z m351 -9 c-3 -5 -23 -11 -43 -14 -21 -3 -49 -8 -62 -12 -31 -10 -20
12 13 25 28 12 99 12 92 1z m-318 -13 c-3 -7 1 -19 9 -26 7 -7 13 -21 13 -30
-1 -11 -6 -7 -16 11 -12 23 -18 26 -30 16 -19 -16 -18 0 3 23 19 21 26 23 21
6z m-81 -54 c-3 -3 -12 -4 -19 -1 -8 3 -5 6 6 6 11 1 17 -2 13 -5z m-4556 -42
c15 3 26 1 23 -4 -9 -15 -71 -8 -85 9 -13 15 -12 15 10 4 13 -7 36 -11 52 -9z
m4607 -61 c-8 -14 -14 -16 -24 -7 -9 9 -8 12 5 18 27 11 32 9 19 -11z m-60
-17 c5 3 12 0 15 -8 7 -18 -24 -31 -34 -15 -4 7 -14 9 -24 6 -9 -4 -14 -11
-11 -15 6 -10 -64 -46 -72 -38 -3 3 6 10 19 15 14 6 18 10 9 11 -8 1 -1 8 15
15 17 7 29 17 27 21 -5 12 32 23 39 11 4 -5 11 -7 17 -3z m-3140 -116 c7 -7
12 -18 12 -25 0 -11 -6 -9 -24 4 -13 10 -22 21 -19 26 6 10 17 9 31 -5z m2461
-19 c12 -12 20 -24 17 -27 -3 -3 -17 7 -30 21 -30 32 -20 36 13 6z m-3612
-161 c-3 -7 -5 -2 -5 12 0 14 2 19 5 13 2 -7 2 -19 0 -25z m3643 -108 c8 -5
12 -11 10 -14 -3 -2 -14 2 -24 10 -22 15 -10 19 14 4z m-2229 -293 c-1 -4 -1
-15 -1 -24 0 -15 -2 -16 -10 -3 -13 20 -13 43 1 38 6 -2 10 -7 10 -11z m-731
-82 c13 -14 19 -25 14 -25 -8 1 -50 50 -41 50 2 0 14 -11 27 -25z m-34 -93
c-8 -9 -19 -13 -22 -9 -10 9 16 38 28 31 6 -4 4 -13 -6 -22z m1266 -15 c-6
-12 -13 -33 -15 -47 -3 -20 -5 -18 -6 8 -1 34 16 78 26 68 4 -3 1 -16 -5 -29z
m-1933 -96 c26 -36 27 -48 3 -24 -31 32 -45 53 -34 53 6 0 20 -13 31 -29z
m586 -288 c-13 -65 -17 -75 -25 -67 -6 6 -5 24 2 47 11 37 29 53 23 20z m-55
-18 c11 -13 8 -13 -19 -4 -35 12 -40 19 -12 19 10 0 24 -7 31 -15z m3650 -765
c13 -24 3 -90 -14 -90 -20 0 -56 39 -56 60 0 10 4 30 10 45 8 22 13 24 30 15
11 -6 24 -19 30 -30z m-1267 -170 c3 -11 1 -23 -4 -26 -5 -3 -9 6 -9 20 0 31
6 34 13 6z m-843 -154 c0 -2 -8 -10 -17 -17 -16 -13 -17 -12 -4 4 13 16 21 21
21 13z m-47 -41 c-3 -9 -8 -14 -10 -11 -3 3 -2 9 2 15 9 16 15 13 8 -4z m1265
-42 c9 -32 10 -49 2 -57 -5 -5 -10 -18 -10 -29 0 -10 -5 -28 -12 -40 -10 -20
-13 -15 -24 48 -19 107 -18 120 9 123 19 1 25 -6 35 -45z m22 -313 c0 -5 -2
-10 -4 -10 -3 0 -8 5 -11 10 -3 6 -1 10 4 10 6 0 11 -4 11 -10z m386 -117 c23
-9 16 -18 -16 -19 -29 -1 -42 18 -20 31 6 3 11 18 12 33 1 23 2 22 5 -6 3 -18
11 -36 19 -39z m-85 -237 c-17 -18 -18 -25 -8 -36 10 -12 9 -12 -5 -1 -14 11
-15 17 -6 35 19 36 32 50 36 36 2 -6 -5 -21 -17 -34z m-3616 -152 c17 -12 18
-16 5 -24 -17 -10 -26 -6 -40 21 -13 24 5 26 35 3z m-55 -354 c12 -28 11 -33
-10 -53 -22 -20 -23 -20 -15 -2 11 25 11 55 0 79 -6 13 -5 17 2 13 6 -4 16
-20 23 -37z m4345 -84 c-14 -21 -45 -43 -45 -31 0 4 53 55 58 55 1 0 -5 -11
-13 -24z m45 20 c0 -2 -8 -10 -17 -17 -16 -13 -17 -12 -4 4 13 16 21 21 21 13z
m-4430 -16 c0 -5 -5 -10 -11 -10 -5 0 -7 5 -4 10 3 6 8 10 11 10 2 0 4 -4 4
-10z m4320 -133 c0 -5 12 -20 28 -33 30 -27 19 -31 -24 -9 -24 12 -32 12 -49
1 -29 -19 -31 -61 -4 -80 27 -18 19 -32 -9 -17 -11 6 -23 22 -26 37 -7 27 0
64 12 64 4 0 16 7 26 15 19 14 19 16 2 34 -27 30 -9 47 20 20 13 -12 24 -27
24 -32z m-4800 -407 c0 -5 -4 -10 -10 -10 -5 0 -10 5 -10 10 0 6 5 10 10 10 6
0 10 -4 10 -10z m-53 -22 c-3 -8 -6 -5 -6 6 -1 11 2 17 5 13 3 -3 4 -12 1 -19z"/>
<path d="M8177 7725 c-8 -8 -17 -11 -21 -8 -10 10 -7 -10 4 -27 8 -12 10 -13
10 -1 0 8 7 23 17 33 19 21 11 25 -10 3z"/>
<path d="M2762 7548 c-17 -17 -15 -58 4 -65 23 -8 64 14 64 35 0 22 -19 42
-40 42 -9 0 -21 -5 -28 -12z"/>
<path d="M2862 7533 c1 -10 -2 -28 -6 -40 -10 -32 15 -20 32 14 16 36 15 43
-7 43 -13 0 -19 -6 -19 -17z"/>
<path d="M6641 7504 c0 -11 3 -14 6 -6 3 7 2 16 -1 19 -3 4 -6 -2 -5 -13z"/>
<path d="M2647 7449 c-6 -24 1 -49 14 -49 5 0 9 6 9 13 0 6 3 22 6 35 5 16 2
22 -9 22 -8 0 -17 -9 -20 -21z"/>
<path d="M7686 7446 c3 -8 12 -12 20 -9 21 8 17 23 -6 23 -13 0 -18 -5 -14
-14z"/>
<path d="M2667 7349 c7 -7 15 -10 18 -7 3 3 -2 9 -12 12 -14 6 -15 5 -6 -5z"/>
<path d="M3541 7352 c-13 -2 -26 -12 -28 -23 -5 -19 -33 -27 -33 -9 0 6 -9 10
-21 10 -18 0 -20 -4 -14 -27 9 -36 14 -41 26 -23 7 13 10 13 18 1 5 -7 13 -11
19 -8 5 4 8 -5 6 -23 -2 -16 1 -32 6 -35 5 -3 6 -13 3 -22 -4 -11 -2 -14 8
-11 8 3 17 18 20 34 6 27 7 27 8 -9 1 -31 6 -39 27 -47 46 -18 101 -12 128 14
29 26 32 39 12 55 -10 8 -12 21 -6 45 11 48 -3 66 -46 62 -20 -2 -45 -11 -55
-20 -14 -12 -19 -13 -19 -2 0 21 -33 42 -59 38z"/>
<path d="M3760 7339 c11 -20 45 -26 55 -9 3 6 5 10 3 10 -2 0 -18 4 -36 9 -30
9 -31 8 -22 -10z"/>
<path d="M7575 7339 c-4 -6 0 -18 9 -27 15 -15 16 -15 16 5 0 25 -15 38 -25
22z"/>
<path d="M7640 7326 c0 -31 6 -34 13 -6 3 11 1 23 -4 26 -5 3 -9 -6 -9 -20z"/>
<path d="M7687 7328 c-2 -13 -7 -30 -9 -38 -3 -8 -3 -12 -1 -7 3 4 9 5 14 1 5
-3 9 2 9 11 0 9 5 13 10 10 14 -9 12 7 -4 28 -13 16 -14 16 -19 -5z"/>
<path d="M7280 7320 c0 -6 11 -15 25 -20 14 -5 28 -16 31 -25 3 -8 10 -12 15
-9 5 3 9 0 9 -5 0 -6 6 -11 14 -11 10 0 17 -16 21 -45 8 -49 29 -76 39 -50 4
10 2 14 -5 9 -8 -4 -8 -1 0 14 17 32 13 60 -9 67 -13 4 -19 14 -17 28 1 16 -4
23 -20 25 -13 2 -23 8 -23 13 0 5 -7 9 -15 9 -8 0 -15 -5 -15 -12 0 -6 -7 -4
-18 5 -21 19 -32 22 -32 7z"/>
<path d="M3813 7281 c-26 -22 -30 -51 -8 -51 12 0 45 47 45 65 0 10 -15 4 -37
-14z"/>
<path d="M3894 7284 c-16 -8 -36 -22 -44 -30 -12 -12 -11 -14 10 -13 44 2 73
14 76 32 3 25 -9 28 -42 11z"/>
<path d="M7251 7264 c0 -11 3 -14 6 -6 3 7 2 16 -1 19 -3 4 -6 -2 -5 -13z"/>
<path d="M7218 7240 c-3 -19 -2 -36 3 -38 4 -2 5 -11 2 -20 -4 -12 -3 -14 4
-7 7 6 8 28 4 55 l-7 45 -6 -35z"/>
<path d="M3487 7249 c7 -7 15 -10 18 -7 3 3 -2 9 -12 12 -14 6 -15 5 -6 -5z"/>
<path d="M7283 7253 c-7 -2 -13 -19 -13 -36 0 -17 -7 -39 -17 -49 -14 -15 -14
-22 -3 -46 12 -26 13 -26 22 -6 8 18 17 21 59 19 62 -3 64 12 13 78 -37 48
-40 49 -61 40z"/>
<path d="M7456 7213 c-3 -26 -2 -49 3 -52 5 -3 10 -15 12 -26 3 -13 13 -20 28
-21 23 -1 23 0 17 54 -6 50 -27 92 -46 92 -4 0 -10 -21 -14 -47z"/>
<path d="M7625 7250 c3 -5 8 -10 11 -10 2 0 4 5 4 10 0 6 -5 10 -11 10 -5 0
-7 -4 -4 -10z"/>
<path d="M3460 7108 c0 -12 3 -17 8 -12 4 5 11 12 15 15 5 3 2 9 -7 12 -12 5
-16 0 -16 -15z"/>
<path d="M7333 7112 c-7 -4 -12 -22 -10 -39 1 -24 5 -29 15 -21 9 8 12 5 10
-13 -2 -18 2 -24 15 -23 28 3 20 -21 -18 -55 -31 -27 -34 -34 -25 -52 14 -25
51 -40 67 -27 6 5 11 28 11 51 0 23 5 55 11 70 13 35 14 40 2 32 -6 -3 -11 14
-13 37 -3 38 -6 43 -28 46 -14 1 -31 -1 -37 -6z"/>
<path d="M7035 7089 c-4 -11 -4 -23 -1 -26 3 -4 6 -1 6 6 0 7 5 9 10 6 6 -3
10 3 10 14 0 27 -17 27 -25 0z"/>
<path d="M3530 6960 c0 -28 4 -40 14 -40 24 0 27 15 10 49 -8 17 -17 31 -20
31 -2 0 -4 -18 -4 -40z"/>
<path d="M3940 6895 c0 -9 7 -18 15 -22 29 -11 47 -62 44 -127 -4 -72 3 -86
41 -86 29 0 50 27 26 36 -7 3 -13 20 -14 38 -2 46 -26 111 -40 109 -7 -2 -12
4 -12 13 0 17 -36 54 -52 54 -4 0 -8 -7 -8 -15z"/>
<path d="M3906 6821 c-4 -7 -5 -15 -2 -18 9 -9 19 4 14 18 -4 11 -6 11 -12 0z"/>
<path d="M3857 6759 c-25 -29 -28 -49 -7 -49 11 0 70 59 70 71 0 20 -37 7 -63
-22z"/>
<path d="M4178 6689 c-10 -5 -18 -20 -18 -33 0 -17 11 -27 48 -44 53 -24 114
-29 110 -10 -4 17 -25 39 -35 36 -9 -3 -63 31 -78 49 -7 9 -15 9 -27 2z"/>
<path d="M7141 6684 c0 -11 3 -14 6 -6 3 7 2 16 -1 19 -3 4 -6 -2 -5 -13z"/>
<path d="M7294 6638 c-4 -6 1 -17 11 -25 36 -26 49 -10 15 19 -13 12 -21 14
-26 6z"/>
<path d="M7334 6580 c-34 -13 -38 -29 -15 -54 12 -12 21 -28 21 -34 0 -22 30
-12 35 11 8 30 1 80 -11 83 -5 2 -19 -1 -30 -6z"/>
<path d="M4082 6562 c-9 -7 -8 -13 8 -27 23 -21 45 -9 34 18 -7 18 -22 21 -42
9z"/>
<path d="M7411 6514 c0 -11 3 -14 6 -6 3 7 2 16 -1 19 -3 4 -6 -2 -5 -13z"/>
<path d="M3818 6491 c-22 -22 -23 -51 -3 -51 8 0 15 -4 15 -10 0 -5 -4 -10
-10 -10 -5 0 -10 -13 -10 -30 0 -16 -4 -30 -10 -30 -11 0 -14 -40 -2 -41 4 0
16 -2 26 -4 22 -4 44 15 38 33 -3 9 3 11 23 6 23 -6 26 -4 23 12 -2 13 -13 20
-34 22 -30 3 -31 5 -20 27 6 14 15 25 19 25 5 0 5 5 1 12 -5 8 -2 9 9 5 24 -9
21 6 -6 31 -28 26 -36 27 -59 3z"/>
<path d="M7384 6469 c-3 -6 -1 -16 5 -22 8 -8 11 -5 11 11 0 24 -5 28 -16 11z"/>
<path d="M7355 6440 c-3 -5 -1 -10 4 -10 6 0 11 5 11 10 0 6 -2 10 -4 10 -3 0
-8 -4 -11 -10z"/>
<path d="M4197 6414 c-8 -8 3 -34 14 -34 11 0 12 27 0 34 -4 3 -11 3 -14 0z"/>
<path d="M4238 6414 c-9 -8 14 -73 31 -88 13 -11 22 -11 45 -1 l28 12 -43 41
c-43 42 -51 47 -61 36z"/>
<path d="M4411 6328 c-40 -100 -39 -92 -18 -167 7 -24 18 -46 25 -48 6 -3 12
-11 12 -19 0 -8 7 -14 15 -14 8 0 15 5 15 10 0 6 5 10 10 10 6 0 24 10 40 21
15 12 40 22 55 22 14 0 24 2 21 4 -3 3 2 12 10 21 14 13 14 16 1 24 -8 4 -29
9 -46 11 -35 4 -69 31 -82 65 -5 13 -14 20 -20 17 -7 -5 -9 4 -7 25 4 40 -18
52 -31 18z"/>
<path d="M7365 6311 c3 -5 -4 -12 -15 -16 -11 -3 -21 -12 -22 -18 0 -7 -2 -16
-2 -22 -1 -5 -5 -15 -9 -21 -4 -7 -9 -29 -12 -50 -2 -22 -6 -48 -7 -59 -2 -16
2 -19 22 -17 23 2 40 17 40 35 0 5 -5 5 -12 1 -8 -5 -9 -2 -3 12 4 10 8 28 9
39 1 11 8 34 16 50 16 32 15 75 -1 75 -6 0 -8 -4 -4 -9z"/>
<path d="M3790 6239 c0 -25 4 -36 15 -36 18 0 18 -3 0 38 l-14 34 -1 -36z"/>
<path d="M3830 6134 c0 -7 38 -42 42 -38 12 12 -5 43 -23 41 -10 -1 -19 -2
-19 -3z"/>
<path d="M4960 6090 c8 -16 17 -19 33 -14 19 6 20 5 9 -8 -10 -12 -8 -18 7
-32 18 -16 19 -16 23 14 3 16 1 30 -4 30 -5 0 -7 4 -4 9 7 11 -17 21 -50 21
-22 0 -23 -2 -14 -20z"/>
<path d="M4651 6021 c-11 -11 -22 -17 -25 -13 -3 3 -6 -2 -6 -10 0 -9 -7 -18
-15 -22 -15 -5 -21 -36 -7 -36 13 0 101 87 95 94 -11 10 -22 7 -42 -13z"/>
<path d="M4880 5926 c-9 -12 -6 -19 14 -37 14 -13 26 -30 26 -38 0 -9 -11 -2
-28 18 -25 30 -30 32 -48 21 -31 -19 -56 -68 -44 -89 8 -15 6 -17 -15 -13 -19
3 -25 0 -25 -12 0 -10 -4 -14 -10 -11 -15 9 -12 -11 9 -58 10 -23 22 -51 25
-61 5 -15 9 -17 18 -8 9 9 10 20 1 42 -13 35 -4 39 22 10 17 -19 19 -19 37 -4
10 10 18 14 18 9 0 -4 10 5 22 21 18 22 23 43 25 97 1 38 7 75 14 83 10 12 8
17 -7 29 -24 18 -39 19 -54 1z m10 -146 c-20 -13 -33 -13 -25 0 3 6 14 10 23
10 15 0 15 -2 2 -10z m-43 -6 c-3 -3 -12 -4 -19 -1 -8 3 -5 6 6 6 11 1 17 -2
13 -5z"/>
<path d="M4695 5880 c4 -6 11 -8 16 -5 14 9 11 15 -7 15 -8 0 -12 -5 -9 -10z"/>
<path d="M3792 5850 c0 -19 2 -27 5 -17 2 9 2 25 0 35 -3 9 -5 1 -5 -18z"/>
<path d="M7372 5821 c23 -41 41 -51 54 -30 7 11 -19 37 -59 60 -16 9 -15 5 5
-30z"/>
<path d="M7330 5821 c0 -20 27 -48 37 -37 8 7 -17 56 -29 56 -4 0 -8 -8 -8
-19z"/>
<path d="M4969 5799 c-14 -14 -19 -29 -16 -46 3 -17 -3 -32 -19 -48 -26 -26
-31 -54 -12 -73 9 -9 8 -16 -5 -30 -16 -18 -14 -32 5 -32 15 0 68 83 68 108 0
14 7 33 15 42 8 9 15 25 16 36 7 66 -13 82 -52 43z"/>
<path d="M7167 5784 c-22 -45 -22 -68 -1 -60 9 3 20 6 25 6 11 0 12 77 1 84
-5 3 -16 -11 -25 -30z"/>
<path d="M5094 5796 c-3 -9 -4 -28 -1 -41 2 -14 0 -28 -4 -31 -18 -11 -9 -34
14 -34 20 0 19 -3 -11 -21 -25 -17 -30 -24 -21 -35 8 -10 0 -20 -41 -45 -35
-22 -60 -47 -80 -83 -17 -28 -30 -56 -30 -62 0 -12 34 -54 44 -54 12 0 44 -35
60 -65 10 -20 16 -24 16 -12 0 23 27 22 40 -2 5 -11 16 -25 23 -33 7 -7 21
-24 31 -38 l18 -25 -7 40 c-9 52 -32 95 -50 95 -21 0 -19 17 6 51 11 16 17 29
12 29 -5 0 -9 9 -10 20 -2 19 5 23 65 35 36 7 52 30 52 74 0 20 -7 34 -20 41
-11 6 -23 22 -26 36 -3 13 -16 31 -27 39 -12 8 -16 15 -9 15 21 0 13 55 -13
90 -20 27 -26 30 -31 16z m-24 -287 c0 -16 -4 -29 -10 -29 -5 0 -10 16 -10 36
0 21 4 33 10 29 6 -3 10 -19 10 -36z"/>
<path d="M7539 5710 c0 -8 -2 -26 -5 -40 -3 -24 -3 -24 12 4 11 20 13 31 5 39
-8 8 -11 7 -12 -3z"/>
<path d="M7350 5662 c0 -37 10 -46 25 -25 15 20 8 53 -11 53 -9 0 -14 -11 -14
-28z"/>
<path d="M7565 5679 c-9 -14 -2 -20 14 -10 8 6 9 11 3 15 -6 3 -14 1 -17 -5z"/>
<path d="M5232 5454 c-30 -35 -42 -92 -25 -124 8 -16 13 -20 14 -10 1 8 5 -10
8 -40 7 -55 7 -55 21 -27 8 17 19 26 27 22 9 -3 6 6 -7 22 -19 25 -21 36 -16
105 4 43 5 78 4 78 -2 0 -13 -12 -26 -26z"/>
<path d="M5417 5450 c-6 -22 10 -38 23 -24 5 5 3 17 -4 27 -13 16 -14 16 -19
-3z"/>
<path d="M5395 5380 c3 -5 11 -10 16 -10 6 0 7 5 4 10 -3 6 -11 10 -16 10 -6
0 -7 -4 -4 -10z"/>
<path d="M7337 5367 c-7 -22 4 -44 29 -56 33 -14 34 -14 34 7 0 35 -53 77 -63
49z"/>
<path d="M3641 5328 c0 -7 4 -22 9 -33 8 -18 9 -17 9 7 1 15 -3 30 -9 33 -5 3
-10 0 -9 -7z"/>
<path d="M5437 5295 c-25 -32 -27 -37 -13 -51 15 -14 16 -14 16 0 0 10 9 16
23 16 25 0 67 26 67 41 0 5 -10 9 -23 9 -13 0 -27 4 -33 10 -6 6 -19 -3 -37
-25z"/>
<path d="M5040 5282 c0 -10 21 -32 32 -32 16 0 8 19 -12 30 -11 6 -20 7 -20 2z"/>
<path d="M5290 5251 c0 -22 -41 -51 -70 -51 -31 0 -38 -13 -20 -40 9 -13 14
-11 31 13 25 33 39 27 40 -16 l1 -32 11 27 c7 14 21 36 32 48 14 16 17 25 9
37 -13 20 -34 29 -34 14z"/>
<path d="M7347 5212 c2 -10 13 -19 25 -19 19 -2 19 -1 3 18 -23 24 -35 25 -28
1z"/>
<path d="M5095 5210 c-3 -5 -4 -10 -1 -10 2 0 11 -3 20 -6 11 -4 16 -1 16 10
0 18 -25 22 -35 6z"/>
<path d="M7165 5190 c-18 -20 -14 -56 6 -44 8 5 10 0 6 -18 -4 -15 -1 -32 8
-44 12 -17 13 -11 8 51 -3 39 -6 71 -8 73 -1 1 -10 -7 -20 -18z"/>
<path d="M5483 5126 c-10 -11 -9 -15 3 -20 29 -11 44 -6 44 16 0 21 0 21 -14
2 -8 -10 -18 -16 -22 -11 -4 4 -2 7 4 7 7 0 12 5 12 10 0 14 -13 12 -27 -4z"/>
<path d="M7325 5099 c-8 -37 11 -89 34 -89 45 1 56 38 25 84 -30 44 -50 46
-59 5z"/>
<path d="M5570 5018 c-14 -5 -52 -8 -85 -6 l-60 4 -2 -67 c-2 -60 0 -67 21
-79 13 -7 37 -13 54 -15 17 -1 37 -9 46 -18 9 -8 21 -18 28 -20 10 -4 10 -8
-2 -16 -12 -8 -11 -10 8 -8 18 1 22 7 22 38 0 45 -22 68 -47 48 -15 -13 -16
-11 -10 11 4 14 7 31 7 38 0 19 24 14 38 -8 18 -29 55 -42 63 -22 10 26 -2 74
-17 68 -10 -4 -14 2 -14 18 0 33 -19 46 -50 34z"/>
<path d="M5689 4977 c8 -22 -29 -187 -42 -187 -5 0 -5 5 -2 10 7 11 -8 14 -18
3 -4 -3 5 -17 19 -30 24 -22 27 -23 59 -7 18 8 36 22 39 29 3 8 13 11 26 8 15
-4 19 -11 14 -22 -14 -35 -25 -96 -20 -116 9 -34 86 -115 109 -115 16 0 18 3
9 12 -20 20 -15 40 9 33 13 -5 19 -3 15 3 -3 5 1 12 9 16 8 3 15 1 15 -5 0 -6
5 -7 10 -4 21 13 9 53 -26 85 -34 30 -36 36 -30 76 4 35 3 44 -9 44 -8 0 -20
9 -27 20 -7 11 -18 20 -25 20 -7 0 -14 25 -18 63 -4 36 -12 64 -18 65 -7 1
-33 5 -59 10 -43 8 -46 7 -39 -11z m-12 -189 c-3 -8 -6 -5 -6 6 -1 11 2 17 5
13 3 -3 4 -12 1 -19z m141 -86 c2 -7 -2 -10 -12 -6 -9 3 -16 11 -16 16 0 13
23 5 28 -10z"/>
<path d="M7382 4968 c2 -12 11 -24 21 -26 24 -5 22 25 -4 38 -18 10 -20 9 -17
-12z"/>
<path d="M3622 4962 c-7 -5 -15 -24 -18 -44 -5 -27 -3 -35 10 -35 12 0 16 11
17 41 0 32 2 37 9 21 8 -19 9 -19 9 3 1 23 -6 27 -27 14z"/>
<path d="M7327 4768 c3 -29 11 -79 17 -111 10 -53 12 -57 29 -45 17 13 17 20
6 83 -8 49 -9 70 -1 73 8 2 8 10 0 28 -12 26 -24 31 -31 12 -4 -10 -6 -10 -6
0 -1 6 -5 12 -11 12 -5 0 -7 -22 -3 -52z"/>
<path d="M5940 4726 c0 -7 7 -19 15 -26 12 -10 16 -9 21 5 4 10 1 21 -7 26
-20 12 -29 11 -29 -5z"/>
<path d="M6030 4671 c-14 -28 -12 -41 5 -35 8 4 15 1 15 -5 0 -6 -4 -11 -10
-11 -5 0 -10 -7 -10 -15 0 -8 -7 -15 -16 -15 -8 0 -12 5 -9 10 3 6 2 10 -4 10
-21 0 -23 -23 -3 -42 48 -48 117 28 85 93 -17 34 -38 37 -53 10z"/>
<path d="M5737 4630 c-12 -32 -4 -45 30 -46 31 0 32 1 17 18 -9 9 -20 15 -25
13 -4 -3 -9 3 -12 12 -3 15 -5 15 -10 3z"/>
<path d="M6123 4528 c-17 -22 -23 -48 -11 -48 6 0 8 -3 5 -6 -9 -9 24 -64 45
-75 9 -5 19 -5 22 -1 10 17 -7 83 -24 92 -12 6 -16 17 -13 30 6 22 -9 27 -24
8z"/>
<path d="M5590 4450 c-11 -7 -9 -11 13 -19 42 -16 52 -13 32 9 -20 23 -24 23
-45 10z"/>
<path d="M5902 4412 c-31 -27 -32 -30 -16 -43 11 -9 15 -9 10 -1 -4 7 -2 12 7
12 8 0 20 14 26 30 5 17 9 30 8 30 -1 0 -17 -13 -35 -28z"/>
<path d="M6250 4411 c0 -17 5 -31 10 -31 6 0 10 11 10 24 0 14 -4 28 -10 31
-6 4 -10 -7 -10 -24z"/>
<path d="M6083 4407 c0 -7 9 -14 20 -14 11 -1 18 -1 16 0 -2 2 -11 8 -20 15
-12 9 -16 9 -16 -1z"/>
<path d="M5725 4330 c3 -5 13 -10 21 -10 8 0 12 5 9 10 -3 6 -13 10 -21 10 -8
0 -12 -4 -9 -10z"/>
<path d="M6187 4319 c7 -7 15 -10 18 -7 3 3 -2 9 -12 12 -14 6 -15 5 -6 -5z"/>
<path d="M6359 4294 c-6 -16 -18 -43 -25 -61 -18 -41 -18 -72 1 -79 8 -4 15
-13 15 -21 0 -10 6 -12 23 -8 12 4 25 10 28 14 9 8 -10 164 -21 175 -5 5 -14
-3 -21 -20z"/>
<path d="M6270 4299 c0 -5 -13 -15 -30 -20 -23 -8 -31 -19 -36 -47 -7 -36 6
-69 25 -64 6 1 11 -3 11 -9 0 -6 8 -9 17 -7 13 2 18 14 19 38 1 19 5 54 9 78
5 29 4 42 -4 42 -6 0 -11 -5 -11 -11z"/>
<path d="M7330 4285 c0 -26 7 -30 28 -17 16 10 5 42 -14 42 -8 0 -14 -10 -14
-25z"/>
<path d="M3600 4205 c-8 -9 -8 -15 -2 -15 12 0 26 19 19 26 -2 2 -10 -2 -17
-11z"/>
<path d="M6000 4170 c0 -13 20 -13 40 0 12 8 9 10 -12 10 -16 0 -28 -4 -28
-10z"/>
<path d="M6066 4161 c-3 -5 1 -11 9 -15 15 -6 29 7 18 18 -9 9 -21 8 -27 -3z"/>
<path d="M3610 4115 c-10 -12 -10 -18 1 -32 12 -15 12 -16 -1 -8 -12 6 -13 5
-3 -5 11 -12 15 -11 28 6 30 39 6 77 -25 39z"/>
<path d="M6416 4111 c-3 -5 6 -12 20 -15 29 -8 39 -3 29 13 -8 13 -42 14 -49
2z"/>
<path d="M6397 4033 c3 -7 10 -13 17 -13 17 0 36 -36 31 -61 -6 -30 3 -41 24
-30 26 14 46 -2 32 -25 -9 -17 -10 -17 -11 -1 0 24 -15 21 -34 -8 -16 -24 -15
-25 3 -25 20 0 48 -36 37 -48 -3 -3 -6 0 -6 6 0 15 -46 16 -55 2 -3 -5 0 -10
7 -10 9 0 13 -17 14 -57 2 -75 5 -93 16 -87 4 3 8 0 8 -6 0 -7 7 -10 14 -7 9
4 13 1 10 -6 -2 -7 4 -13 15 -14 16 -1 26 9 36 37 1 3 5 13 9 22 5 11 0 24
-13 37 -12 12 -21 25 -21 30 0 5 20 21 45 35 25 15 45 30 45 34 0 4 -7 20 -15
36 -11 21 -12 32 -5 41 8 10 3 18 -19 31 -17 10 -31 25 -31 34 0 24 -21 40
-51 40 -15 0 -30 4 -33 9 -3 5 -21 11 -40 13 -24 3 -32 0 -29 -9z"/>
<path d="M3640 4005 c-10 -13 -9 -15 11 -14 13 0 18 3 11 6 -6 2 -10 9 -6 14
9 15 -2 10 -16 -6z"/>
<path d="M3796 3954 c-11 -30 -7 -42 14 -37 15 4 20 0 20 -14 0 -10 -5 -24
-10 -29 -13 -13 -2 -44 15 -44 19 0 23 20 14 55 -11 37 5 55 23 26 13 -22 38
-29 38 -11 0 6 -6 10 -13 10 -8 0 -26 14 -40 30 -30 33 -52 38 -61 14z"/>
<path d="M3600 3936 c-15 -29 -8 -56 15 -56 15 0 35 37 35 66 0 23 -36 16 -50
-10z"/>
<path d="M3586 3838 c3 -5 10 -6 15 -3 13 9 11 12 -6 12 -8 0 -12 -4 -9 -9z"/>
<path d="M6646 3811 c5 -23 2 -32 -15 -41 -12 -6 -25 -9 -30 -6 -4 3 -6 -7 -3
-21 l5 -26 17 21 c10 12 20 18 24 15 3 -4 6 1 6 10 0 10 3 17 8 17 4 0 13 10
21 21 11 18 11 23 -1 30 -26 17 -38 10 -32 -20z"/>
<path d="M6707 3757 c-44 -38 -46 -44 -12 -44 18 0 30 8 41 29 23 45 13 50
-29 15z"/>
<path d="M7063 3700 c7 -8 17 -18 22 -22 20 -15 106 15 89 31 -3 3 -32 6 -64
6 -50 0 -57 -2 -47 -15z"/>
<path d="M6765 3701 c-3 -5 -1 -12 5 -16 5 -3 10 1 10 9 0 18 -6 21 -15 7z"/>
<path d="M6640 3669 c0 -5 -4 -8 -9 -5 -9 6 -21 -40 -21 -85 0 -24 5 -29 34
-35 51 -9 57 0 36 49 -11 24 -17 53 -13 65 4 16 1 22 -11 22 -9 0 -16 -5 -16
-11z"/>
<path d="M7260 3646 c0 -8 -4 -16 -10 -18 -6 -2 -5 -19 2 -46 6 -24 16 -41 22
-39 6 3 10 10 8 16 -1 7 2 10 7 6 6 -3 14 3 20 13 7 14 5 27 -9 50 -21 33 -40
42 -40 18z"/>
<path d="M6865 3640 c3 -5 8 -10 11 -10 2 0 4 5 4 10 0 6 -5 10 -11 10 -5 0
-7 -4 -4 -10z"/>
<path d="M3451 3614 c0 -11 3 -14 6 -6 3 7 2 16 -1 19 -3 4 -6 -2 -5 -13z"/>
<path d="M7180 3606 c-8 -9 -26 -17 -40 -18 -14 -2 -33 -14 -42 -27 -16 -23
-16 -25 0 -38 9 -7 13 -13 7 -12 -29 4 -42 -4 -52 -28 l-12 -28 2 30 c1 21 -2
29 -12 27 -7 -1 -20 3 -28 9 -10 9 -13 9 -11 1 2 -7 -8 -18 -22 -25 -15 -7
-31 -29 -40 -54 -13 -40 -13 -44 7 -65 11 -13 26 -34 33 -47 10 -19 14 -21 22
-10 6 10 8 6 6 -15 -4 -38 19 -46 27 -9 14 61 27 83 51 83 51 0 124 48 124 82
0 7 8 18 19 25 27 17 32 59 9 80 -10 9 -16 23 -13 30 2 8 1 12 -4 8 -5 -3 -11
0 -13 5 -2 6 -9 4 -18 -4z"/>
<path d="M6772 3602 c-10 -7 -10 -11 1 -21 17 -13 50 -4 44 13 -5 14 -28 18
-45 8z"/>
<path d="M3606 3551 c2 -39 3 -41 15 -41 6 0 8 7 5 17 -4 9 -2 19 3 23 6 3 3
10 -7 17 -16 9 -18 7 -16 -16z"/>
<path d="M6867 3527 c-3 -8 4 -14 19 -15 15 -1 24 4 24 13 0 18 -36 20 -43 2z"/>
<path d="M7307 3374 c-17 -15 -27 -31 -23 -39 7 -19 20 -19 36 0 7 8 9 15 6
15 -4 0 -2 9 4 21 17 30 9 31 -23 3z"/>
<path d="M7110 3240 c-9 -17 -8 -20 9 -20 14 0 18 5 14 20 -3 11 -7 20 -9 20
-2 0 -8 -9 -14 -20z"/>
<path d="M7130 3153 c0 -5 4 -15 10 -23 11 -18 25 -7 17 15 -6 15 -27 21 -27
8z"/>
<path d="M7026 3142 c-12 -20 7 -52 31 -52 21 0 23 3 14 14 -6 8 -10 20 -9 27
3 15 -27 25 -36 11z"/>
<path d="M7158 3112 c-21 -4 -34 -40 -19 -55 8 -8 15 -7 27 5 20 20 15 55 -8
50z"/>
<path d="M3650 3081 c-15 -30 -13 -46 4 -32 8 7 14 21 13 32 -2 24 -4 24 -17
0z"/>
<path d="M3671 3052 c-17 -31 -14 -38 25 -61 64 -38 74 -18 20 43 -32 38 -34
39 -45 18z"/>
<path d="M3368 3038 c9 -9 15 -9 24 0 9 9 7 12 -12 12 -19 0 -21 -3 -12 -12z"/>
<path d="M7240 2955 c-10 -12 -10 -19 -1 -28 9 -9 14 -9 21 3 22 34 4 54 -20
25z"/>
<path d="M3541 2896 c-8 -10 -9 -16 -1 -21 5 -3 13 1 16 10 9 22 -1 29 -15 11z"/>
<path d="M7253 2867 c-40 -13 -41 -23 -5 -62 34 -38 68 -36 77 5 5 21 1 34
-14 49 -12 12 -22 20 -23 20 -2 -1 -18 -7 -35 -12z"/>
<path d="M2925 2800 c-8 -25 3 -43 21 -36 9 3 14 -1 14 -13 0 -11 3 -26 6 -34
3 -10 -2 -17 -13 -20 -15 -4 -14 -5 4 -6 25 -1 34 25 19 52 -8 13 -7 20 4 27
12 7 12 12 -4 29 -24 26 -43 27 -51 1z"/>
<path d="M3516 2805 c-3 -8 -16 -19 -30 -24 -13 -5 -34 -24 -47 -42 -13 -19
-17 -29 -8 -25 7 4 4 -1 -8 -12 -30 -27 -29 -32 7 -32 25 0 30 4 30 23 0 15 9
28 24 35 16 7 29 25 35 48 11 38 9 58 -3 29z"/>
<path d="M4172 2798 c-7 -7 -12 -18 -12 -25 0 -7 -3 -12 -7 -11 -5 1 -18 -3
-29 -10 -12 -6 -23 -10 -25 -9 -2 1 2 -4 10 -10 8 -7 41 -13 73 -13 57 0 234
-26 252 -38 5 -3 20 -6 34 -8 24 -2 24 -2 -9 32 -37 38 -115 78 -136 70 -7 -3
-18 -17 -23 -31 -5 -14 -14 -25 -19 -25 -5 0 -3 12 5 28 20 38 19 40 -23 51
-50 14 -76 14 -91 -1z"/>
<path d="M3657 2750 c-21 -31 -66 -44 -87 -25 -9 8 -20 15 -24 15 -12 0 -36
-27 -29 -34 4 -3 -3 -6 -15 -6 -13 0 -22 -6 -22 -14 0 -19 10 -25 55 -31 21
-2 46 -7 56 -10 25 -8 57 10 79 48 33 53 21 106 -13 57z"/>
<path d="M3850 2750 c0 -5 5 -10 10 -10 6 0 10 5 10 10 0 6 -4 10 -10 10 -5 0
-10 -4 -10 -10z"/>
<path d="M3740 2698 c-21 -36 -40 -49 -40 -28 0 5 -7 7 -15 4 -8 -4 -15 -10
-15 -16 0 -5 5 -6 12 -2 7 4 8 3 4 -4 -4 -6 -13 -9 -22 -5 -12 4 -13 1 -4 -18
7 -16 19 -24 35 -24 14 0 25 4 25 8 0 4 9 3 21 -3 14 -8 24 -8 33 -1 6 6 22 8
34 4 12 -3 22 -2 22 3 0 23 -34 94 -46 94 -7 0 -14 6 -17 13 -2 6 -14 -5 -27
-25z"/>
<path d="M3880 2690 c-11 -21 -6 -40 10 -40 5 0 14 9 19 19 8 14 7 22 -4 31
-11 9 -16 7 -25 -10z"/>
<path d="M7273 2704 c-12 -5 -4 -30 21 -59 15 -18 52 24 39 44 -10 17 -39 24
-60 15z"/>
<path d="M7460 7565 c-7 -9 -8 -15 -2 -15 5 0 12 7 16 15 3 8 4 15 2 15 -2 0
-9 -7 -16 -15z"/>
</g>
</svg>
